SplineFontDB: 1.0
FontName: DarkGardenMK
FullName: Dark Garden
FamilyName: Dark Garden
Weight: Medium
Copyright: Copyright (C) 1999, 2000, 2004 Michal Kosmulski \n<mkosmul@users.sourceforge.net>\n\nThis font is free software; you can redistribute it and/or modify\nit under the terms of the GNU General Public License as published by\nthe Free Software Foundation; either version 2 of the License, or\n(at your option) any later version.\n\nThis font is distributed in the hope that it will be useful,\nbut WITHOUT ANY WARRANTY; without even the implied warranty of\nMERCHANTABILITY or FITNESS FOR A PARTICULAR PURPOSE.  See the\nGNU General Public License for more details.\n\nYou should have received a copy of the GNU General Public License\nalong with this font; if not, write to the Free Software\nFoundation, Inc., 675 Mass Ave, Cambridge, MA 02139, USA.\n\nAs a special exception, if you create a document which uses\nthis font, and embed this font or unaltered portions of this font into\nthe document, this font does not by itself cause the resulting\ndocument to be covered by the GNU General Public License.  This\nexception does not however invalidate any other reasons why the\ndocument might be covered by the GNU General Public License.  If you\nmodify this font, you may extend this exception to your version of the\nfont, but you are not obligated to do so. If you do not wish to do so,\ndelete this exception statement from your version.\n
Version: 1.1
ItalicAngle: 0
UnderlinePosition: -420
UnderlineWidth: 80
Ascent: 1638
Descent: 410
Order2: 1
NeedsXUIDChange: 1
FSType: 0
PfmFamily: 81
TTFWeight: 500
TTFWidth: 5
Panose: 2 11 6 3 5 6 0 0 2 4
LineGap: 0
VLineGap: 0
OS2TypoAscent: 2311
OS2TypoDescent: -708
OS2WinAscent: 2311
OS2WinDescent: 708
ScriptLang: 1
 1 latn 1 dflt 
LangName: 1033 "" "" "Regular" "DarkGarden (Michal Kosmulski)" "" "" "" "" "Micha+AUIA Kosmulski" "Micha+AUIA Kosmulski" 
Encoding: unicode
UnicodeInterp: none
DisplaySize: -48
AntiAlias: 1
FitToEm: 1

StartChar: .notdef
Encoding: 0 -1 0
Width: 2048
Flags: MW
VStem: 2 1085<0 1821>
Fore
2 0 m 1,0,-1
 2 1821 l 0,1,-1
 1087 1821 l 0,2,-1
 1087 0 l 0,3,-1
 2 0 l 1,0,-1
EndSplineSet
EndChar
StartChar: comma
Encoding: 44 44 6
Width: 267
Flags: HMW
HStem: -1.6875 173.812<6.75 231.188>
VStem: 120.938 110.25<-133.875 -1.6875>
Fore
40.5 -154.125 m 1,0,1
 96.75 -106.875 96.75 -106.875 106.875 -77.625 c 0,2,3
 117 -48.375 117 -48.375 117 -37.125 c 0,4,5
 123.75 -4.5 123.75 -4.5 91.125 -4.5 c 0,6,7
 58.5 -4.5 58.5 -4.5 54 -2.25 c 0,8,9
 4.5 11.25 4.5 11.25 2.25 81 c 0,10,11
 -1.125 133.875 -1.125 133.875 6.75 172.125 c 0,12,13
 24.75 208.125 24.75 208.125 48.375 208.125 c 0,14,15
 116.999 208.125 116.999 208.125 158.062 214.875 c 0,16,17
 179.095 214.82 l 0,18,19
 205.824 209.75 205.824 209.75 223.875 177.75 c 0,20,-1
 248.062 129.938 l 0,21,22
 251.423 123.475 251.423 123.475 251.338 108.103 c 0,23,24
 251.239 90.0244 251.239 90.0244 246.375 59.625 c 0,25,-1
 231.188 -1.6875 l 0,26,27
 219.376 -49.4989 219.376 -49.4989 191.25 -88.875 c 0,28,29
 164.25 -119.25 164.25 -119.25 120.938 -133.875 c 0,30,31
 77.625 -148.5 77.625 -148.5 40.5 -154.125 c 1,0,1
EndSplineSet
EndChar
StartChar: hyphen
Encoding: 45 45 7
Width: 1252
Flags: HMW
HStem: 843.75 163.5<206.75 1005.5>
Fore
379.25 809.25 m 1,0,1
 319.25 789.75 319.25 789.75 266 800.25 c 0,2,3
 212.75 810.75 212.75 810.75 212.75 866.25 c 0,4,-1
 261.5 836.25 l 0,5,6
 310.25 806.25 310.25 806.25 323.75 890.25 c 0,7,8
 326.75 932.25 326.75 932.25 268.25 938.25 c 0,9,10
 209.75 944.25 209.75 944.25 155.75 932.25 c 0,11,12
 122.75 911.25 122.75 911.25 120.5 863.25 c 0,13,14
 118.25 815.25 118.25 815.25 118.25 807.75 c 0,15,16
 74.75 891.75 74.75 891.75 111.5 943.5 c 0,17,18
 148.25 995.25 148.25 995.25 206.75 1007.25 c 0,19,20
 344.75 1016.25 344.75 1016.25 464 972 c 0,21,22
 583.25 927.75 583.25 927.75 718.25 927.75 c 0,23,24
 764.75 932.25 764.75 932.25 821.75 932.25 c 0,25,26
 878.75 932.25 878.75 932.25 889.25 966.75 c 0,27,28
 884.75 1011.75 884.75 1011.75 844.25 1002.75 c 0,29,30
 803.75 993.75 803.75 993.75 782.75 972.75 c 0,31,32
 794.75 1005.75 794.75 1005.75 812.75 1033.5 c 0,33,34
 830.75 1061.25 830.75 1061.25 878.75 1062.75 c 0,35,36
 934.25 1047.75 934.25 1047.75 950.75 1032.75 c 0,37,38
 967.25 1017.75 967.25 1017.75 982.25 969.75 c 0,39,40
 982.25 936.75 982.25 936.75 998.75 915 c 0,41,42
 1015.25 893.25 1015.25 893.25 1082.75 906.75 c 0,43,44
 1121.75 921.75 1121.75 921.75 1145.75 947.25 c 0,45,46
 1139.75 927.75 1139.75 927.75 1123.25 897.75 c 0,47,48
 1106.75 867.75 1106.75 867.75 1079.75 854.25 c 0,49,-1
 1079.75 854.25 l 0,50,-1
 1079.75 854.25 l 0,51,52
 1066.25 840.75 1066.25 840.75 1005.5 843.75 c 0,53,54
 944.75 846.75 944.75 846.75 929.75 846.75 c 0,55,56
 872.75 855.75 872.75 855.75 831.5 858 c 0,57,58
 790.25 860.25 790.25 860.25 736.25 842.25 c 0,59,60
 668.75 824.25 668.75 824.25 693.5 791.25 c 0,61,62
 718.25 758.25 718.25 758.25 784.25 815.25 c 0,63,64
 772.25 789.75 772.25 789.75 747.5 762 c 0,65,66
 722.75 734.25 722.75 734.25 613.25 755.25 c 0,67,68
 523.25 777.75 523.25 777.75 497.75 791.25 c 0,69,70
 472.25 804.75 472.25 804.75 379.25 809.25 c 1,0,1
EndSplineSet
KernsSLIF: 90 -260 0 0 122 -208 0 0 88 -182 0 0 120 -156 0 0 89 -130 0 0 121 -104 0 0 87 -182 0 0 119 -182 0 0 84 -286 0 0 116 -273 0 0 83 -234 0 0 115 -156 0 0 65 -234 0 0 97 -234 0 0
EndChar
StartChar: period
Encoding: 46 46 5
Width: 270
Flags: HMW
HStem: 57.9375 152.438<9 235.688>
Fore
142.875 2.25 m 0,0,1
 103.5 -1.125 103.5 -1.125 92.25 14.625 c 0,2,3
 81 29.25 81 29.25 63 34.875 c 0,4,5
 6.75 51.75 6.75 51.75 4.5 120.375 c 0,6,7
 0 172.125 0 172.125 9 210.375 c 0,8,9
 27 246.375 27 246.375 50.625 246.375 c 0,10,11
 119.249 246.375 119.249 246.375 160.312 253.125 c 0,12,13
 181.345 253.07 l 0,14,15
 208.074 248 208.074 248 226.125 216 c 0,16,-1
 250.312 168.188 l 0,17,18
 253.673 161.725 253.673 161.725 253.588 146.353 c 0,19,20
 253.489 128.274 253.489 128.274 248.625 97.875 c 0,21,22
 245.249 84.3705 245.249 84.3705 235.688 57.9375 c 0,23,24
 226.126 31.5004 226.126 31.5004 214.875 24.75 c 0,25,26
 180 4.5 180 4.5 142.875 2.25 c 0,0,1
EndSplineSet
EndChar
StartChar: colon
Encoding: 58 58 34
Width: 384
Flags: HMW
HStem: 23.625 211.5<86.625 239.062> 678.75 191.25<108.75 288.75>
Fore
108.75 870 m 1,0,1
 166.125 930.75 166.125 930.75 202.125 909.938 c 0,2,3
 238.125 889.125 238.125 889.125 295.5 832.875 c 0,4,5
 325.875 802.5 325.875 802.5 325.312 754.125 c 0,6,7
 324.75 705.75 324.75 705.75 288.75 678.75 c 0,8,9
 211.125 621.375 211.125 621.375 189.75 618 c 0,10,11
 168.375 614.625 168.375 614.625 131.25 636 c 0,12,13
 80.625 663 80.625 663 75 680.438 c 0,14,15
 69.375 697.875 69.375 697.875 68.25 731.625 c 0,16,17
 64.875 775.5 64.875 775.5 67.6875 803.062 c 0,18,19
 70.5 830.625 70.5 830.625 108.75 870 c 0,20,-1
 108.75 870 l 1,0,1
86.625 235.125 m 0,16,17
 95.625 275.625 95.625 275.625 164.25 279 c 0,18,19
 232.875 282.375 232.875 282.375 252 271.125 c 0,20,21
 273.375 257.625 273.375 257.625 289.688 189.562 c 0,22,23
 301.323 141.017 301.323 141.017 301.225 117.366 c 0,24,25
 301.185 107.859 301.185 107.859 299.25 102.375 c 0,26,27
 273.375 34.875 273.375 34.875 239.062 23.625 c 0,28,29
 204.749 12.375 204.749 12.375 160.875 12.375 c 0,30,31
 145.124 12.375 145.124 12.375 128.812 39.9375 c 0,32,33
 112.499 67.5003 112.499 67.5003 95.625 75.375 c 0,34,35
 68.625 86.625 68.625 86.625 73.125 142.875 c 0,36,37
 77.625 199.125 77.625 199.125 86.625 235.125 c 0,16,17
EndSplineSet
EndChar
StartChar: semicolon
Encoding: 59 59 35
Width: 384
Flags: HMW
HStem: 45 132.75<91.125 303.75> 738 180<118.875 291>
VStem: 154.125 149.625<-200.25 45>
Fore
118.875 918 m 1,0,1
 177.375 977.625 177.375 977.625 212.25 957.375 c 0,2,3
 247.125 937.125 247.125 937.125 305.625 880.875 c 0,4,5
 366.375 821.25 366.375 821.25 291 738 c 0,6,7
 238.125 679.5 238.125 679.5 230.25 678.938 c 0,8,9
 222.375 678.375 222.375 678.375 141.375 682.875 c 0,10,11
 82.875 686.25 82.875 686.25 81.1875 716.062 c 0,12,13
 79.5 745.875 79.5 745.875 77.25 779.625 c 0,14,15
 73.875 823.5 73.875 823.5 77.25 850.5 c 0,16,17
 80.625 877.5 80.625 877.5 118.875 918 c 0,18,-1
 118.875 918 l 1,0,1
91.125 177.75 m 0,15,16
 100.125 218.251 100.125 218.251 169.312 222.188 c 0,17,18
 225.136 222.126 l 0,19,20
 247.88 220.056 247.88 220.056 257.625 213.75 c 0,21,22
 278.999 200.25 278.999 200.25 293.062 133.312 c 0,23,24
 307.125 66.375 307.125 66.375 303.75 45 c 0,25,26
 292.5 -19.125 292.5 -19.125 246.938 -110.25 c 0,27,28
 202.357 -199.411 202.357 -199.411 154.125 -200.25 c 0,29,30
 201.375 -173.25 201.375 -173.25 201.375 -86.625 c 0,31,32
 201.375 0 201.375 0 174.375 6.75 c 0,33,34
 140.074 9.61226 l 0,35,36
 138.95 9.59327 138.95 9.59327 137.812 9.5625 c 0,37,38
 113.206 12.6329 l 0,39,40
 106.394 14.6566 106.394 14.6566 100.125 18 c 0,41,42
 73.125 30.375 73.125 30.375 77.625 85.5 c 0,43,44
 82.125 140.625 82.125 140.625 91.125 177.75 c 0,15,16
EndSplineSet
EndChar
StartChar: A
Encoding: 65 65 55
Width: 1447
Flags: W
Fore
1268 -330 m 1,0,1
 1304.01 -261.985 1304.01 -261.985 1321 -184 c 0,2,3
 1324.46 -150.427 l 0,4,5
 1323.49 -92.1465 1323.49 -92.1465 1272 -43 c 0,6,7
 1221.01 4.9888 1221.01 4.9888 1171 38 c 0,8,9
 1121.01 71 1121.01 71 1066 52 c 0,10,11
 1028.99 38 1028.99 38 1019.5 -17 c 0,12,13
 1010.01 -72 1010.01 -72 1006 -72 c 0,14,15
 965 9 965 9 1013.5 102 c 0,16,17
 1059.21 189.663 1059.21 189.663 1059.17 266.65 c 0,18,19
 1059.17 271.346 1059.17 271.346 1059 276 c 0,20,21
 1053 434.993 1053 434.993 1006 491.5 c 0,22,23
 959.002 547.999 959.002 547.999 895 573 c 0,24,25
 861.093 585.849 861.093 585.849 831.581 585.768 c 0,26,27
 778.406 585.622 778.406 585.622 739.5 543.5 c 0,28,29
 679.002 478.002 679.002 478.002 616 450 c 0,30,31
 577 432 577 432 533.5 448.5 c 0,32,33
 490 465 490 465 487 510 c 0,34,35
 532 492 532 492 543.5 499.5 c 0,36,37
 555 507 555 507 558 514 c 0,38,39
 579 558 579 558 530 570 c 0,40,41
 424 595 424 595 383 514 c 0,42,43
 347 446 347 446 318.5 347 c 0,44,45
 290 248 290 248 328 164 c 0,46,47
 336.295 144.644 336.295 144.644 336.228 116.448 c 0,48,49
 336.198 103.856 336.198 103.856 334.5 89.5 c 0,50,51
 328.999 42.9997 328.999 42.9997 283 27 c 0,52,53
 302 105 302 105 245 98 c 0,54,55
 188 91 188 91 157 57 c 0,56,57
 89.0005 -17 89.0005 -17 55 -80 c 0,58,59
 21 -143 21 -143 33 -233 c 0,60,61
 7.11917 -206.16 7.11917 -206.16 6.9652 -142.109 c 0,62,63
 6.95854 -139.339 6.95854 -139.339 7 -136.5 c 0,64,65
 8 -67.9999 8 -67.9999 27 -36 c 0,66,67
 60 22 60 22 93.5 73.5 c 0,68,69
 126.999 124.999 126.999 124.999 128 188 c 0,70,71
 128 227 128 227 100 243 c 0,72,73
 89.0676 246.192 l 0,74,75
 81.8899 245.118 81.8899 245.118 81.7695 231.241 c 0,76,77
 87 197 l 0,78,79
 60.9999 218 60.9999 218 60.5 237 c 0,80,81
 63 272 l 0,82,83
 105 461 105 461 237.5 625 c 0,84,85
 370.001 789.001 370.001 789.001 396 894 c 0,86,87
 431.998 1045.99 431.998 1045.99 450 1180 c 0,88,89
 458 1246.01 458 1246.01 501 1303.5 c 0,90,91
 526.01 1336.94 526.01 1336.94 555.08 1337.06 c 0,92,93
 575.989 1337.15 575.989 1337.15 599 1320 c 0,94,95
 545 1309.01 545 1309.01 543 1280.5 c 0,96,97
 541 1252 541 1252 552 1240 c 0,98,99
 570.499 1217.04 570.499 1217.04 589 1216.86 c 0,100,101
 599.5 1216.76 599.5 1216.76 610 1224 c 0,102,103
 666.003 1261.01 666.003 1261.01 702.5 1381 c 0,104,105
 739 1501 739 1501 737 1567 c 0,106,107
 734 1633 734 1633 690 1672 c 0,108,109
 669.348 1690.31 669.348 1690.31 646.491 1690.32 c 0,110,111
 620.654 1690.35 620.654 1690.35 592 1667 c 0,112,113
 628 1758.99 628 1758.99 682.5 1745 c 0,114,115
 737 1731.01 737 1731.01 792.5 1671.5 c 0,116,117
 848.023 1611.97 848.023 1611.97 896 1539 c 0,118,119
 944 1465.99 944 1465.99 966 1440 c 0,120,121
 1000.99 1397.01 1000.99 1397.01 1047 1369 c 0,122,123
 1092.99 1341 1092.99 1341 1112 1302 c 0,124,125
 1127.05 1269.26 1127.05 1269.26 1127.11 1243.37 c 0,126,127
 1127.19 1210.74 1127.19 1210.74 1103.5 1189 c 0,128,129
 1081.08 1168.42 1081.08 1168.42 1054.61 1168.45 c 0,130,131
 1030.93 1168.47 1030.93 1168.47 1004 1185 c 0,132,133
 1024.39 1186.95 l 0,134,135
 1038.73 1191.67 1038.73 1191.67 1040 1207 c 0,136,137
 1040 1232 1040 1232 1000.5 1252 c 0,138,139
 992.466 1256.07 992.466 1256.07 986.066 1256.04 c 0,140,141
 961 1255.93 961 1255.93 961 1193 c 0,142,143
 961 1164.99 961 1164.99 974 1131.5 c 0,144,145
 987 1098.01 987 1098.01 995 1082 c 0,146,147
 1018.3 1023.02 1018.3 1023.02 1032.59 1022.63 c 0,148,149
 1036.22 1022.53 1036.22 1022.53 1039.27 1026.22 c 0,150,151
 1040.7 1027.94 1040.7 1027.94 1042 1030.5 c 0,152,153
 1057 1060.01 1057 1060.01 1039 1080 c 0,154,155
 1077.99 1080 1077.99 1080 1091 1030.5 c 0,156,157
 1104 981.019 1104 981.019 1104 968 c 0,158,159
 1104 893.057 1104 893.057 1094.5 786.5 c 0,160,161
 1092.76 724.816 l 0,162,163
 1095.42 659.144 1095.42 659.144 1119 612 c 0,164,165
 1129.97 589.052 1129.97 589.052 1171 527.5 c 0,166,167
 1211.99 466.005 1211.99 466.005 1230 456 c 0,168,169
 1251.99 443.008 1251.99 443.008 1272.5 399.5 c 0,170,171
 1278.45 386.871 1278.45 386.871 1278.38 375.043 c 0,172,173
 1278.2 346.131 1278.2 346.131 1242 322 c 0,174,175
 1248.76 340.824 1248.76 340.824 1248.69 354.457 c 0,176,177
 1248.53 387.176 1248.53 387.176 1209 390 c 0,178,179
 1180.02 387.742 l 0,180,181
 1171.73 385.453 1171.73 385.453 1169 380 c 0,182,183
 1166.86 361.224 l 0,184,185
 1167.14 356.858 1167.14 356.858 1168 352 c 0,186,187
 1183 234.001 1183 234.001 1270 167 c 0,188,189
 1357.01 99.9952 1357.01 99.9952 1368 -1 c 0,190,191
 1372.17 -39.7089 1372.17 -39.7089 1372.1 -75.0335 c 0,192,193
 1371.98 -132.791 1371.98 -132.791 1360.5 -181.5 c 0,194,195
 1342.01 -259.987 1342.01 -259.987 1268 -330 c 1,0,1
701 705 m 0,116,117
 736.5 753 l 0,118,119
 755 778 755 778 776 793 c 0,120,121
 839 831 839 831 860 763 c 0,122,123
 831.214 778.397 831.214 778.397 813.857 778.333 c 0,124,125
 805.285 778.302 805.285 778.302 799.5 774.5 c 0,126,127
 790.855 768.819 790.855 768.819 790.629 758.624 c 0,128,129
 794.49 742.017 l 0,130,131
 796.315 737.74 796.315 737.74 799 733 c 0,132,133
 827 679 827 679 877 735 c 0,134,135
 927 791 927 791 912 878 c 0,136,137
 904.001 918.996 904.001 918.996 851 1051 c 0,138,139
 798 1183 798 1183 759 1150 c 0,140,141
 734.385 1130 734.385 1130 734.326 1102.31 c 0,142,143
 734.308 1094 734.308 1094 736.5 1085 c 0,144,145
 746 1046 746 1046 750 1010 c 0,146,147
 756 938 756 938 726 869.5 c 0,148,149
 696 801 696 801 585 843 c 0,150,151
 616 840 616 840 661 864.5 c 0,152,153
 706 889 706 889 654 934 c 0,154,155
 635 949 635 949 610.5 934.5 c 0,156,157
 585.998 919.998 585.998 919.998 571 901 c 0,158,159
 531.263 848.664 531.263 848.664 530.978 805.134 c 0,160,161
 530.881 790.211 530.881 790.211 535.419 776.324 c 0,162,163
 544.962 747.125 544.962 747.125 575 722.5 c 0,164,165
 661 652 661 652 701 705 c 0,116,117
EndSplineSet
KernsSLIF: 67 -52 0 0 99 -130 0 0 77 -104 0 0 109 -78 0 0 104 -130 0 0 72 -104 0 0 45 -169 0 0 115 -286 0 0 83 -247 0 0 121 -299 0 0 89 -257 0 0 116 -299 0 0 84 -299 0 0 118 -65 0 0 119 -230 0 0 86 -50 0 0 87 -193 0 0
EndChar
StartChar: B
Encoding: 66 66 16
Width: 1278
Flags: HMW
HStem: 48 189<429.6 747.3> 726 257<422.4 754.5> 1447 200<399 696> 1549 111<30 212.7>
VStem: 246 153<-28 1647>
Fore
502 218 m 1,0,1
 561.4 216.556 l 0,2,3
 622.601 219 622.601 219 691 237 c 0,4,5
 793.6 264 793.6 264 865.6 297 c 0,6,7
 926.8 324 926.8 324 994 397 c 0,8,9
 1036 442.625 1036 442.625 1036.28 481.219 c 0,10,11
 1036.38 494.855 1036.38 494.855 1031.27 507.613 c 0,12,13
 1027.71 516.52 1027.71 516.52 1021.6 525 c 0,14,15
 1007.2 544 1007.2 544 977.2 551.5 c 0,16,17
 947.2 559 947.2 559 923.2 535 c 0,18,19
 907.6 519 907.6 519 914.2 492 c 0,20,21
 920.8 465 920.8 465 962.8 448 c 0,22,23
 930.4 424 930.4 424 872.8 455.5 c 0,24,25
 815.2 487 815.2 487 824.8 540 c 0,26,27
 834.4 599 834.4 599 892 634.5 c 0,28,29
 949.6 670 949.6 670 930.4 721 c 0,30,31
 914.8 760 914.8 760 828.4 789 c 0,32,33
 742 818 742 818 659.2 824 c 0,34,35
 583.6 829 583.6 829 518.2 821 c 0,36,37
 452.8 813 452.8 813 422.8 749 c 0,38,39
 397.6 699 397.6 699 394 644 c 0,40,41
 392.642 563.434 l 0,42,43
 393.092 550.121 393.092 550.121 394 537 c 0,44,45
 394 505 394 505 425.8 479 c 0,46,47
 441.204 466.405 441.204 466.405 461.255 466.482 c 0,48,49
 482.596 466.563 482.596 466.563 509.2 481 c 0,50,51
 563.2 511 563.2 511 547 549.5 c 0,52,53
 530.8 588 530.8 588 487.6 600 c 0,54,55
 535.6 628 535.6 628 587.2 607 c 0,56,57
 641.417 584.409 641.417 584.409 641.743 534.874 c 0,58,59
 641.778 529.59 641.778 529.59 641.2 524 c 0,60,61
 635.2 466 635.2 466 600.4 434 c 0,62,63
 568 404 568 404 494.8 354.5 c 0,64,65
 421.6 305 421.6 305 432.4 260 c 0,66,67
 439.6 222.999 439.6 222.999 502 218 c 0,68,-1
 502 218 l 1,0,1
407.399 1024 m 1,44,45
 440.211 988.385 440.211 988.385 494.485 988.133 c 0,46,47
 515.008 988.038 515.008 988.038 538.6 993 c 0,48,49
 710.352 1029.12 710.352 1029.12 715 1040 c 0,50,-1
 855 1160 l 0,51,52
 892.587 1216.39 892.587 1216.39 895 1340 c 0,53,54
 891.78 1368.18 l 0,55,56
 877.492 1424.08 877.492 1424.08 800.199 1467 c 0,57,58
 718.469 1511.32 718.469 1511.32 663.365 1511.34 c 0,59,60
 653.779 1511.34 653.779 1511.34 645 1510 c 0,61,62
 624.821 1506.71 624.821 1506.71 624.832 1481.94 c 0,63,64
 624.843 1459.52 624.843 1459.52 641.399 1419.5 c 0,65,66
 656.36 1382.55 656.36 1382.55 656.399 1347.14 c 0,67,68
 656.445 1304.45 656.445 1304.45 634.8 1264 c 0,69,70
 577.198 1157.99 577.198 1157.99 480 1165 c 0,71,72
 542.913 1179.56 542.913 1179.56 543.048 1262.94 c 0,73,74
 543.052 1265.44 543.052 1265.44 543 1268 c 0,75,76
 541.199 1356 541.199 1356 471.6 1356 c 0,77,78
 412.814 1356 412.814 1356 390 1175 c 0,79,80
 385.232 1137.17 385.232 1137.17 385.253 1108.14 c 0,81,82
 385.299 1045.82 385.299 1045.82 407.399 1024 c 0,83,-1
 407.399 1024 l 1,44,45
329 42.5 m 145,-1,-1
 217.398 -13.5 l 0,45,46
 189.653 -11.4947 l 0,47,48
 152.289 -3.04026 152.289 -3.04026 148.549 38.5 c 0,49,50
 143.6 93.5001 143.6 93.5001 170.6 138.5 c 0,51,52
 171.034 92.1899 l 0,53,54
 175.03 55.9341 175.03 55.9341 193.049 55.9206 c 0,55,56
 196.817 55.9177 196.817 55.9177 201.199 57.5 c 0,57,58
 237.199 70.5001 237.199 70.5001 243.049 146 c 0,59,60
 245.057 225.875 l 0,61,62
 244.13 266.908 244.13 266.908 239.449 311.5 c 0,63,64
 230 401.5 230 401.5 212.449 482.5 c 0,65,66
 194.897 563.5 194.897 563.5 185.898 586.5 c 0,67,68
 148.1 672.5 148.1 672.5 131 707 c 0,69,70
 109.776 749.815 109.776 749.815 62.5996 814.5 c 0,71,72
 25.0875 865.935 25.0875 865.935 25.0878 930.344 c 0,73,74
 25.0878 938.566 25.0878 938.566 25.6992 947 c 0,75,76
 31.099 1021.51 31.099 1021.51 84.1992 1062.5 c 0,77,78
 105.439 1078.95 105.439 1078.95 132.197 1079.03 c 0,79,80
 142.86 1079.06 142.86 1079.06 154.398 1076.5 c 0,81,82
 194.898 1067.5 194.898 1067.5 199.398 984.5 c 0,83,84
 181.495 1010.2 181.495 1010.2 153.067 1010.13 c 0,85,86
 147.206 1010.11 147.206 1010.11 140.898 1009 c 0,87,88
 108.919 1003.37 108.919 1003.37 108.71 956.798 c 0,89,90
 108.678 949.633 108.678 949.633 109.398 941.5 c 0,91,92
 113.898 888.5 113.898 888.5 153.5 887 c 0,93,94
 177.527 889.565 l 0,95,96
 198.558 895.607 198.558 895.607 209.299 915.5 c 0,97,98
 244.941 978.864 244.941 978.864 244.85 1117 c 0,99,100
 244.398 1254.51 244.398 1254.51 239 1337.5 c 0,101,102
 234.5 1398.51 234.5 1398.51 214.699 1474 c 0,103,104
 197.487 1539.63 197.487 1539.63 136.544 1539.54 c 0,105,106
 125.889 1539.52 125.889 1539.52 113.898 1537.5 c 0,107,108
 53.5987 1527.32 53.5987 1527.32 53.5019 1477.59 c 0,109,110
 53.4845 1468.68 53.4845 1468.68 55.3984 1458.5 c 0,111,112
 67.9981 1391.51 67.9981 1391.51 95 1387.5 c 0,113,114
 71.1185 1384.55 l 0,115,116
 33.5813 1386.31 33.5813 1386.31 9.04883 1432 c 0,117,118
 -9.05229 1465.71 -9.05229 1465.71 -9.0989 1503.43 c 0,119,120
 -9.13456 1532.29 -9.13456 1532.29 1.39844 1563.5 c 0,121,122
 48.8936 1701.35 48.8936 1701.35 184.1 1674.5 c 0,123,-1
 277.25 1656 l 0,124,125
 288.387 1652.52 288.387 1652.52 303.567 1652.53 c 0,126,127
 337.485 1652.56 337.485 1652.56 391.6 1670 c 0,128,129
 439.6 1686.01 439.6 1686.01 478.6 1730 c 0,130,131
 517.645 1774.05 517.645 1774.05 550 1807 c 0,132,133
 571.608 1830 571.608 1830 616.6 1849.5 c 0,134,135
 661.6 1869 661.6 1869 701.2 1863 c 0,136,137
 757.593 1855.01 757.593 1855.01 810.4 1807 c 0,138,139
 844.491 1776.01 844.491 1776.01 844.565 1732.09 c 0,140,141
 844.604 1708.46 844.604 1708.46 834.4 1680 c 0,142,143
 826.002 1712.99 826.002 1712.99 757 1759 c 0,144,145
 732.891 1775.07 732.891 1775.07 713.659 1775.14 c 0,146,147
 686.315 1775.24 686.315 1775.24 668.833 1742.98 c 0,148,149
 664.282 1734.59 664.282 1734.59 660.4 1724 c 0,150,151
 659.954 1711.82 l 0,152,153
 668.693 1677.46 668.693 1677.46 782.8 1621.5 c 0,154,155
 918.4 1555.01 918.4 1555.01 954.4 1515 c 0,156,157
 1044.4 1411.99 1044.4 1411.99 1061.8 1300 c 0,158,159
 1069.05 1253.31 1069.05 1253.31 1068.98 1209.14 c 0,160,161
 1068.86 1141.63 1068.86 1141.63 1051.6 1080 c 0,162,163
 1043.2 1049.99 1043.2 1049.99 997 1004.5 c 0,164,165
 964.388 972.382 964.388 972.382 932.075 972.403 c 0,166,167
 918.612 972.412 918.612 972.412 905.2 978 c 0,168,169
 938.8 1012.99 938.8 1012.99 905.2 1026 c 0,170,171
 886.612 1029.18 l 0,172,173
 869.691 1027.82 869.691 1027.82 865.6 1006 c 0,174,175
 857.2 961 857.2 961 951.4 850 c 0,176,177
 1046.91 737.47 1046.91 737.47 1080.4 784 c 0,178,179
 1098.4 809 1098.4 809 1080.4 844 c 0,180,181
 1062.4 879 1062.4 879 1025.2 906 c 0,182,183
 1133.2 903 1133.2 903 1181.2 815.5 c 0,184,185
 1229.2 728 1229.2 728 1231.6 695 c 0,186,187
 1235.2 629 1235.2 629 1196.2 526 c 0,188,189
 1157.2 423 1157.2 423 1157.2 339 c 0,190,191
 1157.2 237.999 1157.2 237.999 1142.8 158 c 0,192,193
 1128.4 78.0005 1128.4 78.0005 1085.2 27 c 0,194,195
 1033.6 -33 1033.6 -33 947.2 -50 c 0,196,197
 904 -59 904 -59 830.2 -52 c 0,198,199
 756.4 -45 756.4 -45 725.2 -20 c 0,200,201
 780.4 -32 780.4 -32 833.2 -4.5 c 0,202,203
 887.95 24.0156 887.95 24.0156 856 71 c 0,204,205
 835.6 101 835.6 101 731.2 97 c 0,206,207
 626.8 92.9999 626.8 92.9999 584.8 90 c 0,208,-1
 450.4 79.5 l 0,209,210
 396.73 69.5341 396.73 69.5341 329 42.5 c 145,-1,-1
EndSplineSet
EndChar
StartChar: C
Encoding: 67 67 9
Width: 1268
Flags: W
Fore
47 1225 m 0,0,1
 49.4717 1250.42 l 0,2,3
 59.182 1290.3 59.182 1290.3 105 1339.5 c 0,4,5
 139.698 1376.76 139.698 1376.76 170.189 1376.97 c 0,6,7
 184.334 1377.07 184.334 1377.07 197.574 1369.19 c 0,8,9
 205.969 1364.2 205.969 1364.2 214 1356 c 0,10,11
 161.521 1347.64 161.521 1347.64 161.103 1310.92 c 0,12,13
 165.255 1287.2 l 0,14,15
 165.612 1286.11 165.612 1286.11 166 1285 c 0,16,17
 173.846 1261.46 173.846 1261.46 188.296 1261.14 c 0,18,19
 201.91 1265.14 l 0,20,21
 214.659 1272.25 214.659 1272.25 231 1292 c 0,22,23
 279.011 1350.02 279.011 1350.02 288 1369 c 0,24,25
 316.999 1432 316.999 1432 325.5 1494 c 0,26,27
 334.002 1556.01 334.002 1556.01 375 1609 c 0,28,29
 407.609 1651.5 407.609 1651.5 461 1651.5 c 0,30,31
 513.998 1651.01 513.998 1651.01 527 1612 c 0,32,33
 477.134 1610.54 477.134 1610.54 476.205 1594.01 c 0,34,35
 479.67 1583.33 l 0,36,37
 480.687 1581.71 480.687 1581.71 482 1580 c 0,38,39
 503 1550 503 1550 539 1571 c 0,40,41
 575.016 1592.01 575.016 1592.01 592 1608 c 0,42,43
 625.211 1639.88 625.211 1639.88 625.553 1659.63 c 0,44,45
 622.289 1671.21 l 0,46,47
 620.426 1674.05 620.426 1674.05 617.5 1676.5 c 0,48,49
 605.555 1686.5 605.555 1686.5 590.873 1686.63 c 0,50,51
 579.546 1686.73 579.546 1686.73 566.589 1680.95 c 0,52,53
 561.901 1678.86 561.901 1678.86 557 1676 c 0,54,55
 561.001 1724.01 561.001 1724.01 599 1730.5 c 0,56,57
 631.988 1732.53 l 0,58,59
 649.19 1731.37 649.19 1731.37 663 1725 c 0,60,61
 774.955 1671.02 774.955 1671.02 848.5 1627 c 0,62,63
 922.028 1582.99 922.028 1582.99 944 1574 c 0,64,65
 980.724 1556.52 980.724 1556.52 1013.99 1556.61 c 0,66,67
 1018.78 1556.62 1018.78 1556.62 1023.5 1557 c 0,68,69
 1065.63 1556.28 l 0,70,71
 1085.75 1554.21 1085.75 1554.21 1108 1549 c 0,72,73
 1133.01 1543 1133.01 1543 1141 1509 c 0,74,75
 1144.76 1476.5 l 0,76,77
 1144.64 1459.48 1144.64 1459.48 1140 1443 c 0,78,79
 1100.54 1480.38 1100.54 1480.38 1075.21 1480.38 c 0,80,81
 1063.96 1480.38 1063.96 1480.38 1055.5 1473 c 0,82,83
 1028 1449 1028 1449 1027 1379 c 0,84,85
 1025.99 1342.76 1025.99 1342.76 1023.5 1308 c 0,86,87
 1024.8 1274.25 l 0,88,89
 1027.4 1257.24 1027.4 1257.24 1034 1241 c 0,90,91
 1056.99 1187 1056.99 1187 1104 1173.5 c 0,92,93
 1150.99 1160 1150.99 1160 1208 1157 c 0,94,95
 1193.22 1128.26 1193.22 1128.26 1142.36 1128.18 c 0,96,97
 1131.28 1128.16 1131.28 1128.16 1118.5 1129.5 c 0,98,99
 1046.99 1137 1046.99 1137 1024 1155 c 0,100,101
 960.474 1201.53 960.474 1201.53 960.191 1248.45 c 0,102,103
 960.158 1253.97 960.158 1253.97 961 1259.5 c 0,104,105
 961.658 1293.31 l 0,106,107
 957.59 1340.52 957.59 1340.52 929 1412 c 0,108,109
 904.002 1471.99 904.002 1471.99 828.5 1485 c 0,110,111
 753 1498.01 753 1498.01 702 1440 c 0,112,113
 663 1395 663 1395 633 1335 c 0,114,115
 603.007 1275.01 603.007 1275.01 567 1229 c 0,116,117
 553 1211 553 1211 495 1212.5 c 0,118,119
 442.472 1213.86 442.472 1213.86 441.617 1243.51 c 0,120,121
 441.528 1246.6 441.528 1246.6 442 1250 c 0,122,123
 476 1233.01 476 1233.01 508 1254.5 c 0,124,125
 538.826 1275.21 538.826 1275.21 539 1309 c 0,126,127
 538.026 1346.98 538.026 1346.98 516 1347.5 c 0,128,129
 494.008 1347.01 494.008 1347.01 476 1335 c 0,130,131
 422.998 1299 422.998 1299 400 1269 c 0,132,133
 376.997 1239 376.997 1239 363 1178 c 0,134,135
 350.291 1125.16 350.291 1125.16 350.334 1075.45 c 0,136,137
 350.354 1050.84 350.354 1050.84 353.5 1027 c 0,138,-1
 373 875 l 0,139,140
 377 833 377 833 392.5 790.5 c 0,141,142
 408 748 408 748 402 708 c 0,143,144
 384 597 384 597 276 601 c 0,145,146
 297 615 297 615 321 643.5 c 0,147,148
 345 672 345 672 327 704 c 0,149,150
 317.431 720.586 317.431 720.586 296.467 720.691 c 0,151,152
 284.569 720.75 284.569 720.75 269 715.5 c 0,153,154
 226 701 226 701 222 674 c 0,155,156
 203.999 574.997 203.999 574.997 203.5 494 c 0,157,158
 207.196 446.84 l 0,159,160
 216.755 387.21 216.755 387.21 251 323 c 0,161,162
 274 279 274 279 310 272.5 c 0,163,164
 325.021 273.259 l 0,165,166
 349.347 280.951 349.347 280.951 361 333 c 0,167,168
 367 358 367 358 360.5 370.5 c 0,169,170
 354.013 382.975 354.013 382.975 340 408 c 0,171,172
 364 402 364 402 386 395.5 c 0,173,174
 408 389 408 389 420 365 c 0,175,176
 444 317 444 317 448 270 c 0,177,178
 452.001 223 452.001 223 469 172 c 0,179,180
 485.999 112 485.999 112 527 100 c 0,181,182
 549.843 92.7319 549.843 92.7319 568.743 92.6397 c 0,183,184
 589.209 92.5398 589.209 92.5398 605.053 100.853 c 0,185,186
 630.948 114.44 630.948 114.44 644.5 150.5 c 0,187,188
 674 228.999 674 228.999 713 284 c 0,189,190
 728 306 728 306 758.5 303 c 0,191,192
 789 300 789 300 807 272 c 0,193,194
 822.48 247.06 822.48 247.06 822.428 228.037 c 0,195,196
 822.42 224.94 822.42 224.94 822 222 c 0,197,198
 806.151 230.453 806.151 230.453 792.255 230.533 c 0,199,200
 779.849 230.604 779.849 230.604 769 224 c 0,201,202
 756.895 216.632 756.895 216.632 756.701 206.493 c 0,203,204
 760.654 193.505 l 0,205,206
 762.764 189.883 762.764 189.883 766 186 c 0,207,208
 778.697 169.395 778.697 169.395 794.376 169.248 c 0,209,210
 804.891 169.149 804.891 169.149 816.746 176.451 c 0,211,212
 823.411 180.556 823.411 180.556 830.5 187 c 0,213,214
 869 221.999 869 221.999 872 275 c 0,215,216
 875 343 875 343 864 401 c 0,217,218
 853.002 458.994 853.002 458.994 830 527 c 0,219,220
 819 558 819 558 829.5 632 c 0,221,222
 840 706 840 706 877 760 c 0,223,224
 871 705 871 705 863.5 649.5 c 0,225,226
 856 594 856 594 874 540 c 0,227,228
 887.006 500.985 887.006 500.985 903 460.5 c 0,229,230
 919 420 919 420 937 388 c 0,231,232
 967.999 333.002 967.999 333.002 997 302 c 0,233,234
 1020.46 276.921 1020.46 276.921 1064.21 276.712 c 0,235,236
 1074.54 276.663 1074.54 276.663 1086 278 c 0,237,238
 1110.37 280.089 1110.37 280.089 1110.5 306.429 c 0,239,240
 1110.55 317.912 1110.55 317.912 1106 334 c 0,241,242
 1118.66 334.754 l 0,243,244
 1131.52 331.594 1131.52 331.594 1143 312 c 0,245,246
 1157.23 287.716 1157.23 287.716 1157.45 273.956 c 0,247,248
 1157.49 271.279 1157.49 271.279 1157 269 c 0,249,250
 1148 226.995 1148 226.995 1130.5 212 c 0,251,252
 1112.99 197 1112.99 197 1075 185 c 0,253,254
 1046.42 174.52 1046.42 174.52 1011.5 174.5 c 0,255,256
 978 174.999 978 174.999 951 161 c 0,257,258
 914 141.001 914 141.001 909.5 67 c 0,259,260
 905 -6.99995 905 -6.99995 884 -48 c 0,261,262
 861 -91.0001 861 -91.0001 795 -104 c 0,263,264
 769 -108.999 769 -108.999 721.5 -100 c 0,265,266
 674 -91 674 -91 675 -49 c 0,267,268
 706 -76 706 -76 748 -55 c 0,269,270
 771 -41 771 -41 760.5 -12 c 0,271,272
 750 17 750 17 728 23 c 0,273,274
 701 27 701 27 672 20 c 0,275,276
 643 12.9999 643 12.9999 618 4 c 0,277,278
 510.997 -35.0014 510.997 -35.0014 450.5 -65 c 0,279,280
 390 -95 390 -95 288 -50 c 0,281,282
 255.001 -35.0002 255.001 -35.0002 248 19 c 0,283,284
 240.999 73 240.999 73 266 90 c 0,285,286
 268.764 57.7708 l 0,287,288
 273.271 37.2823 273.271 37.2823 285 23.5 c 0,289,290
 305 -3.8147e-06 305 -3.8147e-06 326 18 c 0,291,292
 351 42 351 42 330 84.5 c 0,293,294
 309 126.999 309 126.999 270 170 c 0,295,296
 231.004 212.997 231.004 212.997 189 247 c 0,297,298
 147 281 147 281 132 287 c 0,299,300
 90.8733 273.479 90.8733 273.479 90.2146 252.658 c 0,301,302
 93.6925 239.052 l 0,303,304
 99.219 228.316 99.219 228.316 113.5 216 c 0,305,306
 168.001 168.999 168.001 168.999 208 167 c 0,307,308
 164.966 164.347 l 0,309,310
 113.852 166.12 113.852 166.12 87.5 195 c 0,311,312
 51 235.001 51 235.001 27 291 c 0,313,314
 -18 394 -18 394 7 532 c 0,315,316
 21 601 21 601 58.5 666.5 c 0,317,318
 96 732 96 732 100 804 c 0,319,320
 104.001 909 104.001 909 77.5 1014 c 0,321,322
 50.9998 1119 50.9998 1119 47 1225 c 0,0,1
EndSplineSet
KernsSLIF: 83 -143 0 0 115 -130 0 0 65 -65 0 0 97 -91 0 0
EndChar
StartChar: D
Encoding: 68 68 59
Width: 1497
Flags: HMW
VStem: 205 177.5<-118.5 1622>
Fore
365 -163 m 1,0,1
 416.469 -202.888 416.469 -202.888 460.901 -203.041 c 0,2,3
 485.532 -203.126 485.532 -203.126 508 -191 c 0,4,5
 571 -156.999 571 -156.999 570 -140 c 0,6,7
 568.069 -103.299 568.069 -103.299 511.5 -103 c 0,8,9
 454.994 -104.001 454.994 -104.001 382.5 -118.5 c 0,10,11
 309.985 -133.004 309.985 -133.004 241 -149.5 c 0,12,13
 187.813 -162.219 187.813 -162.219 159.581 -162.162 c 0,14,15
 151.188 -162.146 151.188 -162.146 145 -161 c 0,16,17
 87.0002 -150.001 87.0002 -150.001 36.5 -93.5 c 0,18,19
 -14 -37 -14 -37 31 65 c 0,20,21
 32 -35 32 -35 80 -60.5 c 0,22,23
 106.871 -74.7751 106.871 -74.7751 136.405 -74.7912 c 0,24,25
 159.629 -74.8038 159.629 -74.8038 184.5 -66 c 0,26,27
 241 -46.0003 241 -46.0003 287.5 5 c 0,28,29
 334 56 334 56 334 110 c 0,30,31
 334 134.001 334 134.001 303 181 c 0,32,33
 272 227.999 272 227.999 240 223 c 0,34,35
 200.921 216.053 200.921 216.053 200.681 163.856 c 0,36,37
 200.645 155.947 200.645 155.947 201.5 147 c 0,38,39
 207.999 79.0005 207.999 79.0005 242 55 c 0,40,41
 198 57 198 57 186 69.5 c 0,42,43
 173.999 82.0008 173.999 82.0008 166 102 c 0,44,45
 146.175 148.259 146.175 148.259 146.18 200.646 c 0,46,47
 146.186 259.24 146.186 259.24 171 325.5 c 0,48,49
 217.997 450.995 217.997 450.995 255 533 c 0,50,51
 281 592 281 592 288.5 644.5 c 0,52,53
 296 697 296 697 284 804 c 0,54,55
 272 905.001 272 905.001 200.5 994 c 0,56,57
 129.006 1082.99 129.006 1082.99 113 1136 c 0,58,59
 105.918 1159.37 105.918 1159.37 105.92 1182.3 c 0,60,61
 105.924 1224.13 105.924 1224.13 129.5 1264.5 c 0,62,63
 159.568 1315.99 159.568 1315.99 217.121 1316.24 c 0,64,65
 229.432 1316.29 229.432 1316.29 243 1314 c 0,66,67
 217.999 1303.01 217.999 1303.01 202.5 1270.5 c 0,68,69
 197.239 1259.47 197.239 1259.47 197.22 1249.64 c 0,70,71
 197.184 1230.54 197.184 1230.54 217 1216 c 0,72,73
 229.554 1206.32 229.554 1206.32 239.508 1206.15 c 0,74,75
 250.481 1209.35 l 0,76,77
 269.179 1221.62 269.179 1221.62 275 1281 c 0,78,79
 280.343 1335.49 280.343 1335.49 280.262 1373.43 c 0,80,81
 280.192 1406.51 280.192 1406.51 276 1427 c 0,82,83
 265.002 1483.99 265.002 1483.99 241 1527 c 0,84,85
 216.996 1570.01 216.996 1570.01 205 1622 c 0,86,87
 198.585 1647.66 198.585 1647.66 198.623 1675.88 c 0,88,89
 198.661 1704.84 198.661 1704.84 205.5 1736.5 c 0,90,91
 218.999 1799 218.999 1799 263 1838 c 0,92,93
 292.994 1866 292.994 1866 351 1867.5 c 0,94,95
 385.17 1864.86 l 0,96,97
 415.91 1858.47 415.91 1858.47 430 1837 c 0,98,99
 440 1820.01 440 1820.01 448 1802.5 c 0,100,101
 451.449 1794.95 451.449 1794.95 451.366 1783.78 c 0,102,103
 451.257 1769.05 451.257 1769.05 445 1748 c 0,104,105
 439 1775 439 1775 383 1796 c 0,106,107
 370.726 1800.6 370.726 1800.6 360.326 1800.69 c 0,108,109
 348.764 1800.79 348.764 1800.79 339.517 1795.3 c 0,110,111
 319.131 1783.21 319.131 1783.21 310 1744 c 0,112,113
 296 1690 296 1690 342.5 1657 c 0,114,115
 389.022 1623.98 389.022 1623.98 438 1601 c 0,116,117
 481.975 1580.01 481.975 1580.01 619 1544.5 c 0,118,119
 667.085 1532.04 667.085 1532.04 700.019 1532.08 c 0,120,121
 760.914 1532.16 760.914 1532.16 770 1575 c 0,122,123
 774.3 1598.65 774.3 1598.65 774.32 1618.05 c 0,124,125
 774.385 1679.86 774.385 1679.86 731 1698.5 c 0,126,127
 703.091 1710.49 703.091 1710.49 679.502 1710.62 c 0,128,129
 662.09 1710.72 662.09 1710.72 647.03 1704.36 c 0,130,131
 635 1698 l 0,132,133
 635 1743 635 1743 670 1758.5 c 0,134,135
 704.999 1773.99 704.999 1773.99 713 1775 c 0,136,137
 760 1774.5 l 0,138,139
 802.004 1770.17 802.004 1770.17 824 1750.5 c 0,140,141
 857.006 1720.99 857.006 1720.99 872 1694 c 0,142,143
 896.002 1649 896.002 1649 913.5 1585 c 0,144,145
 930.999 1521 930.999 1521 973 1494 c 0,146,147
 1042 1450.01 1042 1450.01 1072 1440 c 0,148,149
 1102 1429.99 1102 1429.99 1177 1419 c 0,150,151
 1282.99 1403 1282.99 1403 1308 1317 c 0,152,153
 1313.32 1295.3 1313.32 1295.3 1313.3 1276.45 c 0,154,155
 1313.22 1206.7 1313.22 1206.7 1240 1176 c 0,156,157
 1260.26 1204.06 1260.26 1204.06 1260.48 1235.14 c 0,158,159
 1260.55 1243.95 1260.55 1243.95 1259 1253 c 0,160,161
 1252.76 1289.51 1252.76 1289.51 1206.87 1289.54 c 0,162,163
 1201.23 1289.55 1201.23 1289.55 1195 1289 c 0,164,165
 1174.85 1287.11 1174.85 1287.11 1174.92 1260.84 c 0,166,167
 1174.96 1245.39 1174.96 1245.39 1182 1221.5 c 0,168,169
 1201.02 1156.95 1201.02 1156.95 1214 1130 c 0,170,171
 1274.01 1003.97 1274.01 1003.97 1353 887 c 0,172,173
 1432 770.008 1432 770.008 1438 703 c 0,174,175
 1437.29 667.063 l 0,176,177
 1429.48 607.261 1429.48 607.261 1377 554 c 0,178,179
 1359 536 1359 536 1318.5 532.5 c 0,180,181
 1285.16 533.1 l 0,182,183
 1266.74 535.756 1266.74 535.756 1253 544 c 0,184,185
 1292 544 1292 544 1311.5 575 c 0,186,187
 1320.25 588.918 1320.25 588.918 1320.44 600.216 c 0,188,189
 1317.5 612.987 l 0,190,191
 1314.39 618.996 1314.39 618.996 1308 624 c 0,192,193
 1266 653 1266 653 1237.5 607.5 c 0,194,195
 1209 562 1209 562 1200 535 c 0,196,197
 1198.96 531.908 1198.96 531.908 1180 489.5 c 0,198,199
 1161.01 447.043 1161.01 447.043 1144.5 396.5 c 0,200,201
 1128 346 1128 346 1123.5 303.5 c 0,202,203
 1124.19 278.807 l 0,204,205
 1128.4 260.303 1128.4 260.303 1146 259 c 0,206,207
 1188 255 1188 255 1203 276 c 0,208,209
 1218.01 297.013 1218.01 297.013 1232 339 c 0,210,211
 1252.93 293.919 1252.93 293.919 1253.12 259.927 c 0,212,213
 1253.22 242.802 1253.22 242.802 1248.05 228.491 c 0,214,215
 1244.37 218.279 1244.37 218.279 1238 209.5 c 0,216,217
 1205 164 1205 164 1175 152 c 0,218,219
 1085 115.002 1085 115.002 1029.5 103.5 c 0,220,221
 974 91.9999 974 91.9999 930.5 75.5 c 0,222,223
 887 59 887 59 844.5 22.5 c 0,224,225
 801.998 -14.0021 801.998 -14.0021 740 -103 c 0,226,227
 619.211 -271.373 619.211 -271.373 522.285 -271.438 c 0,228,229
 513.29 -271.444 513.29 -271.444 504.5 -270 c 0,230,231
 401 -253 401 -253 365 -163 c 1,0,1
725 192 m 0,122,123
 749 216 749 216 794.5 272 c 0,124,125
 840 328 840 328 855 355 c 0,126,127
 879.999 397.998 879.999 397.998 888.5 438.5 c 0,128,129
 897 479 897 479 906 529 c 0,130,131
 922 613 922 613 979 629.5 c 0,132,133
 1000.57 635.743 1000.57 635.743 1016.41 635.759 c 0,134,135
 1042.44 635.784 1042.44 635.784 1053 619 c 0,136,137
 1002 619 1002 619 984 586 c 0,138,139
 966 553 966 553 977 538 c 0,140,141
 989.486 518.904 989.486 518.904 1004.74 518.755 c 0,142,143
 1015.01 518.656 1015.01 518.656 1026.55 527.159 c 0,144,145
 1044.5 540.4 1044.5 540.4 1065.5 574.5 c 0,146,147
 1120 663.009 1120 663.009 1126 744 c 0,148,149
 1130.99 817 1130.99 817 1094.5 950.5 c 0,150,151
 1066.07 1054.48 1066.07 1054.48 1021.56 1054.42 c 0,152,153
 1008.93 1054.4 1008.93 1054.4 995 1046 c 0,154,155
 975.667 1034 975.667 1034 975.667 1018 c 0,156,157
 975.667 1010 975.667 1010 980.5 1001 c 0,158,159
 995.002 973.998 995.002 973.998 1038 962 c 0,160,161
 954 929 954 929 929.5 1003.5 c 0,162,163
 904.996 1078.02 904.996 1078.02 894 1138 c 0,164,165
 876.999 1227 876.999 1227 805.5 1282.5 c 0,166,167
 734 1338 734 1338 651.5 1350 c 0,168,169
 605.665 1352.79 l 0,170,171
 548.883 1351.23 548.883 1351.23 498 1324 c 0,172,173
 427.002 1286.01 427.002 1286.01 412 1188 c 0,174,175
 405 1146 405 1146 419.5 1117.5 c 0,176,177
 434 1089 434 1089 470 1098 c 0,178,179
 485 1101.75 485 1101.75 485.375 1115.63 c 0,180,181
 484 1126 l 0,182,183
 477.997 1149.01 477.997 1149.01 454 1166 c 0,184,185
 479.875 1167.62 l 0,186,187
 516.252 1164.25 516.252 1164.25 538 1126 c 0,188,189
 546.998 1108 546.998 1108 553 1077.5 c 0,190,191
 553.751 1052.78 l 0,192,193
 551.262 1032.3 551.262 1032.3 539 1009 c 0,194,195
 458.999 855.998 458.999 855.998 437.5 671.5 c 0,196,197
 416 487 416 487 428 407 c 0,198,199
 445 284 445 284 488.5 279.5 c 0,200,201
 532 275 532 275 539 318 c 0,202,203
 538.454 335.091 l 0,204,205
 531.345 359 531.345 359 484 359 c 0,206,207
 490 374 490 374 509.5 376 c 0,208,209
 529 378 529 378 541 381 c 0,210,211
 567.678 382.442 l 0,212,213
 608.823 378.097 608.823 378.097 618.5 327 c 0,214,215
 630.999 261.003 630.999 261.003 643 220 c 0,216,217
 652 181 652 181 678 176.5 c 0,218,219
 697.181 176.647 l 0,220,221
 712.042 179.66 712.042 179.66 725 192 c 0,122,123
EndSplineSet
KernsSLIF: 90 -182 0 0 122 -143 0 0 97 -207 0 0 65 -150 0 0
EndChar
StartChar: E
Encoding: 69 69 53
Width: 1257
Flags: HMW
HStem: 47 32.5<30 142.5> 89 202.5<224.5 921.5> 729 161<354 767> 1357 203<404 858>
VStem: 117.5 176.5<365 1523>
Fore
702 114 m 1,0,1
 611.006 112.001 611.006 112.001 515.5 93.5 c 0,2,3
 420 75.0001 420 75.0001 339 36 c 0,4,5
 268 1.99995 268 1.99995 178.5 -13.5 c 0,6,7
 88.9995 -29 88.9995 -29 30 47 c 0,8,9
 -15 107 -15 107 15 159.5 c 0,10,11
 40.0002 203.25 40.0002 203.25 98.3333 203.597 c 0,12,13
 110 203.667 110 203.667 123 202 c 0,14,-1
 82.5 186.5 l 0,15,16
 64.901 179.851 64.901 179.851 64.7384 152.708 c 0,17,18
 64.6931 145.149 64.6931 145.149 66 136 c 0,19,20
 75 70 75 70 142.5 79.5 c 0,21,22
 210 88.9999 210 88.9999 225 162 c 0,23,24
 229.413 184.556 229.413 184.556 229.378 216.128 c 0,25,26
 229.341 248.943 229.341 248.943 224.5 291.5 c 0,27,28
 215.001 375 215.001 375 152 384 c 0,29,30
 129.001 387 129.001 387 117.5 365 c 0,31,32
 105.999 343 105.999 343 110 322 c 0,33,34
 117.001 279 117.001 279 152 244 c 0,35,36
 84.0005 262 84.0005 262 60 326 c 0,37,38
 14 446 14 446 47.5 574 c 0,39,40
 80.9999 702 80.9999 702 102 820 c 0,41,42
 121.001 932.001 121.001 932.001 124.5 984 c 0,43,44
 124.02 1053.51 l 0,45,46
 121.855 1094.37 121.855 1094.37 116 1150 c 0,47,48
 103.999 1246.01 103.999 1246.01 60.5 1348.5 c 0,49,50
 17 1450.99 17 1450.99 22 1545 c 0,51,52
 24 1585.01 24 1585.01 32 1606.5 c 0,53,54
 40 1627.99 40 1627.99 71 1653 c 0,55,56
 106.829 1682.31 106.829 1682.31 136.69 1682.29 c 0,57,58
 180.171 1682.25 180.171 1682.25 211 1620 c 0,59,60
 188.421 1640.26 188.421 1640.26 166.513 1640.58 c 0,61,62
 147.914 1637.21 l 0,63,64
 141.427 1634.75 141.427 1634.75 135 1630.5 c 0,65,66
 110.758 1614.45 110.758 1614.45 110.555 1588.31 c 0,67,68
 110.455 1575.46 110.455 1575.46 117 1558 c 0,69,70
 135.515 1508.3 135.515 1508.3 195 1508 c 0,71,72
 253.999 1509.01 253.999 1509.01 294 1523 c 0,73,74
 395.012 1556 395.012 1556 501.5 1639.5 c 0,75,76
 591.424 1710.01 591.424 1710.01 685.277 1710.28 c 0,77,78
 702.572 1710.33 702.572 1710.33 720 1708 c 0,79,80
 764 1702 764 1702 787.5 1661.5 c 0,81,82
 811 1621 811 1621 787 1582 c 0,83,84
 776.899 1645.98 776.899 1645.98 721.089 1646.53 c 0,85,86
 698.5 1644.5 l 0,87,88
 623.013 1631.18 623.013 1631.18 623 1584 c 0,89,90
 623 1526.01 623 1526.01 680.99 1525.71 c 0,91,92
 698 1525.62 698 1525.62 720 1530.5 c 0,93,94
 817.381 1552.08 817.381 1552.08 858 1560 c 0,95,96
 911.778 1569.96 911.778 1569.96 983.5 1580 c 0,97,98
 1036.93 1583.69 l 0,99,100
 1076.51 1583.35 1076.51 1583.35 1110 1573 c 0,101,102
 1244.01 1531 1244.01 1531 1255 1399 c 0,103,104
 1249 1432 1249 1432 1232 1452 c 0,105,106
 1215.02 1471.98 1215.02 1471.98 1200 1485 c 0,107,108
 1153.97 1523.47 1153.97 1523.47 1089.78 1523.48 c 0,109,110
 1060.52 1523.48 1060.52 1523.48 1027.5 1515.5 c 0,111,112
 921.99 1490 921.99 1490 863 1441 c 0,113,114
 833.001 1415.01 833.001 1415.01 827.5 1379 c 0,115,116
 828.033 1360.63 l 0,117,118
 833.454 1337.82 833.454 1337.82 864 1324 c 0,119,120
 869.974 1321.01 869.974 1321.01 888.5 1315.5 c 0,121,122
 900.641 1311.89 900.641 1311.89 918.181 1311.94 c 0,123,124
 927.351 1311.97 927.351 1311.97 938 1313 c 0,125,126
 875 1259 875 1259 740 1322 c 0,127,128
 605 1385 605 1385 514 1385 c 0,129,130
 441.992 1383.99 441.992 1383.99 404 1357 c 0,131,132
 378.16 1338.64 378.16 1338.64 378.214 1299.01 c 0,133,134
 378.239 1280.81 378.239 1280.81 384 1257 c 0,135,136
 393 1218 393 1218 423.5 1164 c 0,137,138
 454 1110 454 1110 434 1071 c 0,139,140
 409 1021.01 409 1021.01 358 1023 c 0,141,142
 408 1083 408 1083 370 1108.5 c 0,143,144
 353.553 1119.54 353.553 1119.54 338.791 1119.8 c 0,145,146
 322.286 1116.51 l 0,147,148
 312.191 1112.14 312.191 1112.14 303 1102 c 0,149,150
 273.134 1069.54 273.134 1069.54 273.197 1022.74 c 0,151,152
 273.231 997.463 273.231 997.463 282 968 c 0,153,154
 307 884 307 884 385 891 c 0,155,156
 455 897 455 897 507.5 911 c 0,157,158
 559.99 924.997 559.99 924.997 623 948 c 0,159,160
 702 976 702 976 804 940 c 0,161,162
 906 904 906 904 884 793 c 0,163,164
 876 837 876 837 846 869.5 c 0,165,166
 816 902 816 902 767 890 c 0,167,168
 726.999 879.999 726.999 879.999 705.5 844.5 c 0,169,170
 684 809 684 809 677 773 c 0,171,172
 658 674 658 674 626 610.5 c 0,173,174
 604.458 567.752 604.458 567.752 542.58 567.831 c 0,175,176
 512.542 567.869 512.542 567.869 473 578 c 0,177,178
 561 602 561 602 561 645 c 0,179,180
 561 720 561 720 485.5 729 c 0,181,182
 447.32 733.551 447.32 733.551 414.125 733.499 c 0,183,184
 381.68 733.449 381.68 733.449 354 729 c 0,185,186
 284 717 284 717 283 654 c 0,187,188
 280 600 280 600 315 596.5 c 0,189,190
 328.846 598.578 l 0,191,192
 344.765 606.4 344.765 606.4 344.877 641.401 c 0,193,194
 344.905 649.899 344.905 649.899 344 660 c 0,195,196
 392 607 392 607 391 573 c 0,197,198
 389.999 514.999 389.999 514.999 357.5 484.5 c 0,199,200
 325 454.001 325 454.001 325 410 c 0,201,202
 325 332 325 332 369 336.5 c 0,203,204
 413 341 413 341 471 370 c 0,205,206
 529.005 399.002 529.005 399.002 585.5 422.5 c 0,207,208
 606.644 431.295 606.644 431.295 623.377 431.196 c 0,209,210
 651.356 431.031 651.356 431.031 667 406 c 0,211,212
 677.588 389.235 677.588 389.235 677.666 368.967 c 0,213,214
 677.676 366.265 677.676 366.265 677.5 363.5 c 0,215,216
 676 340 676 340 652 333 c 0,217,218
 652.989 347.212 l 0,219,220
 650.646 358.106 650.646 358.106 635.616 358.287 c 0,221,222
 630.147 358.352 630.147 358.352 623 357 c 0,223,224
 563 343 563 343 603 291 c 0,225,226
 630 254 630 254 697.5 254 c 0,227,228
 765 254 765 254 800 275 c 0,229,230
 851 305 851 305 888 352 c 0,231,232
 925 399 925 399 976 426 c 0,233,234
 993.321 434.66 993.321 434.66 1010.43 434.679 c 0,235,236
 1046.68 434.717 1046.68 434.717 1082 396 c 0,237,238
 1134.01 339 1134.01 339 1076 291 c 0,239,240
 1101.99 369 1101.99 369 1025 361 c 0,241,242
 967.999 353.999 967.999 353.999 961.5 300.5 c 0,243,244
 960.341 260.536 l 0,245,246
 962.497 231.61 962.497 231.61 974 208 c 0,247,248
 998 157 998 157 1055 116.5 c 0,249,250
 1112 76 1112 76 1148 34 c 0,251,252
 1185 -7.99286 1185 -7.99286 1197 -81.5 c 0,253,254
 1199.64 -120.957 l 0,255,256
 1197.74 -168.802 1197.74 -168.802 1169 -204 c 0,257,258
 1173.43 -171.487 1173.43 -171.487 1173.38 -146.126 c 0,259,260
 1173.32 -120.019 1173.32 -120.019 1168.5 -101.5 c 0,261,262
 1159.01 -65.0068 1159.01 -65.0068 1111 -17 c 0,263,264
 1028.99 64.0016 1028.99 64.0016 921.5 89 c 0,265,266
 814.002 114 814.002 114 702 114 c 1,0,1
EndSplineSet
KernsSLIF: 83 -130 0 0 115 -130 0 0
EndChar
StartChar: F
Encoding: 70 70 8
Width: 1352
Flags: MW
HStem: 705 181<397 741> 1396 225<414 1092>
VStem: 110 217<38 1678>
Fore
642 839 m 1,0,1
 644 729 644 729 741 705 c 0,2,3
 769.434 702.509 l 0,4,5
 803.088 704.294 803.088 704.294 834.5 729 c 0,6,7
 879 763 l 0,8,9
 873 739 873 739 845.5 693 c 0,10,11
 818 647 818 647 773 627 c 0,12,13
 719 607 719 607 685.5 614.5 c 0,14,15
 652 622 652 622 613 634 c 0,16,17
 562 653 562 653 505.5 704 c 0,18,19
 466.31 739.375 466.31 739.375 424.956 739.628 c 0,20,21
 408.667 739.728 408.667 739.728 392.041 734.379 c 0,22,23
 390.023 733.73 390.023 733.73 388 733 c 0,24,25
 340 708 340 708 329.5 679.5 c 0,26,27
 319 651 319 651 312 621 c 0,28,29
 306 585 306 585 292 478 c 0,30,31
 278 371 278 371 370 376 c 0,32,33
 424 427 424 427 347 473 c 0,34,35
 419 467 419 467 446 407 c 0,36,37
 446 353 446 353 433.5 330 c 0,38,39
 420.995 306.989 420.995 306.989 401 265 c 0,40,41
 375.999 232 375.999 232 362 187.5 c 0,42,-1
 346 137 l 0,43,44
 324 87.0005 324 87.0005 327 38 c 0,45,46
 327 -20 327 -20 350.5 -86.5 c 0,47,48
 374.001 -153.001 374.001 -153.001 428 -195 c 0,49,50
 365.001 -195 365.001 -195 323.5 -122.5 c 0,51,52
 282.002 -50.0044 282.002 -50.0044 266 -3 c 0,53,54
 256 75 256 75 228.5 101.5 c 0,55,56
 201.001 128.001 201.001 128.001 170 137 c 0,57,58
 165.999 137 165.999 137 132.5 129.5 c 0,59,60
 99.0005 122 99.0005 122 101 62 c 0,61,-1
 115.5 33.5 l 0,62,63
 130.001 5 130.001 5 178 -5 c 0,64,65
 150.278 -14.0397 150.278 -14.0397 128.549 -13.9998 c 0,66,67
 114.222 -13.9735 114.222 -13.9735 102.5 -10 c 0,68,69
 72.9999 4.76837e-06 72.9999 4.76837e-06 61 3 c 0,70,71
 32 18 32 18 20 48.5 c 0,72,73
 8 78.9999 8 78.9999 8 97 c 0,74,75
 15.0001 179.999 15.0001 179.999 77 241 c 0,76,77
 93.9998 251.999 93.9998 251.999 105 282 c 0,78,79
 115.999 312 115.999 312 123 336 c 0,80,81
 128.001 354.007 128.001 354.007 140.5 444.5 c 0,82,83
 149 506.041 149 506.041 148.946 535.905 c 0,84,85
 148.92 549.96 148.92 549.96 147 557 c 0,86,87
 146.947 572.694 l 0,88,89
 142.652 589.782 142.652 589.782 119 603 c 0,90,91
 78.9999 606 78.9999 606 86.5 552.5 c 0,92,93
 93.9998 499.001 93.9998 499.001 108 486 c 0,94,95
 69 486 69 486 44 527 c 0,96,97
 20 554 20 554 23 583 c 0,98,99
 26 612 26 612 35 640 c 0,100,101
 53 689 53 689 86 731.5 c 0,102,103
 119 774 119 774 143 820 c 0,104,105
 145.997 843.974 145.997 843.974 152.5 889 c 0,106,107
 152.986 918.716 l 0,108,109
 149.654 945.423 149.654 945.423 132 967 c 0,110,111
 129 973 129 973 83 1040.5 c 0,112,113
 38 1106.99 38 1106.99 37 1108 c 0,114,115
 30.0021 1120 30.0021 1120 17 1176 c 0,116,117
 9.22428 1209.49 9.22428 1209.49 9.31933 1241.2 c 0,118,119
 9.38319 1262.5 9.38319 1262.5 13 1283 c 0,120,121
 13 1311.99 13 1311.99 42.5 1349 c 0,122,123
 70.2188 1383.77 70.2188 1383.77 104.576 1384.1 c 0,124,125
 106.774 1384.12 106.774 1384.12 109 1384 c 0,126,127
 82 1339 82 1339 95.5 1289.5 c 0,128,129
 109 1240 109 1240 161 1252 c 0,130,131
 176.009 1255 176.009 1255 193.5 1268 c 0,132,133
 211.001 1281.01 211.001 1281.01 227 1329 c 0,134,135
 236 1369.99 236 1369.99 233 1411.5 c 0,136,137
 230.001 1452.99 230.001 1452.99 224 1495 c 0,138,139
 215 1547.99 215 1547.99 149 1537 c 0,140,141
 113 1516.15 113 1516.15 113 1499 c 0,142,143
 114.998 1483 114.998 1483 130 1444 c 0,144,145
 68.9998 1495 68.9998 1495 66 1559 c 0,146,147
 66.2889 1594.43 l 0,148,149
 72.286 1642.5 72.286 1642.5 110 1678 c 0,150,151
 159.023 1705.71 159.023 1705.71 195.936 1705.91 c 0,152,153
 210.973 1705.99 210.973 1705.99 224 1701.5 c 0,154,155
 269 1686.01 269 1686.01 328 1658 c 0,156,-1
 414 1621 l 0,157,158
 452.534 1610.88 452.534 1610.88 492.001 1610.98 c 0,159,160
 534.461 1611.08 534.461 1611.08 578 1623 c 0,161,162
 662 1645.99 662 1645.99 743 1662 c 0,163,164
 815 1672.01 815 1672.01 877.5 1668 c 0,165,166
 940.046 1663.99 940.046 1663.99 1010 1652 c 0,167,168
 1102.99 1608.01 1102.99 1608.01 1115 1592.5 c 0,169,-1
 1148 1551 l 0,170,171
 1128.02 1558.99 1128.02 1558.99 1114 1568.5 c 0,172,173
 1099.99 1578.01 1099.99 1578.01 1070 1583 c 0,174,175
 991 1583 991 1583 986 1543.5 c 0,176,177
 981 1504 981 1504 972 1504 c 0,178,179
 987.996 1452.01 987.996 1452.01 1008 1434.5 c 0,180,181
 1027.99 1417 1027.99 1417 1092 1396 c 0,182,183
 1224 1402 1224 1402 1237.5 1459.5 c 0,184,185
 1251.02 1517.06 1251.02 1517.06 1288 1628 c 0,186,-1
 1272.5 1524 l 0,187,188
 1257.99 1426.99 1257.99 1426.99 1240 1409 c 0,189,190
 1215.99 1375.99 1215.99 1375.99 1174.5 1356 c 0,191,192
 1132.97 1335.99 1132.97 1335.99 1112 1334 c 0,193,194
 1075.74 1331.76 l 0,195,196
 1068.75 1331.8 1068.75 1331.8 1060.5 1332 c 0,197,198
 1017.99 1333.01 1017.99 1333.01 1006 1345 c 0,199,200
 979 1355.01 979 1355.01 957.5 1369 c 0,201,-1
 913 1398 l 0,202,203
 764 1482 764 1482 702.5 1477.5 c 0,204,205
 640.987 1473 640.987 1473 496 1409 c 0,206,207
 460 1383.99 460 1383.99 473.5 1352 c 0,208,209
 487.002 1320 487.002 1320 518 1320 c 0,210,211
 543.105 1321.01 543.105 1321.01 572.5 1325 c 0,212,213
 602.002 1329.01 602.002 1329.01 626 1383 c 0,214,215
 623 1369.01 623 1369.01 623.5 1336.5 c 0,216,217
 620.162 1310.39 l 0,218,219
 615.024 1291.76 615.024 1291.76 602 1274 c 0,220,221
 521.986 1225.99 521.986 1225.99 436.5 1203 c 0,222,223
 351.002 1180.01 351.002 1180.01 333 1058 c 0,224,225
 329.412 1045.28 329.412 1045.28 329.388 1030.91 c 0,226,227
 329.34 1001.22 329.34 1001.22 344.5 964.5 c 0,228,229
 367 910 367 910 397 886 c 0,230,231
 406.248 868.824 406.248 868.824 439.281 868.668 c 0,232,233
 456.251 868.588 456.251 868.588 479.5 873 c 0,234,235
 548 886 548 886 557 934 c 0,236,237
 560 994 560 994 526 1001.5 c 0,238,239
 492 1009 492 1009 457 991 c 0,240,241
 475.004 1027.01 475.004 1027.01 505 1044 c 0,242,243
 600 1080 600 1080 630 996 c 0,244,245
 635 961 635 961 637.5 918 c 0,246,-1
 642 839 l 1,0,1
EndSplineSet
KernsSLIF: 116 -286 0 0 84 -169 0 0 45 -208 0 0 46 -234 0 0 44 -273 0 0 65 -491 0 0 97 -470 0 0
EndChar
StartChar: G
Encoding: 71 71 12
Width: 1278
Flags: W
Fore
586 -123 m 0,0,1
 512 -115.001 512 -115.001 398.5 -55.5 c 0,2,3
 285.001 3.99925 285.001 3.99925 251 54 c 0,4,5
 140.158 218.532 140.158 218.532 139.923 377.813 c 0,6,7
 139.886 402.469 139.886 402.469 142.5 427 c 0,8,9
 162 610 162 610 93 791 c 0,10,11
 70.9999 847 70.9999 847 40 906.5 c 0,12,13
 8.99995 966 8.99995 966 12 1002 c 0,14,15
 17 1065 17 1065 57 1086 c 0,16,17
 97.0001 1107 97.0001 1107 130 1095 c 0,18,19
 112.083 1092.92 l 0,20,21
 89.0771 1084.96 89.0771 1084.96 75.5 1049 c 0,22,23
 70.7155 1036.33 70.7155 1036.33 70.5795 1026.33 c 0,24,25
 73.8997 1010.88 l 0,26,27
 81.7288 995.636 81.7288 995.636 108 991 c 0,28,29
 192 975 192 975 163.5 1093.5 c 0,30,31
 135.001 1212 135.001 1212 134 1245 c 0,32,33
 127.998 1329.02 127.998 1329.02 125 1379.5 c 0,34,35
 122 1430.01 122 1430.01 161 1516 c 0,36,37
 180.003 1560 180.003 1560 240 1560 c 0,38,39
 300.012 1560 300.012 1560 330 1547 c 0,40,41
 279 1544 279 1544 259.5 1515.5 c 0,42,43
 250.674 1502.6 250.674 1502.6 250.759 1491.65 c 0,44,45
 250.863 1478.4 250.863 1478.4 264 1468 c 0,46,47
 279.59 1455.3 279.59 1455.3 296.138 1455.14 c 0,48,49
 306.108 1455.04 306.108 1455.04 316.425 1459.5 c 0,50,51
 348.303 1473.27 348.303 1473.27 383.5 1530.5 c 0,52,53
 430.286 1606.57 430.286 1606.57 430.388 1650.76 c 0,54,55
 430.429 1668.43 430.429 1668.43 423 1681 c 0,56,57
 405 1709.99 405 1709.99 376 1709.5 c 0,58,59
 347.026 1709.01 347.026 1709.01 320 1698 c 0,60,61
 293.003 1686 293.003 1686 277.5 1657 c 0,62,63
 262 1628.01 262 1628.01 244 1600 c 0,64,65
 242.736 1626.39 l 0,66,67
 245.946 1664.86 245.946 1664.86 274.5 1724.5 c 0,68,69
 314 1807 314 1807 381 1810 c 0,70,71
 436.151 1813.01 436.151 1813.01 515.5 1820 c 0,72,73
 595.113 1827.01 595.113 1827.01 640 1833 c 0,74,75
 754 1848 754 1848 911 1809 c 0,76,77
 1067.95 1770.01 1067.95 1770.01 1167 1743 c 0,78,79
 1216.13 1728.55 1216.13 1728.55 1216.08 1665.83 c 0,80,81
 1216.07 1663.45 1216.07 1663.45 1216 1661 c 0,82,83
 1214.01 1594.01 1214.01 1594.01 1170 1566 c 0,84,85
 1173.89 1576.83 1173.89 1576.83 1173.84 1587.2 c 0,86,87
 1173.72 1614.17 1173.72 1614.17 1147 1638 c 0,88,89
 1131.29 1652.01 1131.29 1652.01 1115.75 1652.32 c 0,90,91
 1099.92 1649.06 l 0,92,93
 1086.9 1643.41 1086.9 1643.41 1074 1628 c 0,94,95
 1061.39 1613.19 1061.39 1613.19 1061.26 1591.32 c 0,96,97
 1061.16 1575.07 1061.16 1575.07 1067.94 1554.92 c 0,98,99
 1068.68 1552.73 1068.68 1552.73 1069.5 1550.5 c 0,100,-1
 1100 1467 l 0,101,102
 1130.03 1374.92 1130.03 1374.92 1152 1321 c 0,103,104
 1160.8 1299.4 1160.8 1299.4 1160.8 1271.08 c 0,105,106
 1160.8 1229.03 1160.8 1229.03 1141 1171 c 0,107,108
 1119 1108.01 1119 1108.01 1067.5 1054.5 c 0,109,110
 1016.01 1001 1016.01 1001 901 976 c 0,111,112
 945.016 1009.01 945.016 1009.01 1008.5 1039.5 c 0,113,114
 1068.86 1068.49 1068.86 1068.49 1069.13 1152.16 c 0,115,116
 1069.15 1156.51 1069.15 1156.51 1069 1161 c 0,117,118
 1066 1201 1066 1201 1016.5 1247.5 c 0,119,120
 967 1294 967 1294 918 1273 c 0,121,122
 867.288 1251.94 867.288 1251.94 866.93 1207.55 c 0,123,124
 867 1203.5 l 0,125,126
 868.999 1156 868.999 1156 887 1111 c 0,127,128
 830 1150 830 1150 838.5 1231 c 0,129,130
 847 1311.99 847 1311.99 876 1343 c 0,131,132
 889.997 1358 889.997 1358 904 1387 c 0,133,134
 914.347 1408.43 914.347 1408.43 914.315 1423.31 c 0,135,136
 914.304 1428.57 914.304 1428.57 913 1433 c 0,137,138
 901.003 1475.99 901.003 1475.99 839 1511.5 c 0,139,140
 809.887 1528.17 809.887 1528.17 782.758 1528.19 c 0,141,142
 752.113 1528.22 752.113 1528.22 724 1507 c 0,143,144
 697 1486 697 1486 708 1436.5 c 0,145,146
 718.999 1387 718.999 1387 720 1355 c 0,147,148
 721 1269.01 721 1269.01 625 1256 c 0,149,150
 604.735 1257.19 l 0,151,152
 590.855 1260.5 590.855 1260.5 576 1270.5 c 0,153,154
 549.997 1288.01 549.997 1288.01 542 1325 c 0,155,156
 563.197 1315.63 563.197 1315.63 580.749 1315.5 c 0,157,158
 593.765 1315.4 593.765 1315.4 604.776 1320.38 c 0,159,160
 609.038 1322.31 609.038 1322.31 613 1325 c 0,161,162
 641 1344.01 641 1344.01 623 1391 c 0,163,164
 614 1412 614 1412 563.5 1424 c 0,165,166
 540.067 1429.57 540.067 1429.57 521.906 1429.54 c 0,167,168
 500.936 1429.5 500.936 1429.5 487 1422 c 0,169,170
 421 1386 421 1386 401 1249 c 0,171,172
 394.695 1205.81 394.695 1205.81 394.751 1169.67 c 0,173,174
 394.872 1091.19 394.872 1091.19 425 1046 c 0,175,176
 484.994 954.01 484.994 954.01 527 883 c 0,177,178
 548.851 846.061 548.851 846.061 548.778 807.498 c 0,179,180
 548.71 771.939 548.71 771.939 530 735 c 0,181,182
 518 711 518 711 463 699 c 0,183,184
 408 687 408 687 387 707 c 0,185,186
 440 716 440 716 450 752 c 0,187,188
 465 819 465 819 386 842 c 0,189,190
 358.249 844.514 l 0,191,192
 341.329 844.06 341.329 844.06 319 840 c 0,193,194
 275 832 275 832 254 795 c 0,195,196
 241.999 773.999 241.999 773.999 241.5 703 c 0,197,198
 245.037 633.868 l 0,199,200
 249.259 594.007 249.259 594.007 258.5 551.5 c 0,201,202
 276 471 276 471 315 401 c 0,203,204
 354 331 354 331 422 313 c 0,205,206
 493 294 493 294 551.5 330 c 0,207,208
 610 366 610 366 663 385 c 0,209,210
 725.305 407.252 725.305 407.252 765.019 407.222 c 0,211,212
 796.695 407.198 796.695 407.198 814 393 c 0,213,214
 835.408 374.111 835.408 374.111 835.407 352.249 c 0,215,216
 835.407 339.389 835.407 339.389 828 325.5 c 0,217,218
 808 288 808 288 772 291 c 0,219,220
 791.412 305.236 791.412 305.236 791.564 318.842 c 0,221,222
 791.647 326.265 791.647 326.265 786 333.5 c 0,223,224
 772.461 350.846 772.461 350.846 760 351 c 0,225,226
 709 337 709 337 715.5 305.5 c 0,227,228
 722 274 722 274 746 262 c 0,229,230
 761.411 253.594 761.411 253.594 778.11 253.469 c 0,231,232
 791.358 253.369 791.358 253.369 805.415 258.481 c 0,233,234
 824.232 265.322 824.232 265.322 844.5 281.5 c 0,235,236
 899 325 899 325 918 361 c 0,237,238
 930 383 930 383 921 437 c 0,239,240
 912 491 912 491 885 502 c 0,241,242
 809.779 529.799 809.779 529.799 747.592 529.855 c 0,243,244
 733.722 529.868 733.722 529.868 720.5 528.5 c 0,245,246
 648 521 648 521 548 528 c 0,247,248
 409 537 409 537 353 577 c 0,249,250
 297 617 297 617 297 668 c 0,251,252
 297 691 297 691 315.5 722 c 0,253,254
 334 753 334 753 392 761 c 0,255,256
 341 742 341 742 334 692.5 c 0,257,258
 334.029 667.297 l 0,259,260
 339.17 637.192 339.17 637.192 371 622 c 0,261,262
 467 573 467 573 574 628 c 0,263,264
 681 683 681 683 717 734 c 0,265,266
 757 791 757 791 829 799.5 c 0,267,268
 880.389 802.174 l 0,269,270
 911.309 800.99 911.309 800.99 926 791 c 0,271,272
 944 778 944 778 955 748 c 0,273,274
 966 718 966 718 942 693 c 0,275,276
 943 744 943 744 896.5 738.5 c 0,277,278
 850 733 850 733 849 715 c 0,279,280
 846 677 846 677 881 642.5 c 0,281,282
 916 608 916 608 985 612 c 0,283,284
 1048 615 1048 615 1120 580 c 0,285,286
 1192 545 1192 545 1198 506 c 0,287,288
 1198.65 470.761 l 0,289,290
 1196.72 451.59 1196.72 451.59 1189.5 435 c 0,291,292
 1176 404.001 1176 404.001 1138 403 c 0,293,294
 1151.85 417.478 1151.85 417.478 1152.03 429.782 c 0,295,296
 1152.12 436.49 1152.12 436.49 1147.5 443.5 c 0,297,298
 1139.48 454.732 1139.48 454.732 1127.95 455.048 c 0,299,300
 1114 452 l 0,301,302
 1085.01 439 1085.01 439 1096 405.5 c 0,303,304
 1107.01 371.953 1107.01 371.953 1113 345 c 0,305,306
 1134 242.792 1134 242.792 1133.93 166.08 c 0,307,308
 1133.9 133.199 1133.9 133.199 1130 105 c 0,309,310
 1116.99 10.9955 1116.99 10.9955 1090 -10 c 0,311,312
 1051 -40.0026 1051 -40.0026 994.5 -57 c 0,313,314
 938 -73.9999 938 -73.9999 869 -34 c 0,315,316
 845.649 -21.9218 845.649 -21.9218 845.639 20.6278 c 0,317,318
 845.636 30.9221 845.636 30.9221 847 43 c 0,319,320
 852 15 852 15 888 9 c 0,321,322
 924 3 924 3 940 59 c 0,323,324
 949 90.9999 949 90.9999 903.5 101 c 0,325,326
 858 111.001 858 111.001 798.5 108.5 c 0,327,328
 739 105.999 739 105.999 685 95.5 c 0,329,330
 631 85 631 85 624 78 c 0,331,332
 597 47 597 47 595.5 32 c 0,333,334
 594 17 594 17 608 -31 c 0,335,336
 623 -82 623 -82 686 -82 c 0,337,338
 749 -82 749 -82 791 -47 c 0,339,340
 761 -124 761 -124 677.5 -123.5 c 0,341,342
 594 -123.001 594 -123.001 586 -123 c 0,0,1
EndSplineSet
EndChar
StartChar: H
Encoding: 72 72 10
Width: 1352
Flags: HMW
HStem: 699 320<465.5 883.5>
VStem: 115.5 242.5<36.5 1488> 928 212<-51 1523>
Fore
105.5 816.5 m 132,-1,0
 36 880 36 880 19 967 c 0,1,2
 14.9504 986.091 14.9504 986.091 15.0006 1004.26 c 0,3,4
 15.124 1048.91 15.124 1048.91 40 1088 c 0,5,6
 73.0086 1139.88 73.0086 1139.88 122.035 1140.15 c 0,7,8
 124.99 1140.17 124.99 1140.17 128 1140 c 0,9,10
 170 1137 170 1137 170 1095 c 0,11,12
 156.052 1106.77 156.052 1106.77 143.148 1106.76 c 0,13,14
 126.45 1106.74 126.45 1106.74 111.5 1087 c 0,15,16
 97.7055 1068.78 97.7055 1068.78 97.5949 1049.75 c 0,17,18
 97.496 1032.71 97.496 1032.71 109 1014 c 0,19,20
 115.998 1001 115.998 1001 160.5 996.5 c 0,21,22
 178.23 997.922 l 0,23,24
 206.536 1006.49 206.536 1006.49 212 1058 c 0,25,26
 222.998 1168.99 222.998 1168.99 239 1270.5 c 0,27,28
 244.978 1308.42 244.978 1308.42 244.954 1336.5 c 0,29,30
 244.913 1383.58 244.913 1383.58 228 1403 c 0,31,32
 220.944 1410.45 220.944 1410.45 209.816 1410.6 c 0,33,34
 189.949 1406.38 l 0,35,36
 178.932 1402.1 178.932 1402.1 165.5 1393.5 c 0,37,38
 142.118 1378.53 142.118 1378.53 141.789 1354.85 c 0,39,40
 145.468 1333.76 l 0,41,42
 149.976 1320.42 149.976 1320.42 160 1305 c 0,43,44
 110.509 1338.17 110.509 1338.17 110.36 1375.64 c 0,45,46
 110.26 1400.77 110.26 1400.77 132.369 1427.84 c 0,47,48
 139.897 1437.06 139.897 1437.06 150 1446.5 c 0,49,50
 233.996 1524.99 233.996 1524.99 267 1597 c 0,51,52
 299.996 1670 299.996 1670 353.5 1734.5 c 0,53,54
 407 1799 407 1799 500 1793 c 0,55,56
 537.011 1779.99 537.011 1779.99 559.5 1762 c 0,57,58
 582 1744 582 1744 597 1693 c 0,59,60
 593.998 1713.01 593.998 1713.01 517.5 1749.5 c 0,61,62
 500.595 1757.56 500.595 1757.56 484.643 1757.69 c 0,63,64
 472.549 1757.79 472.549 1757.79 461.003 1753.33 c 0,65,66
 418.855 1737.05 418.855 1737.05 384 1660 c 0,67,68
 356.523 1601.82 356.523 1601.82 356.476 1525.34 c 0,69,70
 356.465 1507.19 356.465 1507.19 358 1488 c 0,71,72
 364 1398 364 1398 429 1310.5 c 0,73,74
 477.324 1245.45 477.324 1245.45 477.562 1182.33 c 0,75,76
 477.644 1160.55 477.644 1160.55 472 1139 c 0,77,78
 464.998 1111.99 464.998 1111.99 417.5 1102.5 c 0,79,80
 377.156 1097.63 l 0,81,82
 363.646 1097.77 363.646 1097.77 358 1102 c 0,83,84
 394 1106.99 394 1106.99 407 1129 c 0,85,86
 420 1151 420 1151 420 1152 c 0,87,88
 416.971 1176.71 l 0,89,90
 409.979 1201.86 409.979 1201.86 387 1224.5 c 0,91,92
 371.888 1239.39 371.888 1239.39 359.543 1239.36 c 0,93,94
 344.11 1239.33 344.11 1239.33 333 1216 c 0,95,96
 320 1189 320 1189 317 1122 c 0,97,98
 314 1056 314 1056 314 1055 c 0,99,100
 322.999 994.003 322.999 994.003 347.5 955.5 c 0,101,102
 371.999 917.001 371.999 917.001 375 916 c 0,103,104
 399 895 399 895 428 897.5 c 0,105,106
 457 900 457 900 472 906 c 0,107,108
 580 955.999 580 955.999 618 1003 c 0,109,110
 649.772 1042.29 649.772 1042.29 713.695 1042.45 c 0,111,112
 726.23 1042.48 726.23 1042.48 740 1041 c 0,113,114
 769.004 1029 769.004 1029 783.5 1008.5 c 0,115,116
 798 988 798 988 786 934 c 0,117,118
 772 898 772 898 735 893 c 0,119,120
 753 911 753 911 744.5 933.5 c 0,121,122
 736 956 736 956 712 938 c 0,123,124
 682.31 915.493 682.31 915.493 681.858 898.26 c 0,125,126
 685.012 887.021 l 0,127,128
 692.164 875.551 692.164 875.551 715.5 867 c 0,129,130
 781 843 781 843 823 846 c 0,131,132
 838 846 838 846 893 863 c 0,133,134
 948 880 948 880 923 962 c 0,135,136
 912.999 995.001 912.999 995.001 883.5 1019 c 0,137,138
 854 1043 854 1043 851 1083 c 0,139,140
 851.18 1119.3 l 0,141,142
 855.8 1158.5 855.8 1158.5 881 1183 c 0,143,144
 899.015 1200.01 899.015 1200.01 940.5 1211 c 0,145,146
 964.418 1213.55 l 0,147,148
 991.024 1211.78 991.024 1211.78 1012 1188 c 0,149,150
 982.048 1185.47 l 0,151,152
 938.654 1175.69 938.654 1175.69 931 1129 c 0,153,154
 921 1067.99 921 1067.99 999 1051 c 0,155,156
 1015.67 1050.34 l 0,157,158
 1049.51 1057.23 1049.51 1057.23 1060.5 1137 c 0,159,160
 1071.56 1217.31 1071.56 1217.31 1071.55 1255.32 c 0,161,162
 1071.54 1263.69 1071.54 1263.69 1071 1270 c 0,163,164
 1065 1317.02 1065 1317.02 1002.5 1406 c 0,165,166
 940 1494.99 940 1494.99 928 1523 c 0,167,168
 913.999 1551.01 913.999 1551.01 901.5 1616 c 0,169,170
 899.156 1647.62 l 0,171,172
 901.5 1693.75 901.5 1693.75 939 1732 c 0,173,174
 965.005 1758 965.005 1758 1000.5 1759.5 c 0,175,176
 1054.31 1757.68 l 0,177,178
 1064.53 1756.61 1064.53 1756.61 1075 1755 c 0,179,180
 1138 1744.99 1138 1744.99 1193 1697 c 0,181,182
 1183.01 1697 1183.01 1697 1154 1711 c 0,183,184
 1124.99 1725 1124.99 1725 1102 1725 c 0,185,186
 1042.01 1725 1042.01 1725 1002 1697.5 c 0,187,188
 972.596 1677.29 972.596 1677.29 972.372 1645.99 c 0,189,190
 972.292 1634.72 972.292 1634.72 976 1622 c 0,191,192
 1011 1494.87 1011 1494.87 1077.42 1494.19 c 0,193,194
 1083.09 1494.13 1083.09 1494.13 1089 1495 c 0,195,196
 1164 1505.99 1164 1505.99 1170 1527 c 0,197,198
 1175.83 1549.08 1175.83 1549.08 1175.85 1567.34 c 0,199,200
 1175.87 1592.92 1175.87 1592.92 1164.5 1611 c 0,201,202
 1145.03 1641.96 1145.03 1641.96 1119 1672 c 0,203,204
 1155 1672 1155 1672 1198.5 1617.5 c 0,205,206
 1242 1563.01 1242 1563.01 1242 1530 c 0,207,208
 1242 1458.02 1242 1458.02 1226.5 1372 c 0,209,210
 1221.92 1346.59 1221.92 1346.59 1222.01 1316.99 c 0,211,212
 1222.23 1246.41 1222.23 1246.41 1249 1152 c 0,213,214
 1263.99 1099.03 1263.99 1099.03 1276 1049.5 c 0,215,216
 1288 1000 1288 1000 1288 951 c 0,217,218
 1288 925.992 1288 925.992 1263 891 c 0,219,220
 1237.99 856 1237.99 856 1181 853 c 0,221,222
 1181 854 1181 854 1215.5 880.5 c 0,223,224
 1250 907 1250 907 1235 955 c 0,225,226
 1223 970 1223 970 1200.5 959.5 c 0,227,228
 1178.01 949.003 1178.01 949.003 1165 925 c 0,229,230
 1153 903 1153 903 1142.5 844.5 c 0,231,232
 1134.87 801.972 1134.87 801.972 1134.9 772.936 c 0,233,234
 1134.91 762.016 1134.91 762.016 1136 753 c 0,235,236
 1142 687.014 1142 687.014 1166.5 635 c 0,237,238
 1191 582.981 1191 582.981 1200 539 c 0,239,240
 1216.99 446 1216.99 446 1204.5 409 c 0,241,242
 1192.01 372.012 1192.01 372.012 1177 353 c 0,243,244
 1165 346.001 1165 346.001 1137.5 341 c 0,245,246
 1115.12 340.89 l 0,247,248
 1098.65 343.703 1098.65 343.703 1082 355 c 0,249,250
 1129 359.001 1129 359.001 1142 378 c 0,251,-1
 1149.5 410.5 l 0,252,253
 1149.4 425.528 l 0,254,255
 1143.56 444.551 1143.56 444.551 1105 449 c 0,256,257
 1090.45 446.644 l 0,258,259
 1076.15 440.772 1076.15 440.772 1061 421 c 0,260,261
 1042.72 397.15 1042.72 397.15 1042.76 337.294 c 0,262,263
 1042.77 321.845 1042.77 321.845 1044 304 c 0,264,265
 1051.99 195 1051.99 195 1084.5 123 c 0,266,267
 1117.01 51 1117.01 51 1140 -51 c 0,268,269
 1152.45 -109.993 1152.45 -109.993 1152.38 -156.242 c 0,270,271
 1152.21 -266.008 1152.21 -266.008 1081.5 -304 c 0,272,273
 982.005 -358 982.005 -358 981 -358 c 0,274,275
 948 -362 948 -362 901.5 -360.5 c 0,276,277
 855 -359 855 -359 819 -330 c 0,278,279
 852 -343 852 -343 896.5 -345 c 0,280,281
 935.359 -343.042 l 0,282,283
 957.07 -339.654 957.07 -339.654 976 -331 c 0,284,285
 1035 -300.996 1035 -300.996 1071 -255.5 c 0,286,287
 1086.62 -235.762 1086.62 -235.762 1086.8 -212.544 c 0,288,289
 1086.9 -200.455 1086.9 -200.455 1082.82 -187.422 c 0,290,291
 1076.66 -167.782 1076.66 -167.782 1061 -146 c 0,292,293
 992 -51.0001 992 -51.0001 903 -31 c 0,294,295
 814 -11 814 -11 793 6 c 0,296,297
 732.585 56.9527 732.585 56.9527 732.57 111.614 c 0,298,299
 732.564 132.048 732.564 132.048 741 153 c 0,300,301
 770.744 226.878 770.744 226.878 814 227 c 0,302,303
 846 224 846 224 876 185 c 0,304,305
 857.344 193.955 857.344 193.955 843.281 194.139 c 0,306,307
 828.019 191.183 l 0,308,309
 815.839 185.689 815.839 185.689 809 170 c 0,310,311
 785 113 785 113 838 98.5 c 0,312,313
 891 83.9999 891 83.9999 891 106 c 0,314,315
 903.199 124.977 903.199 124.977 903.227 166.688 c 0,316,317
 903.239 186.524 903.239 186.524 900.5 211.5 c 0,318,319
 891.999 289.006 891.999 289.006 886 323 c 0,320,321
 831 412 831 412 787.5 416.5 c 0,322,323
 744 421 744 421 716 452 c 0,324,325
 672 498.001 672 498.001 669 527.5 c 0,326,327
 666 557 666 557 678 593 c 0,328,329
 700 659 700 659 766 632 c 0,330,331
 746 620 746 620 739 595.5 c 0,332,333
 732 571 732 571 765 574 c 0,334,335
 798 577 798 577 825 590.5 c 0,336,337
 852 604 852 604 844 646 c 0,338,339
 825 745 825 745 684 751.5 c 0,340,341
 543 758 543 758 498 734 c 0,342,343
 481.002 713.002 481.002 713.002 465.5 699 c 0,344,345
 459.145 693.26 459.145 693.26 459.094 675.417 c 0,346,347
 459.02 649.739 459.02 649.739 472 599 c 0,348,349
 478 574 478 574 486.5 528.5 c 0,350,351
 487.651 503.031 l 0,352,353
 484.37 476.319 484.37 476.319 460 461 c 0,354,355
 434.294 445.021 434.294 445.021 398.454 444.97 c 0,356,357
 382.705 444.947 382.705 444.947 365 448 c 0,358,359
 401 454 401 454 423 491 c 0,360,361
 445 528 445 528 391 537 c 0,362,363
 375.319 535.564 l 0,364,365
 361.023 530.93 361.023 530.93 348 514 c 0,366,367
 328 488 328 488 328 458 c 0,368,369
 330.048 395.957 l 0,370,371
 337.072 324.887 337.072 324.887 366 269.5 c 0,372,373
 407 191.001 407 191.001 398 127 c 0,374,375
 391 82 391 82 375.5 71 c 0,376,377
 360.001 60.0004 360.001 60.0004 328 53 c 0,378,379
 336 77 336 77 343.5 92.5 c 0,380,381
 351 107.999 351 107.999 330 127 c 0,382,383
 321.857 133.786 321.857 133.786 311.873 133.895 c 0,384,385
 307.143 133.946 307.143 133.946 302 132.5 c 0,386,387
 286 128 286 128 277 125 c 0,388,389
 231.23 107.948 231.23 107.948 230.966 58.6818 c 0,390,391
 230.936 53.0513 230.936 53.0513 231.5 47 c 0,392,393
 236.927 -11.2137 236.927 -11.2137 258 -28 c 0,394,395
 281 -45 281 -45 318.5 -59.5 c 0,396,397
 356 -74.0001 356 -74.0001 443 -45 c 0,398,-1
 492.5 -13.5 l 0,399,400
 542 18 542 18 587 123 c 0,401,402
 552.999 9.99854 552.999 9.99854 486 -60 c 0,403,404
 463 -82.9999 463 -82.9999 363 -111.5 c 0,405,406
 333.213 -119.989 333.213 -119.989 304.491 -119.916 c 0,407,408
 236.788 -119.745 236.788 -119.745 175 -72 c 0,409,410
 117 -27.0004 117 -27.0004 115.5 36.5 c 0,411,412
 114 99.9999 114 99.9999 117 118 c 0,413,414
 121.001 160.001 121.001 160.001 167.5 263 c 0,415,416
 214 366.001 214 366.001 214 376 c 0,417,418
 214 397.991 214 397.991 220.5 508.5 c 0,419,420
 221.507 585.118 l 0,421,422
 219.117 635.948 219.117 635.948 207 662 c 0,423,424
 175.001 752.999 175.001 752.999 105.5 816.5 c 132,-1,0
EndSplineSet
KernsSLIF: 65 -91 0 0
EndChar
StartChar: I
Encoding: 73 73 51
Width: 582
Flags: HMW
VStem: 256 244.5<240.5 1423>
Fore
232 519 m 0,0,1
 224.001 624.998 224.001 624.998 126 719 c 0,2,3
 45.602 796.117 45.602 796.117 45.2953 885.347 c 0,4,5
 45.2282 904.883 45.2282 904.883 49 925 c 0,6,7
 63.999 1002.99 63.999 1002.99 117.5 1022 c 0,8,9
 128.072 1025.76 128.072 1025.76 137.726 1025.68 c 0,10,11
 176.928 1025.39 176.928 1025.39 201 962 c 0,12,-1
 190 978 l 0,13,14
 171.382 993.709 171.382 993.709 155.81 994.016 c 0,15,16
 141.649 990.804 l 0,17,18
 138.235 989.102 138.235 989.102 135 986.5 c 0,19,20
 112.001 968 112.001 968 108 936.5 c 0,21,22
 108.64 911.78 l 0,23,24
 112 893.601 112 893.601 124 876.5 c 0,25,26
 143.999 848 143.999 848 199 857 c 0,27,28
 226 861 226 861 232 911 c 0,29,30
 235.1 972.442 l 0,31,32
 234.847 996.834 234.847 996.834 232.5 1023.5 c 0,33,34
 227 1086 227 1086 213.5 1143 c 0,35,36
 200 1200 200 1200 189 1218 c 0,37,38
 124.986 1314.02 124.986 1314.02 83.5 1358 c 0,39,40
 49.5783 1393.96 49.5783 1393.96 49.397 1447.97 c 0,41,42
 49.3565 1460.04 49.3565 1460.04 51 1473 c 0,43,44
 69.0007 1610 69.0007 1610 219 1646 c 0,45,46
 145.001 1608.01 145.001 1608.01 126 1542.5 c 0,47,48
 114.33 1502.27 114.33 1502.27 114.355 1474.3 c 0,49,50
 114.371 1456.73 114.371 1456.73 119 1444 c 0,51,52
 138.175 1413.96 138.175 1413.96 172.467 1413.74 c 0,53,54
 187.822 1413.65 187.822 1413.65 206.21 1419.53 c 0,55,56
 211.002 1421.06 211.002 1421.06 216 1423 c 0,57,58
 282.992 1448.99 282.992 1448.99 296 1464 c 0,59,60
 403 1587 403 1587 365 1725 c 0,61,62
 327 1863 327 1863 152 1908 c 0,63,64
 259 1908 259 1908 351 1815 c 0,65,66
 443.001 1722 443.001 1722 455 1619 c 0,67,68
 461 1534.99 461 1534.99 483.5 1458 c 0,69,70
 505.993 1381.03 505.993 1381.03 524 1292 c 0,71,72
 532 1247 532 1247 544 1211 c 0,73,74
 554.285 1180.14 554.285 1180.14 554.286 1161.04 c 0,75,76
 554.286 1157.86 554.286 1157.86 554 1155 c 0,77,78
 546.001 1064 546.001 1064 450 1064 c 0,79,80
 492.002 1097 492.002 1097 501.5 1152 c 0,81,82
 501.656 1171.25 l 0,83,84
 495.027 1204.71 495.027 1204.71 434.075 1205.07 c 0,85,86
 430.622 1205.09 430.622 1205.09 427 1205 c 0,87,88
 392 1206.99 392 1206.99 380.5 1160 c 0,89,90
 369 1113.01 369 1113.01 369 1052.5 c 0,91,92
 369 992.005 369 992.005 375.5 935.5 c 0,93,94
 381.993 879.057 381.993 879.057 384 864 c 0,95,96
 390 795 390 795 443 801 c 0,97,98
 478.903 805.065 478.903 805.065 479.013 846.3 c 0,99,100
 479.065 865.936 479.065 865.936 471 894 c 0,101,102
 463 918 463 918 426 958 c 0,103,104
 441 949 441 949 456 938.5 c 0,105,106
 471 928 471 928 496 897 c 0,107,108
 528.83 854.008 528.83 854.008 528.971 808.268 c 0,109,110
 529.011 795.491 529.011 795.491 526.5 782.5 c 0,111,112
 515 723 515 723 485 660 c 0,113,-1
 425 532.5 l 0,114,115
 395 468 395 468 400 404 c 0,116,117
 407.001 308.999 407.001 308.999 460.5 240.5 c 0,118,119
 514 172 514 172 517 82 c 0,120,121
 519 10 519 10 455.5 -13 c 0,122,123
 392 -36 392 -36 331 -34 c 0,124,125
 409 -20 409 -20 407 52.5 c 0,126,127
 405 124.999 405 124.999 321 131 c 0,128,129
 291.816 129.369 l 0,130,131
 231.611 117.594 231.611 117.594 231.312 32.2265 c 0,132,133
 231.26 17.4636 231.26 17.4636 233 0.5 c 0,134,135
 246.999 -135.998 246.999 -135.998 280 -188 c 0,136,137
 328 -263 328 -263 391 -299.5 c 0,138,139
 454 -336 454 -336 487 -366 c 0,140,141
 427.995 -346.998 427.995 -346.998 394 -329.5 c 0,142,143
 360.005 -312.002 360.005 -312.002 314 -283 c 0,144,145
 314 -282 314 -282 276.5 -245 c 0,146,147
 238.998 -207.997 238.998 -207.997 219 -168 c 0,148,149
 174.999 -79.9963 174.999 -79.9963 161 11 c 0,150,151
 157.704 57.9995 l 0,152,153
 158.567 121.5 158.567 121.5 188.158 185 c 0,154,155
 190.022 189 190.022 189 192 193 c 0,156,157
 228 266.001 228 266.001 232.5 352.5 c 0,158,159
 234.331 462.476 l 0,160,161
 233.742 491.132 233.742 491.132 232 519 c 0,0,1
EndSplineSet
EndChar
StartChar: J
Encoding: 74 74 63
Width: 1235
Flags: MW
HStem: -181.5 278.5<390.5 1080> 1374 216<210.5 730>
VStem: 262 128.5<-181.5 574> 753 279.5<121 1629>
Fore
266 -186 m 0,0,1
 224.001 -180 224.001 -180 177.5 -136 c 0,2,3
 131 -92.0005 131 -92.0005 119 -17 c 0,4,5
 153.477 -76.1043 153.477 -76.1043 181 -84 c 0,6,7
 209.646 -85.7528 l 0,8,9
 237.766 -83.402 237.766 -83.402 252.5 -62.5 c 0,10,11
 274 -32 274 -32 274 11 c 0,12,13
 274 74.0005 274 74.0005 219 127 c 0,14,15
 194.8 150.32 194.8 150.32 182.216 150.408 c 0,16,17
 168.769 150.502 168.769 150.502 168.586 124.068 c 0,18,19
 168.551 119.018 168.551 119.018 169 113 c 0,20,21
 171.948 59.931 171.948 59.931 224 55 c 0,22,23
 206.644 34.5454 206.644 34.5454 187.56 34.4533 c 0,24,25
 176.342 34.3991 176.342 34.3991 163.5 42 c 0,26,27
 131.001 61.999 131.001 61.999 121 82 c 0,28,29
 86.9999 146.001 86.9999 146.001 115 239 c 0,30,31
 140.998 329.994 140.998 329.994 180.5 414 c 0,32,33
 219.995 497.991 219.995 497.991 262 574 c 0,34,35
 319 680 319 680 419 771.5 c 0,36,37
 519 863 519 863 639 891 c 0,38,39
 497 834 497 834 403.5 649 c 0,40,41
 310 464 310 464 340 317 c 0,42,43
 350 268 350 268 386.5 238 c 0,44,45
 402.291 225.021 402.291 225.021 417.613 224.77 c 0,46,47
 434.195 228.284 l 0,48,49
 445.735 233.41 445.735 233.41 457 246 c 0,50,51
 481 273 481 273 479.5 310.5 c 0,52,53
 478 348 478 348 469 369 c 0,54,55
 455 396 455 396 417 413 c 0,56,57
 468 425 468 425 503.5 388.5 c 0,58,59
 538.999 352.002 538.999 352.002 546 319 c 0,60,61
 550 297 550 297 546 262 c 0,62,63
 542 227.005 542 227.005 542 215 c 0,64,65
 541.282 157.714 l 0,66,67
 543.818 120.228 543.818 120.228 556 105 c 0,68,69
 576 79.9999 576 79.9999 613 70 c 0,70,71
 646 60 646 60 689 75.5 c 0,72,73
 732 90.9999 732 90.9999 753 121 c 0,74,75
 789 170.999 789 170.999 805.5 237.5 c 0,76,77
 822 304 822 304 831 368 c 0,78,79
 833.059 429.818 l 0,80,81
 833.031 430.907 833.031 430.907 833 432 c 0,82,83
 832 467 832 467 796 467 c 0,84,85
 762 467 762 467 761 439.5 c 0,86,87
 760 412 760 412 769 394 c 0,88,89
 748 394 748 394 725.5 408.5 c 0,90,91
 703 423 703 423 702 480 c 0,92,93
 701 516 701 516 723.5 545 c 0,94,95
 746 574 746 574 761 607 c 0,96,97
 801 694 801 694 807.5 724 c 0,98,99
 811.571 742.789 811.571 742.789 811.523 776.872 c 0,100,101
 811.495 797.214 811.495 797.214 810 823 c 0,102,103
 804 898 804 898 711 1003 c 0,104,105
 664.04 1056.02 664.04 1056.02 663.74 1107 c 0,106,107
 663.641 1123.83 663.641 1123.83 668.627 1140.44 c 0,108,109
 678.449 1173.15 678.449 1173.15 708 1205 c 0,110,111
 723 1221.99 723 1221.99 764.5 1218.5 c 0,112,113
 806 1215.01 806 1215.01 815 1166 c 0,114,115
 800.85 1174.76 800.85 1174.76 784.879 1174.89 c 0,116,117
 777.153 1174.96 777.153 1174.96 769 1173 c 0,118,119
 744 1167 744 1167 744 1149 c 0,120,121
 744 1087.99 744 1087.99 782.5 1101 c 0,122,123
 821.009 1114.01 821.009 1114.01 844 1135 c 0,124,125
 871 1160.99 871 1160.99 876 1273 c 0,126,127
 875.964 1349.1 l 0,128,129
 872.849 1400.52 872.849 1400.52 860 1425 c 0,130,131
 849.326 1445.59 849.326 1445.59 825.576 1445.54 c 0,132,133
 818.173 1445.52 818.173 1445.52 809.5 1443.5 c 0,134,135
 773 1434.99 773 1434.99 772 1417 c 0,136,137
 768 1373.01 768 1373.01 798 1373.5 c 0,138,139
 828 1373.99 828 1373.99 840 1384 c 0,140,141
 838.397 1364.37 l 0,142,143
 833.435 1347.78 833.435 1347.78 815.5 1338 c 0,144,145
 793.685 1326.1 793.685 1326.1 779.113 1326.16 c 0,146,147
 775.31 1326.17 775.31 1326.17 772 1327 c 0,148,149
 715 1339 715 1339 678.5 1375 c 0,150,151
 642.016 1410.98 642.016 1410.98 603 1436 c 0,152,153
 556.039 1464.7 556.039 1464.7 506.748 1464.68 c 0,154,155
 480.455 1464.68 480.455 1464.68 453.5 1456.5 c 0,156,157
 375.96 1432.98 375.96 1432.98 334 1415 c 0,158,159
 280.973 1391.99 280.973 1391.99 210.5 1374 c 0,160,161
 146.8 1357.74 146.8 1357.74 121.868 1357.8 c 0,162,163
 119.215 1357.81 119.215 1357.81 117 1358 c 0,164,165
 18.9988 1365.01 18.9988 1365.01 8 1466.5 c 0,166,167
 -3 1568.01 -3 1568.01 89 1594 c 0,168,169
 66.0001 1576 66.0001 1576 44 1532.5 c 0,170,171
 22 1489 22 1489 63 1447 c 0,172,173
 85.4007 1423 85.4007 1423 118.04 1422.75 c 0,174,175
 147.044 1426.67 l 0,176,177
 163.949 1431.1 163.949 1431.1 183 1440.5 c 0,178,179
 261 1479.01 261 1479.01 285 1517 c 0,180,181
 327.531 1585.52 327.531 1585.52 327.879 1616.21 c 0,182,183
 327.973 1624.48 327.973 1624.48 325 1630 c 0,184,185
 311 1655.99 311 1655.99 281 1648 c 0,186,187
 273.001 1646.01 273.001 1646.01 270 1629.5 c 0,188,189
 270.92 1617.45 l 0,190,191
 274.131 1609.04 274.131 1609.04 285 1603 c 0,192,193
 268.51 1595.15 268.51 1595.15 254.565 1595 c 0,194,195
 245.213 1594.91 245.213 1594.91 237.005 1598.27 c 0,196,197
 226.275 1602.68 226.275 1602.68 217.5 1613 c 0,198,199
 199.327 1634.38 199.327 1634.38 199.184 1669.47 c 0,200,201
 199.126 1683.62 199.126 1683.62 202 1700 c 0,202,203
 208 1739 208 1739 249.5 1751 c 0,204,205
 291 1763 291 1763 311 1757 c 0,206,207
 421.988 1725.01 421.988 1725.01 511.5 1660.5 c 0,208,209
 601 1596 601 1596 730 1590 c 0,210,211
 805.281 1589.97 l 0,212,213
 827.921 1590.97 827.921 1590.97 854 1593 c 0,214,215
 931 1599 931 1599 931 1659 c 0,216,217
 931 1679.99 931 1679.99 896.5 1697.5 c 0,218,219
 870.907 1710.49 870.907 1710.49 857.692 1710.53 c 0,220,221
 853.097 1710.55 853.097 1710.55 850 1709 c 0,222,223
 822.999 1692.99 822.999 1692.99 822.5 1675.5 c 0,224,225
 822 1657.99 822 1657.99 824 1632 c 0,226,227
 797.428 1640.59 797.428 1640.59 797.12 1672.1 c 0,228,229
 797.034 1680.9 797.034 1680.9 799 1691.5 c 0,230,231
 808.001 1740 808.001 1740 838 1755 c 0,232,233
 861.517 1766.1 861.517 1766.1 891.215 1766.11 c 0,234,235
 906.986 1766.12 906.986 1766.12 924.5 1763 c 0,236,237
 974.999 1754 974.999 1754 991 1730 c 0,238,239
 1028 1673.01 1028 1673.01 1032.5 1629 c 0,240,241
 1036.27 1592.18 1036.27 1592.18 1036.18 1540.01 c 0,242,243
 1036 1519 l 0,244,-1
 1022.5 1335.5 l 0,245,246
 1020.56 1260.23 l 0,247,248
 1022.51 1199.19 1022.51 1199.19 1038 1165 c 0,249,250
 1058 1119.98 1058 1119.98 1081.5 1083.5 c 0,251,-1
 1125 1013 l 0,252,253
 1149.01 966.986 1149.01 966.986 1163 858 c 0,254,255
 1166.9 800.919 l 0,256,257
 1166.23 743.613 1166.23 743.613 1141 731 c 0,258,259
 1139.08 769.983 l 0,260,261
 1132.48 813.66 1132.48 813.66 1105.5 848 c 0,262,263
 1086.38 872.329 1086.38 872.329 1068.62 872.499 c 0,264,265
 1058.42 872.597 1058.42 872.597 1048.66 864.714 c 0,266,267
 1041.2 858.688 1041.2 858.688 1034 848 c 0,268,269
 1013.01 817.011 1013.01 817.011 994 741 c 0,270,271
 988.449 718.797 988.449 718.797 988.361 701.972 c 0,272,273
 988.262 683.23 988.262 683.23 994.94 671.159 c 0,274,275
 1002.79 656.972 1002.79 656.972 1020 652 c 0,276,277
 1041.52 648.472 l 0,278,279
 1063.24 649.314 1063.24 649.314 1068.5 673.5 c 0,280,281
 1076 708 1076 708 1052 744 c 0,282,283
 1084 744 1084 744 1102 704 c 0,284,285
 1115.59 674.668 1115.59 674.668 1115.69 641.818 c 0,286,287
 1115.78 607.006 1115.78 607.006 1100.73 568.244 c 0,288,289
 1090.27 541.324 1090.27 541.324 1072.5 512.5 c 0,290,291
 1005 403 1005 403 975 328 c 0,292,293
 957 285 957 285 952 227.5 c 0,294,295
 947 169.995 947 169.995 947 128 c 0,296,297
 947 113 947 113 956.5 94 c 0,298,299
 966 74.9999 966 74.9999 988 84 c 0,300,301
 1020.91 98.9589 1020.91 98.9589 1020.81 124.823 c 0,302,303
 1020.78 133.542 1020.78 133.542 1017 143.5 c 0,304,305
 1002 183 1002 183 981 201 c 0,306,307
 993.355 202.547 l 0,308,309
 1012.86 199.6 1012.86 199.6 1041.5 166.5 c 0,310,311
 1080 122.005 1080 122.005 1080 97 c 0,312,313
 1080 56.9999 1080 56.9999 1066.5 -3 c 0,314,315
 1053 -63 1053 -63 1008 -77 c 0,316,317
 967 -89 967 -89 923.5 -86 c 0,318,319
 880 -83 880 -83 838 -86 c 0,320,321
 754 -96.0001 754 -96.0001 667.5 -104.5 c 0,322,323
 580.997 -113.001 580.997 -113.001 506 -144 c 0,324,325
 444 -168 444 -168 390.5 -181.5 c 0,326,327
 337 -195 337 -195 266 -186 c 0,0,1
EndSplineSet
EndChar
StartChar: K
Encoding: 75 75 13
Width: 1310
Flags: HMW
VStem: 48 294<-13 1634>
Fore
638 316 m 0,0,1
 591 315 591 315 620 274 c 0,2,3
 644.538 239.308 644.538 239.308 683.396 238.982 c 0,4,5
 690.462 238.923 690.462 238.923 698 240 c 0,6,7
 679.098 223.619 679.098 223.619 649.677 223.513 c 0,8,9
 632.402 223.451 632.402 223.451 611.5 229 c 0,10,11
 555.001 244 555.001 244 536 277 c 0,12,13
 501 334 501 334 480 444 c 0,14,15
 459 554 459 554 376 588 c 0,16,17
 361 594 361 594 328.5 585.5 c 0,18,19
 296.001 577 296.001 577 286 551 c 0,20,21
 271 514 271 514 294.5 482 c 0,22,-1
 342 415 l 0,23,24
 369 370 369 370 374 303 c 0,25,26
 373.24 263.147 l 0,27,28
 368.196 223.29 368.196 223.29 345 196 c 0,29,30
 344 200.001 344 200.001 342 245.5 c 0,31,32
 340.55 278.486 340.55 278.486 312.624 278.424 c 0,33,34
 300.363 278.397 300.363 278.397 283 272 c 0,35,36
 264.001 265 264.001 265 255.5 165.5 c 0,37,38
 246.999 66.0001 246.999 66.0001 290 66 c 0,39,40
 329 66 329 66 323.5 89 c 0,41,42
 318 111.999 318 111.999 304 127 c 0,43,44
 361 109 361 109 366.5 63 c 0,45,46
 372 17 372 17 342 -13 c 0,47,48
 289.002 -63.9983 289.002 -63.9983 222.5 -104 c 0,49,50
 156 -144.001 156 -144.001 156 -222 c 0,51,52
 156 -296.001 156 -296.001 230.5 -329.5 c 0,53,54
 300.803 -361.112 300.803 -361.112 396.485 -361.113 c 0,55,56
 402.198 -361.113 402.198 -361.113 408 -361 c 0,57,58
 348.507 -372.092 348.507 -372.092 301.95 -371.999 c 0,59,60
 209.993 -371.816 209.993 -371.816 168.5 -328 c 0,61,62
 107.913 -264.02 107.913 -264.02 98 -181 c 0,63,64
 97.2541 -142.611 l 0,65,66
 101.102 -94.0729 101.102 -94.0729 129 -44 c 0,67,68
 167.999 25.9991 167.999 25.9991 169 95 c 0,69,70
 169 157.001 169 157.001 144 198 c 0,71,72
 135.64 212.08 135.64 212.08 124.957 213.576 c 0,73,74
 111.932 211.149 l 0,75,76
 103.533 207.148 103.533 207.148 94 197 c 0,77,78
 62.9999 164 62.9999 164 112 113 c 0,79,80
 73 102.001 73 102.001 47.5 132 c 0,81,82
 38.9939 142.007 38.9939 142.007 21 180 c 0,83,84
 4.00904 215.876 4.00904 215.876 35 283.5 c 0,85,86
 54.7141 326.518 54.7141 326.518 77 381 c 0,87,88
 109.344 460.071 109.344 460.071 111.5 491.5 c 0,89,90
 119.119 602.598 119.119 602.598 121 605 c 0,91,92
 123.409 606.637 123.409 606.637 123.374 613.538 c 0,93,94
 123.309 626.595 123.309 626.595 114.5 658.5 c 0,95,96
 93.5096 731.735 93.5096 731.735 48 800 c 0,97,98
 36 818 36 818 32 867 c 0,99,100
 28 916 28 916 67 942 c 0,101,102
 58.6356 921.335 58.6356 921.335 58.6489 907.841 c 0,103,104
 58.6678 888.725 58.6678 888.725 75.5 884 c 0,105,106
 106 876 106 876 130 924 c 0,107,108
 154.741 970.912 154.741 970.912 154.837 1000.58 c 0,109,110
 154.848 1004.17 154.848 1004.17 154.5 1007.5 c 0,111,112
 145.981 1070.48 145.981 1070.48 127 1074 c 0,113,114
 105.667 1074.72 l 0,115,116
 91.2499 1071.94 91.2499 1071.94 90.8002 1057.34 c 0,117,118
 90.73 1055.06 90.73 1055.06 91 1052.5 c 0,119,120
 94 1024 94 1024 106 1012 c 0,121,122
 73.004 1012 73.004 1012 53.5 1036.5 c 0,123,124
 34 1060.99 34 1060.99 34 1076 c 0,125,126
 31 1122.99 31 1122.99 53 1185.5 c 0,127,128
 75.0055 1248.02 75.0055 1248.02 88 1296 c 0,129,130
 97.938 1333.68 97.938 1333.68 97.9311 1370.59 c 0,131,132
 97.9214 1422.82 97.9214 1422.82 78 1473.5 c 0,133,134
 44 1560.01 44 1560.01 48 1634 c 0,135,136
 49.9995 1682.99 49.9995 1682.99 79.5 1717 c 0,137,138
 99.8632 1740.47 99.8632 1740.47 129.045 1740.59 c 0,139,140
 142.135 1740.65 142.135 1740.65 157 1736 c 0,141,142
 110.002 1719.01 110.002 1719.01 102 1688.5 c 0,143,144
 98.2452 1661.63 l 0,145,146
 98.4527 1649.59 98.4527 1649.59 103 1641 c 0,147,148
 122.999 1599 122.999 1599 169 1605 c 0,149,150
 215.001 1611 215.001 1611 229 1641 c 0,151,152
 244.674 1677.15 244.674 1677.15 244.693 1707.92 c 0,153,154
 244.732 1773.36 244.732 1773.36 174 1814.5 c 0,155,156
 69.9617 1875.02 69.9617 1875.02 36 1886 c 0,157,158
 165.006 1859 165.006 1859 219 1802.5 c 0,159,160
 273.003 1745.99 273.003 1745.99 287 1698 c 0,161,162
 298.866 1655.73 298.866 1655.73 298.907 1618.68 c 0,163,164
 298.921 1605.77 298.921 1605.77 297.5 1593.5 c 0,165,166
 292.001 1546.01 292.001 1546.01 277 1488 c 0,167,168
 266.593 1447.11 266.593 1447.11 266.685 1393.79 c 0,169,170
 266.717 1375.39 266.717 1375.39 268 1355.5 c 0,171,172
 272.58 1284.5 272.58 1284.5 328.353 1283.58 c 0,173,174
 333.462 1283.5 333.462 1283.5 339 1284 c 0,175,176
 402 1290 402 1290 393 1344 c 0,177,178
 384 1398 384 1398 334 1410 c 0,179,180
 359.97 1413.09 l 0,181,182
 381.98 1412.55 381.98 1412.55 406.5 1402 c 0,183,184
 445.998 1385.01 445.998 1385.01 455 1355 c 0,185,186
 475 1280 475 1280 435.5 1215.5 c 0,187,188
 398.21 1154.61 398.21 1154.61 394 1076 c 0,189,190
 391.08 1021.49 391.08 1021.49 447 1046 c 0,191,192
 520 1077.99 520 1077.99 595 1205 c 0,193,194
 622 1250 622 1250 650 1371.5 c 0,195,196
 677.466 1490.68 677.466 1490.68 718 1522 c 0,197,198
 740 1538.99 740 1538.99 774.5 1547.5 c 0,199,200
 799.731 1550.51 l 0,201,202
 815.211 1549.79 815.211 1549.79 824 1541 c 0,203,204
 755 1536.01 755 1536.01 755 1490 c 0,205,206
 755 1458.99 755 1458.99 785 1466 c 0,207,208
 875 1482.01 875 1482.01 883.5 1543.5 c 0,209,210
 892.001 1605.01 892.001 1605.01 931 1655 c 0,211,212
 958 1689.99 958 1689.99 1005.5 1685 c 0,213,214
 1052.99 1680.01 1052.99 1680.01 1066 1658 c 0,215,216
 1046.78 1662.27 1046.78 1662.27 1031.01 1662.3 c 0,217,218
 987.727 1662.39 987.727 1662.39 970.5 1630.5 c 0,219,220
 961.129 1613.15 961.129 1613.15 961.06 1596.68 c 0,221,222
 960.961 1572.89 960.961 1572.89 982 1549 c 0,223,224
 1006.17 1522.41 1006.17 1522.41 1048.2 1522.44 c 0,225,226
 1058.33 1522.45 1058.33 1522.45 1069.5 1524 c 0,227,228
 1126.99 1531.99 1126.99 1531.99 1174.5 1568 c 0,229,230
 1222.01 1604 1222.01 1604 1242 1662.5 c 0,231,232
 1248.19 1680.62 1248.19 1680.62 1248.15 1699.75 c 0,233,234
 1248.06 1742.38 1248.06 1742.38 1217 1790 c 0,235,236
 1275 1744 1275 1744 1278 1669 c 0,237,238
 1275.94 1627.18 l 0,239,240
 1268.9 1580.13 1268.9 1580.13 1240 1547 c 0,241,242
 1216 1519 1216 1519 1155 1484.5 c 0,243,244
 1093.98 1449.99 1093.98 1449.99 1031 1426 c 0,245,246
 936.739 1390.05 936.739 1390.05 861 1257 c 0,247,248
 824.002 1192.01 824.002 1192.01 803.5 1131 c 0,249,250
 783.002 1070 783.002 1070 718 989 c 0,251,252
 674.001 934.001 674.001 934.001 603 927 c 0,253,254
 639 942 639 942 662 975.5 c 0,255,256
 670.036 987.205 670.036 987.205 670.015 995.797 c 0,257,258
 669.976 1011.8 669.976 1011.8 642 1017 c 0,259,260
 621.612 1016.71 l 0,261,262
 601.663 1012.85 601.663 1012.85 581.5 995 c 0,263,264
 552.458 969.292 552.458 969.292 545 932 c 0,265,266
 533 872 533 872 565.5 844.5 c 0,267,268
 599.679 815.578 599.679 815.578 619 851 c 0,269,270
 620.942 860.69 l 0,271,272
 618.273 876.636 618.273 876.636 575 889 c 0,273,274
 597.521 905.746 597.521 905.746 617.708 905.986 c 0,275,276
 636.286 902.519 l 0,277,278
 641.221 900.562 641.221 900.562 646 897.5 c 0,279,280
 678 877 678 877 687 847 c 0,281,282
 711 767 711 767 672 722 c 0,283,284
 634.562 678.803 634.562 678.803 645 604 c 0,285,286
 657 518 657 518 757.5 474.5 c 0,287,288
 858 431 858 431 945 402 c 0,289,290
 1041.01 369.999 1041.01 369.999 1070 311 c 0,291,292
 1092.11 266.008 1092.11 266.008 1092.13 243.118 c 0,293,294
 1092.14 235.987 1092.14 235.987 1090 231 c 0,295,296
 1064.99 311.001 1064.99 311.001 991 328 c 0,297,298
 956.966 331.206 l 0,299,300
 912.173 329.667 912.173 329.667 900 291 c 0,301,302
 897.698 271.598 l 0,303,304
 900.902 224.978 900.902 224.978 985 168.5 c 0,305,306
 1087 99.9995 1087 99.9995 1132 65 c 0,307,308
 1174.01 30.9915 1174.01 30.9915 1210.5 -27.5 c 0,309,310
 1239.73 -74.3571 1239.73 -74.3571 1239.78 -117.036 c 0,311,312
 1239.79 -127.648 1239.79 -127.648 1238 -138 c 0,313,314
 1209.34 -300.784 1209.34 -300.784 1045 -336 c 0,315,316
 1025 -340.286 1025 -340.286 992.499 -340.235 c 0,317,318
 979.5 -340.214 979.5 -340.214 964.5 -339.5 c 0,319,320
 912 -337 912 -337 868 -322 c 0,321,322
 880.727 -325.182 880.727 -325.182 912.893 -325.124 c 0,323,324
 931.273 -325.091 931.273 -325.091 956 -324 c 0,325,326
 1024 -321 1024 -321 1051 -309 c 0,327,328
 1115 -279.003 1115 -279.003 1154 -208 c 0,329,330
 1171.45 -176.237 1171.45 -176.237 1171.48 -142.472 c 0,331,332
 1171.53 -100.763 1171.53 -100.763 1145 -56 c 0,333,334
 1131.01 -32.0164 1131.01 -32.0164 1093 -0.5 c 0,335,336
 1055.01 31 1055.01 31 1012 44 c 0,337,338
 903 75.0001 903 75.0001 906 29 c 0,339,340
 906 6.00005 906 6.00005 933.5 6 c 0,341,342
 961 6 961 6 979 -1 c 0,343,344
 937 -25 937 -25 890.5 -12.5 c 0,345,346
 844 -4.76837e-06 844 -4.76837e-06 838 15 c 0,347,348
 822.002 44.9949 822.002 44.9949 806 92 c 0,349,-1
 782 172 l 0,350,351
 772.999 202.002 772.999 202.002 725.5 259.5 c 0,352,353
 679.085 315.686 679.085 315.686 638 316 c 0,0,1
EndSplineSet
KernsSLIF: 111 -104 0 0 79 -52 0 0 115 -221 0 0 83 -208 0 0 103 -182 0 0 71 -78 0 0 99 -234 0 0 67 -143 0 0
EndChar
StartChar: L
Encoding: 76 76 65
Width: 1349
Flags: MW
HStem: 5.5 212.5<394 867>
VStem: 77 263<33 1557>
Fore
81 187 m 1,0,1
 95.8849 195.931 95.8849 195.931 113.845 196 c 0,2,3
 138.115 196.092 138.115 196.092 168 180 c 0,4,5
 135.47 181.975 l 0,6,7
 106.046 179.89 106.046 179.89 86.5 162 c 0,8,9
 56.9999 135 56.9999 135 75 99 c 0,10,11
 87.3838 72.0972 87.3838 72.0972 106.059 71.9092 c 0,12,13
 115.619 71.8129 115.619 71.8129 126.827 78.7173 c 0,14,15
 144.998 89.91 144.998 89.91 167.5 119.5 c 0,16,17
 205.326 169.241 205.326 169.241 205.362 225.545 c 0,18,19
 205.386 263.76 205.386 263.76 188 305 c 0,20,21
 168.819 348.157 168.819 348.157 146.118 348.141 c 0,22,23
 135.681 348.134 135.681 348.134 124.5 339 c 0,24,25
 110.569 327.62 110.569 327.62 110.42 313.007 c 0,26,27
 110.325 303.613 110.325 303.613 115.924 292.882 c 0,28,29
 123.812 277.767 123.812 277.767 143 260 c 0,30,31
 66.9999 285 66.9999 285 64 377 c 0,32,33
 61 446 61 446 93.5 520.5 c 0,34,35
 125.999 594.997 125.999 594.997 142 665 c 0,36,37
 158.584 741.182 158.584 741.182 158.516 811.993 c 0,38,39
 158.453 877.817 158.453 877.817 144 939 c 0,40,41
 129 1001 129 1001 109 1061 c 0,42,43
 89.0001 1121 89.0001 1121 83 1190 c 0,44,45
 85.4002 1207.77 l 0,46,47
 89.192 1219.98 89.192 1219.98 98.5 1237 c 0,48,49
 113.063 1263.62 113.063 1263.62 148.738 1263.94 c 0,50,51
 155.94 1264.01 155.94 1264.01 164 1263 c 0,52,53
 151.987 1262.88 l 0,54,55
 137.206 1258.28 137.206 1258.28 125 1231 c 0,56,57
 121 1222.06 121 1222.06 120.765 1215.44 c 0,58,59
 123.205 1205.69 l 0,60,61
 129.228 1196.59 129.228 1196.59 150.025 1196.62 c 0,62,63
 154.213 1196.62 154.213 1196.62 159 1197 c 0,64,65
 193.073 1199.62 193.073 1199.62 193.561 1233.92 c 0,66,67
 193.632 1238.88 193.632 1238.88 193 1244.5 c 0,68,69
 188.004 1288.98 188.004 1288.98 180 1342 c 0,70,71
 168.003 1405.99 168.003 1405.99 142.5 1462.5 c 0,72,73
 116.992 1519.02 116.992 1519.02 96 1579 c 0,74,75
 90.8969 1591.93 90.8969 1591.93 90.9442 1607.29 c 0,76,77
 91.0361 1637.08 91.0361 1637.08 110.5 1676 c 0,78,79
 127.596 1710.19 127.596 1710.19 157.618 1710.13 c 0,80,81
 179.407 1710.08 179.407 1710.08 208 1692 c 0,82,83
 184.001 1692 184.001 1692 154.5 1675.5 c 0,84,85
 133.787 1663.92 133.787 1663.92 133.533 1633.84 c 0,86,87
 137 1605 l 0,88,89
 148.796 1548.97 148.796 1548.97 196 1548.5 c 0,90,91
 242.998 1548.99 242.998 1548.99 264 1609 c 0,92,93
 272.991 1635.97 272.991 1635.97 273.066 1660.18 c 0,94,95
 273.164 1691.87 273.164 1691.87 257.991 1718.82 c 0,96,97
 240.916 1749.16 240.916 1749.16 204.5 1773.5 c 0,98,99
 111.01 1836 111.01 1836 31 1848 c 0,100,101
 98.7863 1845.34 l 0,102,103
 181.869 1836.9 181.869 1836.9 234 1802.5 c 0,104,105
 306.003 1754.99 306.003 1754.99 324 1710 c 0,106,107
 354 1632 354 1632 340 1557 c 0,108,109
 326 1482 326 1482 326 1409 c 0,110,111
 329.503 1348.47 l 0,112,113
 338.221 1276.68 338.221 1276.68 368.5 1193.5 c 0,114,115
 412 1073.99 412 1073.99 345 1027 c 0,116,117
 355.31 1043.14 355.31 1043.14 355.372 1059.38 c 0,118,119
 355.448 1079.36 355.448 1079.36 340 1099.5 c 0,120,121
 328.21 1114.87 328.21 1114.87 316.244 1115.25 c 0,122,123
 304.078 1111.81 l 0,124,125
 293.606 1105.55 293.606 1105.55 283 1088 c 0,126,127
 268.001 1064 268.001 1064 262.5 975 c 0,128,129
 263.074 928.003 l 0,130,131
 268.216 880.218 268.216 880.218 295 864 c 0,132,133
 304.791 858.066 304.791 858.066 312.778 857.81 c 0,134,135
 323.721 860.607 l 0,136,137
 334.485 867.085 334.485 867.085 340.5 888.5 c 0,138,139
 353 933 353 933 317 972 c 0,140,141
 358 972 358 972 376.5 918 c 0,142,143
 395 864 395 864 374 823 c 0,144,145
 363 801 363 801 348.5 704.5 c 0,146,147
 334.001 608.009 334.001 608.009 330 500 c 0,148,149
 330.05 399.127 l 0,150,151
 332.138 349.53 332.138 349.53 338.5 305.5 c 0,152,153
 350.999 219.001 350.999 219.001 394 218 c 0,154,155
 419.375 220.375 l 0,156,157
 455.75 229.75 455.75 229.75 482 274 c 0,158,159
 514.832 329.345 514.832 329.345 585.501 329.254 c 0,160,161
 590.168 329.248 590.168 329.248 595 329 c 0,162,163
 628 326 628 326 647 296.5 c 0,164,165
 662.048 273.136 662.048 273.136 662.042 247.577 c 0,166,167
 662.04 240.864 662.04 240.864 661 234 c 0,168,169
 640 285 640 285 592 281.5 c 0,170,171
 544 278 544 278 559 218 c 0,172,173
 562 200 562 200 599 188 c 0,174,175
 609.533 184.584 609.533 184.584 625.171 184.652 c 0,176,177
 664.468 184.825 664.468 184.825 736 207 c 0,178,179
 792.993 224.998 792.993 224.998 906 266 c 0,180,181
 1019 307 1019 307 1004 187 c 0,182,183
 985.478 232.409 985.478 232.409 960.708 233.016 c 0,184,185
 945.201 229.307 l 0,186,187
 935.283 224.505 935.283 224.505 924.5 213.5 c 0,188,189
 876 164 876 164 920 146 c 0,190,191
 1049 93.0005 1049 93.0005 1151 165.5 c 0,192,193
 1239.19 228.186 1239.19 228.186 1239.17 375.713 c 0,194,195
 1239.17 398.817 1239.17 398.817 1237 424 c 0,196,197
 1285 262 1285 262 1235.5 175 c 0,198,199
 1186 87.9974 1186 87.9974 1087.5 49 c 0,200,201
 988.995 9.99982 988.995 9.99982 867 5.5 c 0,202,203
 745 1 745 1 648 5 c 0,204,205
 588 8 588 8 517 22 c 0,206,207
 446 36 446 36 341 8 c 0,208,209
 291.986 -4.7862 291.986 -4.7862 239.44 -4.70537 c 0,210,211
 218.014 -4.67242 218.014 -4.67242 196 -2.5 c 0,212,213
 120.001 4.99989 120.001 4.99989 77 33 c 0,214,215
 44 54 44 54 38 104 c 0,216,217
 38.6834 129.312 l 0,218,219
 44.988 162.747 44.988 162.747 81 187 c 1,0,1
EndSplineSet
KernsSLIF: 116 -417 0 0 84 -417 0 0 89 -234 0 0 121 -234 0 0 105 -130 0 0 73 -143 0 0 45 -221 0 0 83 -234 0 0 119 -273 0 0 87 -286 0 0
EndChar
StartChar: M
Encoding: 77 77 14
Width: 1706
Flags: HMW
VStem: 94 134<-53 110> 103 219.5<176.5 1679> 352.5 105.5<62.5 376> 1204 234<80 1735> 1320.5 117.5<-254 80>
Fore
1191 -391 m 1,0,1
 1254.99 -348.011 1254.99 -348.011 1320.5 -254 c 0,2,3
 1378.85 -170.264 1378.85 -170.264 1378.87 -61.11 c 0,4,5
 1378.87 -47.7462 1378.87 -47.7462 1378 -34 c 0,6,7
 1375 5.9856 1375 5.9856 1352 60.5 c 0,8,9
 1329.01 115 1329.01 115 1271 121 c 0,10,11
 1236.18 118.355 l 0,12,13
 1233.88 117.956 1233.88 117.956 1231.5 117.5 c 0,14,15
 1208 113.001 1208 113.001 1202 95 c 0,16,17
 1190.15 63.5722 1190.15 63.5722 1190.25 38.2553 c 0,18,19
 1190.33 14.4222 1190.33 14.4222 1201 -4 c 0,20,21
 1217.66 -32.7714 1217.66 -32.7714 1249.22 -32.8796 c 0,22,23
 1259.34 -32.9143 1259.34 -32.9143 1271 -30 c 0,24,25
 1254.04 -59.2158 1254.04 -59.2158 1207.32 -59.1209 c 0,26,27
 1204.46 -59.1151 1204.46 -59.1151 1201.5 -59 c 0,28,29
 1150.01 -57 1150.01 -57 1122 -27 c 0,30,31
 1082.65 11.5429 1082.65 11.5429 1082.64 73.3058 c 0,32,33
 1082.64 88.4541 1082.64 88.4541 1085 105 c 0,34,35
 1098.01 201.049 1098.01 201.049 1129 292 c 0,36,37
 1159.99 382.965 1159.99 382.965 1178 473 c 0,38,39
 1190.02 533.081 1190.02 533.081 1210 677.5 c 0,40,41
 1230 822.036 1230 822.036 1230 885 c 0,42,43
 1230 933.068 1230 933.068 1224.5 1007.5 c 0,44,45
 1219 1082 1219 1082 1165 1107 c 0,46,47
 1145.79 1115.87 1145.79 1115.87 1125.63 1115.79 c 0,48,49
 1091.2 1115.67 1091.2 1115.67 1054 1089.5 c 0,50,51
 1014.77 1061.9 1014.77 1061.9 1014.45 1027.45 c 0,52,53
 1018.33 1004.4 l 0,54,55
 1020.54 997.811 1020.54 997.811 1024 991 c 0,56,57
 1037.79 964.081 1037.79 964.081 1054.81 963.673 c 0,58,59
 1068.33 967.252 l 0,60,61
 1070.88 968.617 1070.88 968.617 1073.5 970.5 c 0,62,63
 1101.99 990.995 1101.99 990.995 1112 1029 c 0,64,65
 1134.99 955 1134.99 955 1094 895 c 0,66,67
 1058 843.999 1058 843.999 976 836 c 0,68,69
 893.995 828 893.995 828 830 828 c 0,70,71
 769 828 769 828 740 797.5 c 0,72,73
 710.999 766.999 710.999 766.999 709 736 c 0,74,75
 706 698 706 698 723.5 653.5 c 0,76,77
 741 609 741 609 768 595 c 0,78,79
 855 548 855 548 890 574 c 0,80,81
 925.001 600 925.001 600 936 631 c 0,82,83
 943 595 943 595 916.5 562 c 0,84,85
 890 529 890 529 869 526 c 0,86,87
 790 509 790 509 758.5 527 c 0,88,89
 727 545 727 545 700 574 c 0,90,91
 640.999 634.001 640.999 634.001 622.5 739 c 0,92,93
 604 844 604 844 603 915 c 0,94,95
 601 959 601 959 577.5 1002.5 c 0,96,97
 554 1046 554 1046 503 1049 c 0,98,99
 469 1050.01 469 1050.01 470 1014.5 c 0,100,101
 470.546 995.136 470.546 995.136 486.86 994.963 c 0,102,103
 496.177 994.864 496.177 994.864 510.639 1001.02 c 0,104,105
 517.277 1003.85 517.277 1003.85 525 1008 c 0,106,107
 515 966 515 966 484 963.5 c 0,108,109
 455.502 964.925 l 0,110,111
 440.947 967.75 440.947 967.75 428 975 c 0,112,113
 397.999 990 397.999 990 397.5 1036 c 0,114,115
 400.858 1097.86 l 0,116,117
 402.845 1115.12 402.845 1115.12 406 1133 c 0,118,119
 408.23 1168.25 l 0,120,121
 406.474 1196.11 406.474 1196.11 391 1209 c 0,122,123
 377 1220.38 377 1220.38 365.042 1220.31 c 0,124,125
 336 1220.15 336 1220.15 319 1152.5 c 0,126,127
 295 1056.99 295 1056.99 295 999 c 0,128,129
 295 826.001 295 826.001 348 638 c 0,130,131
 364 575 364 575 402 506.5 c 0,132,133
 440 438 440 438 458 376 c 0,134,135
 480.369 294.514 480.369 294.514 480.4 228.983 c 0,136,137
 480.408 212.486 480.408 212.486 479 197 c 0,138,139
 467 54.9995 467 54.9995 376 26 c 0,140,141
 292 -2 292 -2 265 54 c 0,142,143
 303 41 303 41 352.5 62.5 c 0,144,145
 399.923 83.0977 399.923 83.0977 400.077 129.854 c 0,146,147
 400.084 131.902 400.084 131.902 400 134 c 0,148,149
 396.484 183.929 396.484 183.929 359.587 184.653 c 0,150,151
 334.74 180.746 l 0,152,153
 328.882 179.009 328.882 179.009 322.5 176.5 c 0,154,155
 250.001 148 250.001 148 228 110 c 0,156,157
 192.001 48.0011 192.001 48.0011 185 -25 c 0,158,159
 182.436 -88.491 l 0,160,161
 183.31 -118.758 183.31 -118.758 189 -141 c 0,162,163
 223.999 -293.999 223.999 -293.999 290 -361 c 0,164,165
 356 -428 356 -428 425 -482 c 0,166,167
 285 -455 285 -455 187.5 -325 c 0,168,169
 93.943 -200.257 93.943 -200.257 93.8425 -64.4657 c 0,170,171
 93.8382 -58.7428 93.8382 -58.7428 94 -53 c 0,172,173
 97 43 97 43 146 140 c 0,174,175
 195.001 237.001 195.001 237.001 209 333 c 0,176,177
 214.998 371.988 214.998 371.988 227.5 438.5 c 0,178,179
 230.901 474.219 l 0,180,181
 230.041 510.432 230.041 510.432 207 523 c 0,182,183
 191.903 530.839 191.903 530.839 180.346 530.839 c 0,184,185
 152.097 530.839 152.097 530.839 145 484 c 0,186,187
 143.091 450.184 l 0,188,189
 145.56 415.36 145.56 415.36 171 409 c 0,190,191
 97.0005 409 97.0005 409 90 474 c 0,192,193
 82.9999 539 82.9999 539 90 588 c 0,194,195
 96 634 96 634 127 686 c 0,196,197
 158 738 158 738 164 783 c 0,198,199
 168.088 814.428 168.088 814.428 167.998 844.615 c 0,200,201
 167.736 932.573 167.736 932.573 132 1010 c 0,202,203
 84.004 1113.99 84.004 1113.99 53 1222 c 0,204,205
 22.9998 1322.01 22.9998 1322.01 20.5 1382 c 0,206,207
 18 1442 18 1442 70 1544 c 0,208,209
 89.997 1582.99 89.997 1582.99 126.5 1590 c 0,210,211
 154.046 1592.08 l 0,212,213
 168.318 1590.79 168.318 1590.79 175 1583 c 0,214,215
 124.999 1578.99 124.999 1578.99 114.5 1508.5 c 0,216,217
 112.6 1474.11 l 0,218,219
 115.168 1439.36 115.168 1439.36 144 1436 c 0,220,221
 173.178 1437.94 l 0,222,223
 208.051 1445.24 208.051 1445.24 224 1477.5 c 0,224,225
 246 1522 246 1522 252 1575 c 0,226,227
 256.999 1620 256.999 1620 246 1672.5 c 0,228,229
 236.506 1717.81 236.506 1717.81 172.622 1718.06 c 0,230,231
 162.495 1718.09 162.495 1718.09 151 1717 c 0,232,233
 128.007 1715.01 128.007 1715.01 115.5 1696.5 c 0,234,235
 103.708 1679.05 103.708 1679.05 103 1679 c 0,236,237
 105.806 1714.01 l 0,238,239
 117.15 1769.34 117.15 1769.34 173.5 1784.5 c 0,240,241
 189.642 1788.84 189.642 1788.84 205.164 1788.8 c 0,242,243
 259.359 1788.64 259.359 1788.64 306 1735 c 0,244,245
 363.005 1667.99 363.005 1667.99 396.5 1582.5 c 0,246,247
 430 1497 430 1497 473 1428 c 0,248,-1
 530 1343.5 l 0,249,250
 566.99 1288.67 566.99 1288.67 595.556 1288.37 c 0,251,252
 605.034 1288.27 605.034 1288.27 613.585 1294.17 c 0,253,254
 618.977 1297.89 618.977 1297.89 624 1304 c 0,255,256
 634.821 1316.98 634.821 1316.98 634.87 1331.28 c 0,257,258
 634.933 1350.01 634.933 1350.01 616.5 1371 c 0,259,260
 588.485 1402.9 588.485 1402.9 554.892 1402.84 c 0,261,262
 549.517 1402.83 549.517 1402.83 544 1402 c 0,263,264
 562.993 1424.95 562.993 1424.95 587.931 1425.04 c 0,265,266
 594.509 1425.07 594.509 1425.07 601.5 1423.5 c 0,267,268
 634.987 1416 634.987 1416 653 1405 c 0,269,270
 689.001 1379.99 689.001 1379.99 694 1326 c 0,271,272
 695.999 1271.01 695.999 1271.01 723.5 1217.5 c 0,273,274
 742.767 1180.01 742.767 1180.01 771.12 1180.09 c 0,275,276
 783.231 1180.12 783.231 1180.12 797 1187 c 0,277,278
 839.999 1208 839.999 1208 857.5 1263.5 c 0,279,280
 874.99 1318.97 874.99 1318.97 901 1389 c 0,281,282
 937 1485 937 1485 1034.5 1600.5 c 0,283,284
 1131.99 1715.99 1131.99 1715.99 1204 1735 c 0,285,286
 1299.18 1758.55 1299.18 1758.55 1414.62 1758.51 c 0,287,288
 1416.82 1758.51 1416.82 1758.51 1419 1758.5 c 0,289,290
 1536.99 1758.01 1536.99 1758.01 1624 1696 c 0,291,292
 1668.01 1662.99 1668.01 1662.99 1715 1607 c 0,293,294
 1762 1551 1762 1551 1762 1486 c 0,295,296
 1762 1451.98 1762 1451.98 1753.5 1420.5 c 0,297,298
 1745 1389 1745 1389 1706 1367 c 0,299,300
 1732.07 1398.62 1732.07 1398.62 1732.14 1440.1 c 0,301,302
 1732.19 1473.38 1732.19 1473.38 1715.5 1513 c 0,303,304
 1678 1602 1678 1602 1606 1635 c 0,305,306
 1531.03 1668.99 1531.03 1668.99 1449.5 1673 c 0,307,308
 1424.97 1670.67 l 0,309,310
 1367.02 1655.35 1367.02 1655.35 1362 1544 c 0,311,312
 1364.34 1517.8 l 0,313,314
 1372.6 1483.53 1372.6 1483.53 1408 1448.5 c 0,315,316
 1438.06 1418.76 1438.06 1418.76 1459.46 1418.54 c 0,317,318
 1468.94 1418.44 1468.94 1418.44 1476.72 1424.14 c 0,319,320
 1480.01 1426.55 1480.01 1426.55 1483 1430 c 0,321,322
 1503.71 1453.3 1503.71 1453.3 1503.69 1471.35 c 0,323,324
 1503.68 1481.2 1503.68 1481.2 1497.5 1489.5 c 0,325,326
 1480.01 1512.99 1480.01 1512.99 1451 1523 c 0,327,328
 1462.95 1538.93 1462.95 1538.93 1480.07 1538.84 c 0,329,330
 1493.05 1538.77 1493.05 1538.77 1509 1529.5 c 0,331,332
 1545.99 1508.01 1545.99 1508.01 1552 1497 c 0,333,334
 1562.18 1474.09 1562.18 1474.09 1562.51 1446 c 0,335,336
 1558.74 1407.05 l 0,337,338
 1554 1387 l 0,339,340
 1536 1321.99 1536 1321.99 1500 1278 c 0,341,342
 1416.04 1176.16 1416.04 1176.16 1416.08 1061.63 c 0,343,344
 1416.1 1028.84 1416.1 1028.84 1423 995 c 0,345,346
 1444 887.992 1444 887.992 1476.5 845 c 0,347,348
 1508.97 802.053 1508.97 802.053 1539 757 c 0,349,350
 1602.07 662.786 1602.07 662.786 1602.09 561.896 c 0,351,352
 1602.09 533.218 1602.09 533.218 1597 504 c 0,353,354
 1589.99 464.981 1589.99 464.981 1573.5 427.5 c 0,355,356
 1557 389.995 1557 389.995 1514 360 c 0,357,358
 1503.02 353.01 1503.02 353.01 1475.5 342.5 c 0,359,360
 1455.47 338.636 l 0,361,362
 1439.99 338.866 1439.99 338.866 1427 350 c 0,363,364
 1484 377 1484 377 1494.5 417.5 c 0,365,366
 1501.7 445.258 1501.7 445.258 1501.61 472.323 c 0,367,368
 1501.57 484.735 1501.57 484.735 1500 497 c 0,369,370
 1497 524 1497 524 1451 525.5 c 0,371,372
 1429 522.813 l 0,373,374
 1401.07 514.148 1401.07 514.148 1390 478 c 0,375,376
 1374.99 431.982 1374.99 431.982 1373 369.5 c 0,377,378
 1371.01 307 1371.01 307 1379 259 c 0,379,380
 1389.99 190.017 1389.99 190.017 1406.5 154 c 0,381,382
 1423 118 1423 118 1438 80 c 0,383,384
 1469.99 -7 1469.99 -7 1453 -101 c 0,385,386
 1436.99 -185.011 1436.99 -185.011 1383 -266 c 0,387,388
 1329 -347 1329 -347 1191 -391 c 1,0,1
EndSplineSet
KernsSLIF: 65 -104 0 0 97 -104 0 0 105 78 0 0
EndChar
StartChar: N
Encoding: 78 78 49
Width: 1258
Flags: MW
VStem: 112 207<77 1354> 762 258<69 1428.5>
Fore
74 -62 m 1,0,1
 41 43 41 43 64.5 150 c 0,2,3
 87.9992 256.995 87.9992 256.995 108 359 c 0,4,5
 138 521 138 521 61 677 c 0,6,7
 -16 833 -16 833 17 954 c 0,8,9
 20 965 20 965 44 986 c 0,10,11
 68 1007 68 1007 101 992 c 0,12,13
 9.00005 947 9.00005 947 77.5 905.5 c 0,14,15
 146.001 864 146.001 864 146 964 c 0,16,17
 146 1059 146 1059 129 1160 c 0,18,19
 112 1261 112 1261 112 1354 c 0,20,21
 114.761 1469.81 l 0,22,23
 116.564 1501.21 116.564 1501.21 119.5 1533.5 c 0,24,25
 128.001 1627 128.001 1627 184 1684 c 0,26,27
 203.611 1704.22 203.611 1704.22 228.297 1704.54 c 0,28,29
 251.074 1700.94 l 0,30,31
 256.195 1699.33 256.195 1699.33 261.5 1697 c 0,32,33
 307 1677 307 1677 307 1650 c 0,34,35
 268.794 1682.55 268.794 1682.55 241.845 1682.8 c 0,36,37
 231.258 1682.9 231.258 1682.9 221.5 1677.5 c 0,38,39
 189.999 1659 189.999 1659 180.5 1611.5 c 0,40,41
 176.467 1591.33 176.467 1591.33 176.489 1569.19 c 0,42,43
 176.519 1539.16 176.519 1539.16 184 1505.5 c 0,44,45
 196.999 1447.01 196.999 1447.01 233 1413 c 0,46,47
 295.992 1350.01 295.992 1350.01 386 1314.5 c 0,48,49
 476.011 1278.99 476.011 1278.99 519 1224 c 0,50,51
 545.623 1187.93 545.623 1187.93 545.694 1151.12 c 0,52,53
 545.706 1145.07 545.706 1145.07 545 1139 c 0,54,55
 540.001 1096 540.001 1096 480 1066 c 0,56,-1
 502 1105 l 0,57,58
 514 1126 514 1126 506 1153 c 0,59,60
 497 1178.99 497 1178.99 477.5 1184.5 c 0,61,62
 464.262 1184.99 l 0,63,64
 453.62 1182.33 453.62 1182.33 446 1169 c 0,65,66
 437.906 1155.92 437.906 1155.92 437.953 1128.31 c 0,67,68
 437.981 1111.58 437.981 1111.58 441 1089.5 c 0,69,70
 449 1031 449 1031 469.5 969.5 c 0,71,72
 490 908 490 908 517.5 862 c 0,73,74
 541.915 821.159 541.915 821.159 565.149 820.52 c 0,75,76
 568.084 820.439 568.084 820.439 571 821 c 0,77,78
 643 833 643 833 617 883.5 c 0,79,80
 591.001 933.999 591.001 933.999 559 960 c 0,81,82
 673 931 673 931 681 835.5 c 0,83,84
 689 740 689 740 689 645 c 0,85,86
 689 567.999 689 567.999 744 530 c 0,87,88
 757.572 520.623 757.572 520.623 768.89 520.563 c 0,89,90
 787.453 520.463 787.453 520.463 799.956 545.418 c 0,91,92
 810.726 566.914 810.726 566.914 817 607 c 0,93,94
 826.998 675.985 826.998 675.985 832.5 743.5 c 0,95,96
 838 811 838 811 819 882 c 0,97,98
 808 921 808 921 781.5 974.5 c 0,99,100
 755 1028.01 755 1028.01 755 1075 c 0,101,102
 755 1120 755 1120 773 1156 c 0,103,104
 789.176 1188.35 789.176 1188.35 831.992 1188.4 c 0,105,106
 836.826 1188.41 836.826 1188.41 842 1188 c 0,107,108
 822 1170 822 1170 807 1140 c 0,109,110
 792 1110 792 1110 813 1092 c 0,111,112
 823 1082.67 823 1082.67 831.5 1082.67 c 0,113,114
 848.499 1082.67 848.499 1082.67 859.5 1120 c 0,115,116
 876 1175.99 876 1175.99 876 1188 c 0,117,118
 876 1262 876 1262 839 1314.5 c 0,119,120
 802 1367 802 1367 794 1439 c 0,121,122
 794.095 1471.9 l 0,123,124
 800.447 1521.51 800.447 1521.51 845.5 1560.5 c 0,125,126
 905 1611.99 905 1611.99 953 1535 c 0,127,128
 919.238 1535.44 l 0,129,130
 871.273 1529.7 871.273 1529.7 870.734 1481.68 c 0,131,132
 870.688 1477.5 870.688 1477.5 871 1473 c 0,133,134
 876 1401 876 1401 936 1401 c 0,135,136
 989.994 1401 989.994 1401 1020 1428.5 c 0,137,138
 1050 1455.99 1050 1455.99 1071 1499 c 0,139,140
 1093.96 1545.56 1093.96 1545.56 1093.94 1612.45 c 0,141,142
 1093.93 1650.44 1093.93 1650.44 1086.5 1695 c 0,143,144
 1065.99 1818.01 1065.99 1818.01 1006 1877 c 0,145,146
 1102.01 1814 1102.01 1814 1125 1699 c 0,147,148
 1148 1583.97 1148 1583.97 1148 1560 c 0,149,150
 1148 1485.01 1148 1485.01 1116 1422.5 c 0,151,152
 1083.99 1359.96 1083.99 1359.96 1070 1297 c 0,153,154
 1062.93 1266.38 1062.93 1266.38 1062.96 1238.99 c 0,155,156
 1062.99 1196.62 1062.99 1196.62 1080 1162 c 0,157,158
 1107.99 1105.03 1107.99 1105.03 1134 1043 c 0,159,160
 1168.01 955 1168.01 955 1183.5 886 c 0,161,162
 1198.99 817 1198.99 817 1083 760 c 0,163,-1
 1113 802.5 l 0,164,165
 1130 827.007 1130 827.007 1130 852 c 0,166,167
 1130 892 1130 892 1104 892 c 0,168,169
 1077.42 889.157 l 0,170,171
 1028.81 876.802 1028.81 876.802 1024 811 c 0,172,173
 1015 687 1015 687 1003 556.5 c 0,174,175
 991 426 991 426 966 305 c 0,176,177
 948 222.001 948 222.001 863 62 c 0,178,179
 778 -98 778 -98 670 -79 c 0,180,181
 720 -55 720 -55 736.5 -18.5 c 0,182,183
 753 18 753 18 762 69 c 0,184,185
 775 138 775 138 725.5 292.5 c 0,186,187
 676 447 676 447 593 435 c 0,188,189
 565 431 565 431 569 395 c 0,190,191
 572.22 366.025 572.22 366.025 596.817 365.553 c 0,192,193
 610 367 l 0,194,195
 596.188 350 596.188 350 578.988 349.934 c 0,196,197
 563.812 349.875 563.812 349.875 546 363 c 0,198,199
 508 391 508 391 502 411 c 0,200,201
 467 518.001 467 518.001 461 595 c 0,202,203
 455 671.999 455 671.999 423 770 c 0,204,205
 400 839 400 839 373 847 c 0,206,207
 364.788 846.446 l 0,208,209
 359.164 842.844 359.164 842.844 359.247 828.26 c 0,210,211
 359.369 806.668 359.369 806.668 372 761 c 0,212,213
 381.671 725.158 381.671 725.158 381.633 684.301 c 0,214,215
 381.604 653.34 381.604 653.34 376 619.5 c 0,216,217
 363 541 363 541 267 579 c 0,218,219
 351 576 351 576 313.5 641.5 c 0,220,221
 276 707 276 707 249 644 c 0,222,223
 234.53 609.272 234.53 609.272 234.5 559 c 0,224,225
 234.999 510.002 234.999 510.002 247 479 c 0,226,227
 294.999 346.002 294.999 346.002 326.5 289.5 c 0,228,229
 340.656 264.108 340.656 264.108 340.574 218.621 c 0,230,231
 340.473 162.892 340.473 162.892 319 77 c 0,232,233
 309 36 309 36 268 13 c 0,234,235
 227.001 -9.99947 227.001 -9.99947 186 -20 c 0,236,237
 230.999 2.99969 230.999 2.99969 250 78.5 c 0,238,239
 253.611 106.897 l 0,240,241
 252.175 152.133 252.175 152.133 189 152 c 0,242,243
 144.001 150.001 144.001 150.001 131 95.5 c 0,244,245
 117.999 41 117.999 41 118 -7 c 0,246,247
 118 -142 118 -142 217.5 -203.5 c 0,248,249
 317 -265 317 -265 431 -271 c 0,250,251
 395.576 -276.239 395.576 -276.239 363.232 -276.188 c 0,252,253
 265.925 -276.034 265.925 -276.034 196.5 -228 c 0,254,255
 104 -164 104 -164 74 -62 c 1,0,1
EndSplineSet
KernsSLIF: 65 -234 0 0 97 -208 0 0
EndChar
StartChar: O
Encoding: 79 79 47
Width: 1417
Flags: HW
Fore
263 27 m 1,0,1
 233 13.5 233 13.5 202 13.5 c 0,2,3
 171 13.5 171 13.5 139 27 c 0,4,5
 22 76.0001 22 76.0001 22 185 c 0,6,7
 22 261.001 22 261.001 75 455 c 0,8,-1
 147 721 l 0,9,10
 153.999 750.993 153.999 750.993 158 796 c 0,11,12
 156.573 817.294 l 0,13,14
 149.813 841.812 149.813 841.812 117 844 c 0,15,16
 89.2061 842.225 l 0,17,18
 46.2343 832.476 46.2343 832.476 46.0801 776.017 c 0,19,20
 46.0569 767.536 46.0569 767.536 47 758 c 0,21,22
 19.3514 778.513 19.3514 778.513 19.1465 836.017 c 0,23,24
 19.1216 842.987 19.1216 842.987 19.5 850.5 c 0,25,26
 23 920 23 920 41.5 1005.5 c 0,27,28
 60 1091 60 1091 83.5 1178 c 0,29,30
 106.998 1264.99 106.998 1264.99 116 1324 c 0,31,32
 128.001 1411.01 128.001 1411.01 174 1492.5 c 0,33,34
 201.989 1542.09 201.989 1542.09 257.37 1542.25 c 0,35,36
 289.993 1542.35 289.993 1542.35 332.12 1525.3 c 0,37,38
 336.018 1523.72 336.018 1523.72 340 1522 c 0,39,40
 232.57 1519.34 232.57 1519.34 231.558 1459.92 c 0,41,42
 233 1444 l 0,43,44
 246.622 1371.02 246.622 1371.02 295 1370 c 0,45,46
 373.997 1370 373.997 1370 454 1495 c 0,47,48
 502.516 1570.8 502.516 1570.8 502.485 1611.67 c 0,49,50
 502.465 1638.19 502.465 1638.19 482 1650 c 0,51,52
 451.482 1667.25 451.482 1667.25 427.613 1667.38 c 0,53,54
 409.651 1667.48 409.651 1667.48 395.456 1657.88 c 0,55,56
 385.869 1651.4 385.869 1651.4 378 1640.5 c 0,57,58
 343 1592.01 343 1592.01 330 1567 c 0,59,60
 325.922 1585.8 325.922 1585.8 325.899 1602.66 c 0,61,62
 325.82 1660.2 325.82 1660.2 373 1695 c 0,63,64
 427.818 1735.44 427.818 1735.44 511.724 1735.5 c 0,65,66
 521.177 1735.51 521.177 1735.51 531 1735 c 0,67,68
 630.999 1729 630.999 1729 758 1669 c 0,69,70
 885.004 1609 885.004 1609 924 1539 c 0,71,-1
 949.5 1479.5 l 0,72,73
 970.969 1429.07 970.969 1429.07 999.5 1372.5 c 0,74,75
 1027.99 1316.02 1027.99 1316.02 1060 1270.5 c 0,76,77
 1089.79 1228.14 1089.79 1228.14 1118 1228 c 0,78,79
 1188.94 1234.16 1188.94 1234.16 1189.13 1280.17 c 0,80,81
 1189.18 1293.83 1189.18 1293.83 1183 1311 c 0,82,83
 1156 1386.01 1156 1386.01 1090 1388 c 0,84,85
 1116.63 1392.13 1116.63 1392.13 1138.87 1392.1 c 0,86,87
 1224.37 1392 1224.37 1392 1245 1330.5 c 0,88,89
 1260.02 1285.72 1260.02 1285.72 1260.02 1250.8 c 0,90,91
 1260.03 1225.27 1260.03 1225.27 1252 1205 c 0,92,93
 1227.01 1143.05 1227.01 1143.05 1162 963 c 0,94,95
 1114.5 831.456 1114.5 831.456 1114.53 767.21 c 0,96,97
 1114.54 743.538 1114.54 743.538 1121 729 c 0,98,99
 1134.99 694 1134.99 694 1190 694.5 c 0,100,101
 1245 695 1245 695 1257 742 c 0,102,103
 1261.16 756.544 1261.16 756.544 1261.24 768.805 c 0,104,105
 1261.34 782.452 1261.34 782.452 1256.4 793.271 c 0,106,107
 1242.28 824.188 1242.28 824.188 1187 832 c 0,108,109
 1197.02 844.659 1197.02 844.659 1221.79 844.798 c 0,110,111
 1239.24 844.897 1239.24 844.897 1264.01 838.779 c 0,112,113
 1270.74 837.119 1270.74 837.119 1278 835 c 0,114,115
 1347.81 814.638 1347.81 814.638 1348.05 740.675 c 0,116,117
 1348.06 738.365 1348.06 738.365 1348 736 c 0,118,119
 1343.01 576.009 1343.01 576.009 1216.5 460.5 c 0,120,121
 1090 344.992 1090 344.992 1030 216 c 0,122,123
 1024.6 204.557 1024.6 204.557 1024.65 193.874 c 0,124,125
 1024.76 170.939 1024.76 170.939 1050 151.5 c 0,126,127
 1063.03 141.468 1063.03 141.468 1082.37 141.534 c 0,128,129
 1117.97 141.656 1117.97 141.656 1175 176 c 0,130,131
 1155.01 125 1155.01 125 1091 97 c 0,132,133
 1026.98 68.9955 1026.98 68.9955 952.5 52.5 c 0,134,135
 878 36 878 36 810.5 25.5 c 0,136,137
 743 15 743 15 718 1 c 0,138,139
 658 -32 658 -32 567 -58 c 0,140,141
 522.468 -70.7233 522.468 -70.7233 476.5 -70.7546 c 0,142,143
 428.532 -70.7873 428.532 -70.7873 379 -57 c 0,144,145
 367 -53 367 -53 343.5 -37 c 0,146,147
 320 -21 320 -21 315 11 c 0,148,149
 368 -31 368 -31 410 -27 c 0,150,151
 452 -23 452 -23 473 -1 c 0,152,153
 497 25 497 25 456 54.5 c 0,154,155
 415 84.0001 415 84.0001 353.5 106.5 c 0,156,157
 292 129 292 129 233.5 138 c 0,158,159
 189.68 141.609 l 0,160,161
 170.8 140.934 170.8 140.934 166 134 c 0,162,163
 152.476 114.369 152.476 114.369 152.56 97.6881 c 0,164,165
 152.668 76.131 152.668 76.131 175.5 59.5 c 0,166,167
 216 30 216 30 263 27 c 1,0,1
887 310 m 1,85,86
 899 334 899 334 890.5 373 c 0,87,88
 882 412 882 412 832 394 c 0,89,90
 781 376 781 376 788 333 c 0,91,92
 795 290 795 290 818 288 c 0,93,94
 749 286 749 286 745 349 c 0,95,96
 739 418 739 418 790 450.5 c 0,97,98
 841 483 841 483 889 534 c 0,99,100
 904 551 904 551 945 692.5 c 0,101,102
 986 834 986 834 968 910 c 0,103,104
 946 999 946 999 872.5 1038 c 0,105,106
 799 1077 799 1077 799 1186 c 0,107,108
 799 1200.99 799 1200.99 817 1212.5 c 0,109,110
 826.229 1218.4 826.229 1218.4 836.25 1218.38 c 0,111,112
 845.767 1218.36 845.767 1218.36 856 1213 c 0,113,114
 840.205 1210.37 840.205 1210.37 839.81 1193.49 c 0,115,116
 839.755 1191.13 839.755 1191.13 840 1188.5 c 0,117,118
 842 1167.01 842 1167.01 860 1166 c 0,119,120
 872.806 1168.21 l 0,121,122
 884.747 1174.44 884.747 1174.44 884.653 1197.6 c 0,123,124
 884.553 1222.09 884.553 1222.09 871 1265.5 c 0,125,126
 839 1367.99 839 1367.99 736 1390 c 0,127,128
 628 1412.99 628 1412.99 550.5 1369 c 0,129,130
 473 1325.01 473 1325.01 473 1256 c 0,131,132
 473 1230.99 473 1230.99 505 1214 c 0,133,134
 525.872 1202.91 525.872 1202.91 548.866 1202.89 c 0,135,136
 561.131 1202.87 561.131 1202.87 574 1206 c 0,137,138
 603.86 1213.31 603.86 1213.31 604.012 1235.48 c 0,139,140
 604.11 1249.69 604.11 1249.69 592 1270 c 0,141,142
 628.292 1265.05 628.292 1265.05 628.527 1221.67 c 0,143,144
 628.577 1212.45 628.577 1212.45 627 1201.5 c 0,145,146
 618.002 1139.01 618.002 1139.01 585 1126 c 0,147,148
 547.001 1111 547.001 1111 491 1102 c 0,149,150
 435.018 1093 435.018 1093 388 1073 c 0,151,152
 356.003 1059.01 356.003 1059.01 331 996 c 0,153,154
 306 933 306 933 289.5 859 c 0,155,156
 273 785 273 785 264.5 719 c 0,157,158
 256 653 256 653 257 632 c 0,159,160
 260 542 260 542 312.5 522.5 c 0,161,162
 365 503 365 503 416 449 c 0,163,164
 443 420 443 420 441 370.5 c 0,165,166
 439 321 439 321 402 316 c 0,167,168
 411.192 332.085 411.192 332.085 411.143 345.2 c 0,169,170
 411.106 354.915 411.106 354.915 406 363 c 0,171,172
 394 382 394 382 360 373 c 0,173,174
 322 363 322 363 328.5 317.5 c 0,175,176
 335 272 335 272 371 252 c 0,177,178
 468.098 195.621 468.098 195.621 594.015 195.652 c 0,179,180
 628.902 195.661 628.902 195.661 666 200 c 0,181,182
 837 220 837 220 887 310 c 1,85,86
EndSplineSet
KernsSLIF: 121 -78 0 0 89 -91 0 0 97 -156 0 0 65 -156 0 0 120 -156 0 0 88 -156 0 0 87 -234 0 0 116 -286 0 0 84 -365 0 0
EndChar
StartChar: P
Encoding: 80 80 61
Width: 1329
Flags: MW
VStem: 197 325<73 1477>
Fore
518 874 m 0,0,1
 606 816 606 816 627 886 c 0,2,3
 650 964 650 964 611 956.5 c 0,4,5
 572 949 572 949 555 928 c 0,6,7
 543 943 543 943 554.5 971.5 c 0,8,9
 566 1000 566 1000 578 1012 c 0,10,11
 627 1061.01 627 1061.01 677 1025.5 c 0,12,13
 726.986 990.005 726.986 990.005 783 974 c 0,14,15
 852 953 852 953 878.5 1050 c 0,16,17
 905.001 1147.01 905.001 1147.01 910 1231 c 0,18,19
 908.901 1282.34 l 0,20,21
 904.241 1331.41 904.241 1331.41 886 1384.5 c 0,22,23
 857.997 1466 857.997 1466 788 1505 c 0,24,25
 746.02 1526.99 746.02 1526.99 701 1528 c 0,26,27
 656 1529.01 656 1529.01 661 1453 c 0,28,29
 663 1415 663 1415 696.5 1410.5 c 0,30,31
 726.891 1410.32 l 0,32,33
 746.742 1412.61 746.742 1412.61 768 1421 c 0,34,35
 761.001 1388.01 761.001 1388.01 727 1373.5 c 0,36,37
 705.194 1364.2 705.194 1364.2 689.55 1364.16 c 0,38,39
 680.813 1364.13 680.813 1364.13 674 1367 c 0,40,41
 603.995 1394 603.995 1394 569.5 1438.5 c 0,42,43
 535.012 1482.99 535.012 1482.99 511 1493 c 0,44,45
 487.022 1501.95 487.022 1501.95 468.037 1502.06 c 0,46,47
 451.651 1502.15 451.651 1502.15 438.986 1495.66 c 0,48,49
 425.329 1488.66 425.329 1488.66 416 1474 c 0,50,51
 393 1439 393 1439 391.5 1350.5 c 0,52,53
 394.035 1261.13 l 0,54,55
 397.399 1214.16 397.399 1214.16 405 1165 c 0,56,57
 419.999 1068 419.999 1068 449.5 984 c 0,58,59
 479 900 479 900 518 874 c 0,0,1
235 -68 m 0,36,37
 233.325 25.6653 l 0,38,39
 237.033 178.49 237.033 178.49 283 327.5 c 0,40,41
 319.793 446.772 319.793 446.772 319.734 573.376 c 0,42,43
 319.697 653.229 319.697 653.229 305 736 c 0,44,45
 288.001 824.999 288.001 824.999 232 888 c 0,46,47
 176 951.001 176 951.001 164 1029 c 0,48,49
 162.356 1058.78 l 0,50,51
 163.651 1078.43 163.651 1078.43 170.5 1102 c 0,52,53
 182.999 1145.01 182.999 1145.01 222 1150 c 0,54,55
 205.412 1107.34 205.412 1107.34 205.203 1079.82 c 0,56,57
 205.105 1067.02 205.105 1067.02 208.55 1057.49 c 0,58,59
 216.453 1035.63 216.453 1035.63 243 1031 c 0,60,61
 265.996 1030.34 l 0,62,63
 303.391 1035.78 303.391 1035.78 312 1089 c 0,64,65
 310.993 1137.94 l 0,66,67
 308.867 1164.38 308.867 1164.38 304 1202 c 0,68,69
 293.002 1286.99 293.002 1286.99 266 1363.5 c 0,70,71
 239.003 1439.99 239.003 1439.99 197 1477 c 0,72,73
 181.88 1490.32 181.88 1490.32 164.686 1490.29 c 0,74,75
 134.121 1490.24 134.121 1490.24 97 1448 c 0,76,77
 59.3301 1404.67 59.3301 1404.67 59.3529 1351.6 c 0,78,79
 59.3544 1348.32 59.3544 1348.32 59.5 1345 c 0,80,81
 62 1288 62 1288 83 1261 c 0,82,83
 101 1237 101 1237 109 1222 c 0,84,85
 117.003 1206.99 117.003 1206.99 141 1199 c 0,86,87
 78 1208 78 1208 67.5 1221.5 c 0,88,89
 56.9847 1235.02 56.9847 1235.02 33 1258 c 0,90,91
 10.9999 1303 10.9999 1303 10 1340 c 0,92,93
 12.5953 1401.58 l 0,94,95
 13.6097 1411.57 13.6097 1411.57 15 1422 c 0,96,97
 27.0018 1502.01 27.0018 1502.01 71 1555 c 0,98,99
 176 1676.01 176 1676.01 269 1705 c 0,100,101
 353.428 1731.32 353.428 1731.32 498.8 1731.28 c 0,102,103
 513.581 1731.28 513.581 1731.28 529 1731 c 0,104,105
 694.016 1728 694.016 1728 811 1689.5 c 0,106,107
 928.032 1650.98 928.032 1650.98 1071 1557 c 0,108,109
 1142.03 1508.98 1142.03 1508.98 1204 1436 c 0,110,111
 1238.68 1395.16 1238.68 1395.16 1238.63 1344.64 c 0,112,113
 1238.59 1304.83 1238.59 1304.83 1217 1259 c 0,114,115
 1201 1225 1201 1225 1177.5 1206 c 0,116,117
 1154.01 1187.01 1154.01 1187.01 1103 1183 c 0,118,119
 1122 1215.99 1122 1215.99 1129.5 1250 c 0,120,121
 1130.62 1272.67 l 0,122,123
 1127.86 1294.49 1127.86 1294.49 1110 1315 c 0,124,125
 1098.99 1326.01 1098.99 1326.01 1065.5 1334 c 0,126,127
 1032.01 1341.99 1032.01 1341.99 1031 1289 c 0,128,129
 1032.07 1159.01 l 0,130,131
 1033.01 1135.15 1033.01 1135.15 1034.5 1111.5 c 0,132,133
 1035.52 1032.62 l 0,134,135
 1033.73 983.704 1033.73 983.704 1026 934 c 0,136,137
 1017 876.978 1017 876.978 968 749.5 c 0,138,139
 919 622 919 622 836 589 c 0,140,141
 782 568 782 568 699.5 588 c 0,142,143
 617 608 617 608 596 671 c 0,144,145
 653 642 653 642 708 645 c 0,146,147
 773 648 773 648 777 682 c 0,148,149
 774.961 695.917 l 0,150,151
 764.158 721.263 764.158 721.263 701 741 c 0,152,153
 651 756 651 756 596 745.5 c 0,154,155
 541 735 541 735 509 694 c 0,156,157
 485.999 663.998 485.999 663.998 466 566 c 0,158,159
 454.824 511.235 454.824 511.235 454.889 464.59 c 0,160,161
 454.941 427.764 454.941 427.764 462 396 c 0,162,163
 481.006 309.979 481.006 309.979 500.5 233 c 0,164,165
 520.001 155.999 520.001 155.999 522 73 c 0,166,167
 525 -94 525 -94 450 -233 c 0,168,169
 423 -283 423 -283 341.5 -349 c 0,170,171
 260.001 -415 260.001 -415 201 -415 c 0,172,173
 287 -373 287 -373 379 -249.5 c 0,174,175
 442.033 -164.885 442.033 -164.885 442.164 -90.362 c 0,176,177
 442.224 -56.1152 442.224 -56.1152 429 -24 c 0,178,179
 405 31 405 31 363 27.5 c 0,180,181
 321 24 321 24 289 -18 c 0,182,183
 268 -46 268 -46 275.5 -98.5 c 0,184,185
 283 -151 283 -151 294 -175 c 0,186,187
 239.001 -134.001 239.001 -134.001 235 -68 c 0,36,37
EndSplineSet
KernsSLIF: 45 -208 0 0 46 -260 0 0 44 -286 0 0 116 -91 0 0 84 -195 0 0 321 -363 0 0 322 -363 0 0 65 -342 0 0 97 -363 0 0
EndChar
StartChar: Q
Encoding: 81 81 32
Width: 1255
Flags: W
Fore
946 1665 m 1,0,1
 972.261 1677.88 972.261 1677.88 999.749 1678 c 0,2,3
 1023.34 1678.1 1023.34 1678.1 1047.83 1668.8 c 0,4,5
 1052.4 1667.06 1052.4 1667.06 1057 1665 c 0,6,7
 1162 1612.99 1162 1612.99 1162 1503 c 0,8,9
 1162 1424.01 1162 1424.01 1114 1225 c 0,10,11
 1066.03 1026.12 1066.03 1026.12 1050 953 c 0,12,13
 1042.99 921 1042.99 921 1039.5 875 c 0,14,15
 1036.01 829 1036.01 829 1077 826 c 0,16,17
 1100.59 827.702 l 0,18,19
 1139.62 837.667 1139.62 837.667 1139.65 898.428 c 0,20,21
 1139.65 906.288 1139.65 906.288 1139 915 c 0,22,23
 1170.9 877.5 1170.9 877.5 1171.01 822.931 c 0,24,25
 1171.1 779.997 1171.1 779.997 1151.5 726.5 c 0,26,27
 1107 605.014 1107 605.014 1107 504 c 0,28,29
 1107 402.008 1107 402.008 1139 350.5 c 0,30,31
 1170.99 299 1170.99 299 1163 239 c 0,32,33
 1152.01 149.012 1152.01 149.012 1110 77.5 c 0,34,35
 1086.04 36.7115 1086.04 36.7115 1040.93 36.4396 c 0,36,37
 1024.38 36.3399 1024.38 36.3399 1005 41.6884 c 0,38,39
 984.575 47.3221 984.575 47.3221 961 59 c 0,40,41
 1067.99 61 1067.99 61 1055.5 138 c 0,42,43
 1043.33 212.974 1043.33 212.974 1001 214 c 0,44,45
 983 214 983 214 942 177.5 c 0,46,47
 901 141.001 901 141.001 901 95 c 0,48,49
 899 34 899 34 925 15 c 0,50,51
 951 -4.00001 951 -4.00001 985 -23 c 0,52,53
 1018.99 -41.9901 1018.99 -41.9901 1050 -81.5 c 0,54,55
 1080.99 -120.985 1080.99 -120.985 1091 -223 c 0,56,57
 1055 -129.996 1055 -129.996 979 -79.5 c 0,58,59
 903 -29 903 -29 877 -98 c 0,60,61
 859 -144.999 859 -144.999 956.5 -251 c 0,62,63
 1054 -357 1054 -357 1183 -365 c 0,64,65
 1121.24 -362.563 l 0,66,67
 1028.23 -352.747 1028.23 -352.747 951.5 -305.5 c 0,68,69
 850 -243 850 -243 782 -175 c 0,70,71
 723.983 -116.983 723.983 -116.983 724 -55 c 0,72,73
 725 6.00005 725 6.00005 698 16 c 0,74,75
 684.054 21.1892 684.054 21.1892 671.37 21.1191 c 0,76,77
 644.946 20.973 644.946 20.973 624 -2 c 0,78,79
 593 -36 593 -36 522 -50 c 0,80,81
 244 -101 244 -101 220 54 c 0,82,83
 286 0 286 0 337 21 c 0,84,85
 388 42 388 42 355 114 c 0,86,87
 351.005 121.989 351.005 121.989 332 173.5 c 0,88,89
 313 224.999 313 224.999 287 283 c 0,90,91
 261 341 261 341 232.5 387.5 c 0,92,93
 204.564 433.08 204.564 433.08 182 433 c 0,94,95
 99.0005 424 99.0005 424 123 346.5 c 0,96,97
 147 269 147 269 207 269 c 0,98,99
 187.571 253.572 187.571 253.572 167.49 253.49 c 0,100,101
 152.429 253.429 152.429 253.429 137 262 c 0,102,103
 101 282 101 282 95 291 c 0,104,105
 42 354 42 354 65 457 c 0,106,107
 71 489 71 489 93.5 559 c 0,108,-1
 138.5 705 l 0,109,110
 160.999 780.995 160.999 780.995 175.5 848.5 c 0,111,112
 190.001 916 190.001 916 180 944 c 0,113,114
 166.999 979 166.999 979 117.5 979 c 0,115,116
 68 979 68 979 58 932 c 0,117,118
 39 851 39 851 120 839 c 0,119,120
 102 815 102 815 39.5 836 c 0,121,122
 -23 857 -23 857 -22 937 c 0,123,124
 -17.9997 1101.01 -17.9997 1101.01 94.5 1220 c 0,125,126
 206.996 1338.99 206.996 1338.99 261 1471 c 0,127,128
 276 1507 276 1507 241 1522 c 0,129,130
 206.001 1537 206.001 1537 154 1459 c 0,131,132
 158.999 1543 158.999 1543 213.5 1582 c 0,133,134
 268.01 1621.01 268.01 1621.01 335 1638 c 0,135,136
 402.083 1655.02 402.083 1655.02 462.5 1663 c 0,137,138
 522.996 1670.99 522.996 1670.99 540 1692 c 0,139,140
 572 1732.01 572 1732.01 504 1761 c 0,141,142
 482.218 1770.29 482.218 1770.29 461.258 1770.34 c 0,143,144
 423.561 1770.44 423.561 1770.44 388.522 1740.68 c 0,145,146
 382.218 1735.32 382.218 1735.32 376 1729 c 0,147,148
 382.001 1806.01 382.001 1806.01 465.5 1821.5 c 0,149,150
 549 1836.99 549 1836.99 587 1820 c 0,151,152
 656 1787 656 1787 697 1740.5 c 0,153,154
 738.065 1693.93 738.065 1693.93 756 1672 c 0,155,156
 819.012 1591.99 819.012 1591.99 912.5 1554 c 0,157,158
 958.669 1535.24 958.669 1535.24 988.622 1535.25 c 0,159,160
 1019.33 1535.26 1019.33 1535.26 1033 1555 c 0,161,162
 1046.31 1574.97 1046.31 1574.97 1046.33 1592.08 c 0,163,164
 1046.36 1613.54 1046.36 1613.54 1025.5 1630.5 c 0,165,166
 988 1660.99 988 1660.99 946 1665 c 0,167,-1
 946 1665 l 1,0,1
735 1510 m 0,105,106
 636 1511.01 636 1511.01 529.5 1478.5 c 0,107,108
 422.998 1445.99 422.998 1445.99 389 1374 c 0,109,110
 377 1350 377 1350 384.5 1309.5 c 0,111,112
 389.617 1281.87 389.617 1281.87 412.654 1281.93 c 0,113,114
 423.383 1281.96 423.383 1281.96 438 1288 c 0,115,116
 476.322 1303.68 476.322 1303.68 476.716 1339.08 c 0,117,118
 476.774 1344.32 476.774 1344.32 476 1350 c 0,119,120
 469.999 1394 469.999 1394 451 1397 c 0,121,122
 475.763 1394.05 l 0,123,124
 512.154 1383.46 512.154 1383.46 516 1335 c 0,125,126
 514.434 1298.61 l 0,127,128
 507.433 1254.61 507.433 1254.61 474.5 1230 c 0,129,130
 428.988 1195.99 428.988 1195.99 387 1145 c 0,131,132
 371.997 1127 371.997 1127 332.5 980.5 c 0,133,134
 304.311 875.949 304.311 875.949 304.388 806.797 c 0,135,136
 304.418 779.049 304.418 779.049 309 757 c 0,137,138
 328.001 664.999 328.001 664.999 402.5 593 c 0,139,140
 477 521 477 521 477 410 c 0,141,142
 477 395 477 395 460.5 382.5 c 0,143,144
 444 370 444 370 426 382 c 0,145,146
 441 385 441 385 439 407 c 0,147,148
 437 429 437 429 422 431 c 0,149,150
 383 434 383 434 376 361.5 c 0,151,152
 369 289 369 289 435 243 c 0,153,154
 476 213 476 213 527 201 c 0,155,156
 578 189 578 189 608 204 c 0,157,158
 667 229.999 667 229.999 656 285 c 0,159,160
 645 340 645 340 582 376 c 0,161,162
 678 371 678 371 691.5 318.5 c 0,163,164
 705 266 705 266 768 262 c 0,165,166
 807 259 807 259 826.5 295 c 0,167,168
 846 331 846 331 846 349 c 0,169,170
 846 373.999 846 373.999 817 391.5 c 0,171,172
 797.184 403.458 797.184 403.458 776.433 403.509 c 0,173,174
 766.817 403.533 766.817 403.533 757 401 c 0,175,176
 729.121 393.121 729.121 393.121 728.791 370.55 c 0,177,178
 732.807 350.482 l 0,179,180
 735.501 343.222 735.501 343.222 740 335 c 0,181,182
 706.857 339.971 706.857 339.971 706.668 384.761 c 0,183,184
 706.629 394.028 706.629 394.028 708 405 c 0,185,186
 716 469 716 469 746 483 c 0,187,188
 779 498 779 498 846 517.5 c 0,189,190
 913 537 913 537 937 598 c 0,191,192
 961 661 961 661 940 875.5 c 0,193,194
 919 1089.99 919 1089.99 810 1232 c 0,195,196
 787.5 1260.13 787.5 1260.13 787.412 1305.83 c 0,197,198
 787.406 1308.88 787.406 1308.88 787.5 1312 c 0,199,200
 789 1362 789 1362 822 1368 c 0,201,202
 813.495 1350.99 813.495 1350.99 813.349 1337.68 c 0,203,204
 813.25 1328.63 813.25 1328.63 818 1319.5 c 0,205,206
 825.334 1307.17 825.334 1307.17 841.555 1307.06 c 0,207,208
 849.667 1307 849.667 1307 860 1310 c 0,209,210
 893 1320.01 893 1320.01 893 1371 c 0,211,212
 893 1421.99 893 1421.99 869 1450 c 0,213,214
 845.986 1476.01 845.986 1476.01 805.5 1493 c 0,215,216
 764.988 1510 764.988 1510 735 1510 c 0,105,106
EndSplineSet
EndChar
StartChar: R
Encoding: 82 82 57
Width: 1327
Flags: MW
VStem: 112 318<-13 1619>
Fore
1128 -43 m 0,0,1
 1125 20.0058 1125 20.0058 1077.5 71.5 c 0,2,3
 1029.99 123.002 1029.99 123.002 969 136 c 0,4,5
 942.51 137.844 l 0,6,7
 911.739 135.321 911.739 135.321 893.5 108.5 c 0,8,9
 868 71 868 71 903 37 c 0,10,11
 933 7 933 7 951 20 c 0,12,13
 969 33 969 33 987 57 c 0,14,15
 1005 -25 1005 -25 930 -45 c 0,16,17
 855 -65 855 -65 813 -4 c 0,18,19
 780 44 780 44 770.5 108.5 c 0,20,21
 761 173 761 173 745 227 c 0,22,23
 716.999 318.002 716.999 318.002 642.5 454 c 0,24,25
 568 590 568 590 472 611 c 0,26,27
 436 617 436 617 386 598.5 c 0,28,29
 337.069 580.396 337.069 580.396 337 505 c 0,30,31
 337 368 337 368 381 245 c 0,32,33
 425 122 425 122 416 -26 c 0,34,35
 411.001 -102.999 411.001 -102.999 341.5 -186 c 0,36,37
 272 -269.001 272 -269.001 200 -295 c 0,38,39
 147.999 -313 147.999 -313 102 -320.5 c 0,40,41
 55.9999 -328 55.9999 -328 -1 -319 c 0,42,43
 64 -309 64 -309 138 -277 c 0,44,45
 181.001 -256 181.001 -256 248.5 -196.5 c 0,46,47
 316.001 -136.999 316.001 -136.999 321 -47 c 0,48,49
 324 14 324 14 310 68 c 0,50,51
 296 122 296 122 220 121 c 0,52,53
 161.371 119.046 161.371 119.046 161 33.5 c 0,54,55
 162.001 -52.0001 162.001 -52.0001 222 -74 c 0,56,57
 185.921 -72.0319 l 0,58,59
 160.223 -67.6052 160.223 -67.6052 146 -54 c 0,60,61
 122.998 -31.9977 122.998 -31.9977 112 -13 c 0,62,63
 87.1224 30.6532 87.1224 30.6532 87.0314 92.7034 c 0,64,65
 86.9318 160.706 86.9318 160.706 116.602 250.804 c 0,66,67
 117.536 253.642 117.536 253.642 118.5 256.5 c 0,68,69
 177.998 432.992 177.998 432.992 200 529 c 0,70,71
 213.298 586.794 213.298 586.794 213.255 619.738 c 0,72,73
 213.214 651.206 213.214 651.206 201 660 c 0,74,75
 189.636 668.182 189.636 668.182 179.512 668.306 c 0,76,77
 171.681 668.402 171.681 668.402 164.591 663.676 c 0,78,79
 160.683 661.07 160.683 661.07 157 657 c 0,80,81
 138.001 636.001 138.001 636.001 135.5 602 c 0,82,83
 136.939 576.347 l 0,84,85
 140.286 561.572 140.286 561.572 150 553 c 0,86,87
 81 556 81 556 73.5 615.5 c 0,88,89
 66 675 66 675 75 710 c 0,90,91
 88.9999 771 88.9999 771 129 837.5 c 0,92,93
 168.998 903.996 168.998 903.996 185 966 c 0,94,95
 209 1063.01 209 1063.01 200 1164 c 0,96,97
 187.999 1302.01 187.999 1302.01 165.5 1448 c 0,98,99
 161.539 1473.7 161.539 1473.7 161.56 1498.62 c 0,100,101
 161.659 1615.3 161.659 1615.3 249 1715 c 0,102,103
 332.004 1811.01 332.004 1811.01 498.5 1823.5 c 0,104,105
 542.128 1823.16 l 0,106,107
 666.124 1810.3 666.124 1810.3 673 1653 c 0,108,109
 633 1746 633 1746 526 1740 c 0,110,111
 429.612 1734.6 429.612 1734.6 428.979 1640.74 c 0,112,113
 428.909 1630.41 428.909 1630.41 430 1619 c 0,114,115
 433 1582 433 1582 480 1559.5 c 0,116,117
 527.013 1536.99 527.013 1536.99 583 1530.5 c 0,118,119
 634.872 1528.19 l 0,120,121
 661.46 1529.07 661.46 1529.07 685.5 1534.5 c 0,122,123
 732 1545 732 1545 734 1575 c 0,124,125
 730.88 1592.46 l 0,126,127
 720.662 1615.48 720.662 1615.48 677.121 1615.69 c 0,128,129
 669.123 1615.73 669.123 1615.73 660 1615 c 0,130,131
 696.965 1635.92 696.965 1635.92 737.127 1635.89 c 0,132,133
 779.53 1635.87 779.53 1635.87 825.5 1612.5 c 0,134,135
 914.997 1567.01 914.997 1567.01 949 1468 c 0,136,137
 974.001 1390 974.001 1390 1011 1367.5 c 0,138,139
 1047.99 1345.01 1047.99 1345.01 1111 1288 c 0,140,141
 1137.99 1262.01 1137.99 1262.01 1149.5 1203.5 c 0,142,143
 1150.82 1178.98 l 0,144,145
 1146.53 1137.32 1146.53 1137.32 1095 1110 c 0,146,147
 1121.6 1139.56 1121.6 1139.56 1121.65 1165.79 c 0,148,149
 1121.68 1183.94 1121.68 1183.94 1109 1200.5 c 0,150,151
 1088.51 1227.26 1088.51 1227.26 1070.66 1227.17 c 0,152,153
 1061.48 1227.12 1061.48 1227.12 1053 1220 c 0,154,155
 1037.03 1206.94 1037.03 1206.94 1036.99 1173.85 c 0,156,157
 1036.94 1138.57 1036.94 1138.57 1055 1080.5 c 0,158,159
 1089.99 968 1089.99 968 1064 859 c 0,160,161
 1038.99 757 1038.99 757 945.5 742.5 c 0,162,163
 852 728 852 728 813 764 c 0,164,165
 854.001 765 854.001 765 885 788.5 c 0,166,167
 916 812 916 812 907 857 c 0,168,169
 892 927 892 927 809 855.5 c 0,170,171
 726 784 726 784 738 710 c 0,172,173
 744 666 744 666 803.5 620 c 0,174,175
 863 574 863 574 887 593 c 0,176,177
 897.886 601.165 897.886 601.165 898.107 612.144 c 0,178,179
 894.131 627.135 l 0,180,181
 892.791 629.758 892.791 629.758 891 632.5 c 0,182,183
 875 657 875 657 833 657 c 0,184,185
 837 687 837 687 889 687 c 0,186,187
 941 687 941 687 967 659 c 0,188,189
 1000 620 1000 620 991 539 c 0,190,191
 982 458 982 458 982 408 c 0,192,193
 982 300.001 982 300.001 1059 269.5 c 0,194,195
 1135.99 239.001 1135.99 239.001 1191 158 c 0,196,197
 1234 94.0096 1234 94.0096 1249 7.5 c 0,198,199
 1257.42 -41.0666 1257.42 -41.0666 1257.33 -82.5396 c 0,200,201
 1257.26 -114.933 1257.26 -114.933 1252 -143 c 0,202,203
 1196.01 -418.993 1196.01 -418.993 985.5 -531 c 0,204,205
 775.003 -642.999 775.003 -642.999 531 -677 c 0,206,207
 771.001 -609.999 771.001 -609.999 956.5 -466.5 c 0,208,209
 1128.86 -333.171 1128.86 -333.171 1128.98 -81.9849 c 0,210,211
 1128.99 -62.8342 1128.99 -62.8342 1128 -43 c 0,0,1
596 909 m 0,125,126
 622 881 622 881 659.5 894.5 c 0,127,128
 697 908 697 908 739 937 c 0,129,130
 788 971 788 971 817.5 1042.5 c 0,131,132
 846.999 1114 846.999 1114 852.5 1183.5 c 0,133,134
 853.032 1236.31 l 0,135,136
 850.538 1272.97 850.538 1272.97 839.5 1302.5 c 0,137,138
 824.154 1343.56 824.154 1343.56 789.89 1343.68 c 0,139,140
 782.845 1343.71 782.845 1343.71 775 1342 c 0,141,142
 736 1333 736 1333 732.5 1301.5 c 0,143,144
 734.396 1286.82 l 0,145,146
 743.097 1264.03 743.097 1264.03 788 1245 c 0,147,148
 704 1231.99 704 1231.99 664.5 1276.5 c 0,149,150
 625.002 1321 625.002 1321 584 1347 c 0,151,152
 543.637 1371.84 543.637 1371.84 506.754 1372.04 c 0,153,154
 488.577 1372.14 488.577 1372.14 471.246 1366.26 c 0,155,156
 455.786 1361.01 455.786 1361.01 441 1351 c 0,157,158
 376.004 1307.01 376.004 1307.01 346 1215 c 0,159,160
 331 1171.01 331 1171.01 322 1032 c 0,161,162
 313 893 313 893 394 878 c 0,163,164
 420.822 875.578 l 0,165,166
 464.908 878.309 464.908 878.309 465.305 934.977 c 0,167,168
 465.342 940.254 465.342 940.254 465 946 c 0,169,170
 461.845 983.859 461.845 983.859 419.498 984.392 c 0,171,172
 394 982 l 0,173,174
 395.633 992.939 l 0,175,176
 401.858 1006 401.858 1006 429 1016 c 0,177,178
 449.668 1023.61 449.668 1023.61 464.713 1023.54 c 0,179,180
 477.334 1023.47 477.334 1023.47 486 1018 c 0,181,182
 561 967 561 967 552.5 965.5 c 0,183,184
 544 964 544 964 596 909 c 0,125,126
EndSplineSet
KernsSLIF: 89 -143 0 0 121 -130 0 0 83 -208 0 0 71 -104 0 0 116 -286 0 0 84 -313 0 0 86 -22 0 0 87 -150 0 0
EndChar
StartChar: S
Encoding: 83 83 15
Width: 1364
Flags: HW
Fore
598 -86 m 0,0,1
 580 -78.0001 580 -78.0001 553.5 -52 c 0,2,3
 531.24 -30.1606 531.24 -30.1606 531.206 -9.7312 c 0,4,5
 531.2 -5.8401 531.2 -5.8401 532 -2 c 0,6,7
 556.993 -17.9955 556.993 -17.9955 582 -36.5 c 0,8,9
 594 -45.38 594 -45.38 606 -45.62 c 0,10,11
 622 -42.1 l 0,12,13
 627 -39.8 627 -39.8 632 -36 c 0,14,15
 649.627 -22.339 649.627 -22.339 649.777 -9.26058 c 0,16,17
 649.872 -0.893791 649.872 -0.893791 642.815 7.23458 c 0,18,19
 635.87 15.2327 635.87 15.2327 622 23 c 0,20,21
 572 51 572 51 493 79 c 0,22,-1
 335.5 134 l 0,23,24
 256.999 161 256.999 161 240 188 c 0,25,26
 211.999 230 211.999 230 219 294.5 c 0,27,28
 226 359 226 359 283 372 c 0,29,30
 283.268 329.648 l 0,31,32
 286.957 296.146 286.957 296.146 303 278.5 c 0,33,34
 328 251 328 251 403 274 c 0,35,36
 445 286 445 286 436.5 339 c 0,37,38
 427.999 392.001 427.999 392.001 414 421 c 0,39,40
 384 481 384 481 302.5 515.5 c 0,41,42
 221.001 550 221.001 550 157 560 c 0,43,44
 122.001 565 122.001 565 83.5 557.5 c 0,45,46
 45 550 45 550 8 542 c 0,47,48
 79 596 79 596 130.5 595.5 c 0,49,50
 182.001 595 182.001 595 200 594 c 0,51,52
 248 591 248 591 326.5 558 c 0,53,54
 405 525 405 525 438 494 c 0,55,56
 492.001 441.998 492.001 441.998 546 351 c 0,57,58
 599.621 260.638 599.621 260.638 666 208 c 0,59,60
 704 176.999 704 176.999 783 160 c 0,61,62
 809.78 154.237 809.78 154.237 831.963 154.22 c 0,63,64
 875.22 154.187 875.22 154.187 901 176 c 0,65,66
 998 261.999 998 261.999 1013 374.5 c 0,67,68
 1028 487 1028 487 992 570 c 0,69,70
 974 612 974 612 893.5 669 c 0,71,72
 813 726 813 726 754 729 c 0,73,74
 721.157 727.957 l 0,75,76
 684 721.514 684 721.514 684 688 c 0,77,78
 684 637 684 637 705 625.5 c 0,79,-1
 764 593 l 0,80,81
 740.845 584.699 740.845 584.699 718.262 584.796 c 0,82,83
 689.155 584.922 689.155 584.922 661 599 c 0,84,85
 611 624 611 624 592 672 c 0,86,-1
 546.5 782 l 0,87,88
 510 870 510 870 460.5 963 c 0,89,90
 411.009 1055.98 411.009 1055.98 356.5 1124.5 c 0,91,92
 311.764 1180.73 311.764 1180.73 272.75 1180.69 c 0,93,94
 264.239 1180.69 264.239 1180.69 256 1178 c 0,95,96
 220.5 1166.49 220.5 1166.49 220.442 1108.94 c 0,97,98
 220.439 1106.51 220.439 1106.51 220.5 1104 c 0,99,100
 222 1041.99 222 1041.99 256 1034 c 0,101,102
 231.657 1031.21 l 0,103,104
 199.094 1032.81 199.094 1032.81 182 1067 c 0,105,106
 159 1113.01 159 1113.01 159 1134 c 0,107,108
 159 1199 159 1199 174 1247 c 0,109,110
 189 1295 189 1295 213 1343 c 0,111,112
 270.997 1462.99 270.997 1462.99 412.5 1566 c 0,113,114
 554 1669.01 554 1669.01 611 1704 c 0,115,116
 689.946 1749.97 689.946 1749.97 763 1779.5 c 0,117,118
 836 1809.01 836 1809.01 1021 1775 c 0,119,120
 1123.01 1755.99 1123.01 1755.99 1179 1697 c 0,121,122
 1235 1638 1235 1638 1241 1590 c 0,123,124
 1170.01 1684.01 1170.01 1684.01 1043 1644 c 0,125,126
 1000.99 1630.99 1000.99 1630.99 980 1586.5 c 0,127,128
 959 1541.99 959 1541.99 963 1495 c 0,129,130
 972.959 1370.96 972.959 1370.96 1086.21 1370.29 c 0,131,132
 1098.04 1370.22 1098.04 1370.22 1111 1371.5 c 0,133,134
 1247.98 1385 1247.98 1385 1338 1414 c 0,135,136
 1283 1338 1283 1338 1180 1315.5 c 0,137,138
 1110.41 1300.3 1110.41 1300.3 1067.29 1300.39 c 0,139,140
 1046.6 1300.43 1046.6 1300.43 1032 1304 c 0,141,142
 943.012 1323.99 943.012 1323.99 902 1366.5 c 0,143,144
 861 1408.99 861 1408.99 803 1461 c 0,145,146
 761.569 1497.43 761.569 1497.43 707.898 1497.38 c 0,147,148
 686.428 1497.36 686.428 1497.36 663 1491.5 c 0,149,150
 580.997 1470.99 580.997 1470.99 545 1396 c 0,151,152
 519 1340 519 1340 509.5 1233.5 c 0,153,154
 508.766 1185.28 l 0,155,156
 513.672 1116.51 513.672 1116.51 556 1084 c 0,157,158
 651.097 1007.76 651.097 1007.76 701.05 1007.84 c 0,159,160
 709.406 1007.85 709.406 1007.85 716.5 1010 c 0,161,162
 766 1025 766 1025 839 1016 c 0,163,164
 880 1010 880 1010 922 975 c 0,165,166
 964 940 964 940 941 883 c 0,167,168
 914 952 914 952 883 955.5 c 0,169,170
 861.719 954.539 l 0,171,172
 845.625 950.75 845.625 950.75 835 937 c 0,173,174
 802 895 802 895 901.5 820 c 0,175,176
 1001 745 1001 745 1040 733 c 0,177,178
 1057.62 726.748 1057.62 726.748 1077.66 726.795 c 0,179,180
 1092.88 726.831 1092.88 726.831 1109.5 730.5 c 0,181,182
 1124.23 733.752 1124.23 733.752 1124.54 745.418 c 0,183,184
 1120.41 761.043 l 0,185,186
 1112.25 778.324 1112.25 778.324 1088 805 c 0,187,188
 1169.99 797.002 1169.99 797.002 1178.5 720 c 0,189,190
 1187.01 643 1187.01 643 1177 597 c 0,191,192
 1168 559 1168 559 1154.5 451 c 0,193,194
 1150.46 418.662 1150.46 418.662 1150.5 389.819 c 0,195,196
 1150.58 322.343 1150.58 322.343 1173 274 c 0,197,198
 1198 217.001 1198 217.001 1222.5 204 c 0,199,200
 1247.01 190.994 1247.01 190.994 1261 104 c 0,201,202
 1265.01 72.0001 1265.01 72.0001 1243 6.5 c 0,203,204
 1220.99 -59.0006 1220.99 -59.0006 1146 -68 c 0,205,206
 1159.01 -44 1159.01 -44 1198.5 14 c 0,207,208
 1211.67 33.3338 1211.67 33.3338 1211.67 47.4445 c 0,209,210
 1211.67 75.6671 1211.67 75.6671 1159 83 c 0,211,212
 1127.99 86 1127.99 86 1099 43 c 0,213,214
 1067 -5 l 0,215,216
 1002.99 -102.001 1002.99 -102.001 853 -118.5 c 0,217,218
 703 -135 703 -135 598 -86 c 0,0,1
EndSplineSet
KernsSLIF: 69 52 0 0 101 39 0 0 83 -117 0 0 116 -182 0 0 84 -65 0 0
EndChar
StartChar: T
Encoding: 84 84 83
Width: 1699
Flags: MW
HStem: 1371 258<399 1229>
VStem: 705 217.5<139 1333>
Fore
705 139 m 0,0,1
 725.954 259.212 725.954 259.212 725.928 369.54 c 0,2,3
 725.906 459.29 725.906 459.29 712 542.5 c 0,4,5
 681 728 681 728 631 926 c 0,6,7
 620 965 620 965 632 1042.5 c 0,8,9
 643.026 1113.72 643.026 1113.72 696.275 1114.42 c 0,10,11
 700.974 1114.49 700.974 1114.49 706 1114 c 0,12,13
 697 1114 697 1114 684.5 1091.5 c 0,14,15
 673.19 1071.14 673.19 1071.14 673 1060 c 0,16,17
 675.939 1014.92 675.939 1014.92 711.5 1010 c 0,18,19
 725.288 1011.93 l 0,20,21
 744.108 1020.83 744.108 1020.83 744.233 1066.63 c 0,22,23
 744.248 1072.06 744.248 1072.06 744 1078 c 0,24,25
 743.001 1100.95 743.001 1100.95 742 1158.5 c 0,26,27
 740.999 1216.01 740.999 1216.01 731.5 1272 c 0,28,29
 722.001 1327.99 722.001 1327.99 700.5 1366.5 c 0,30,31
 679 1405.01 679 1405.01 637 1392 c 0,32,33
 622 1387.01 622 1387.01 530 1380 c 0,34,35
 438 1372.99 438 1372.99 399 1371 c 0,36,37
 356.557 1372.66 l 0,38,39
 304.306 1379.74 304.306 1379.74 259.5 1412 c 0,40,41
 218.599 1441.45 218.599 1441.45 218.597 1490.6 c 0,42,43
 218.596 1516.55 218.596 1516.55 230 1548 c 0,44,45
 230 1463.01 230 1463.01 275 1459 c 0,46,47
 301.917 1458.98 l 0,48,49
 336.366 1464.11 336.366 1464.11 336.475 1500.02 c 0,50,51
 336.498 1507.58 336.498 1507.58 335 1516.5 c 0,52,53
 324.001 1582 324.001 1582 287 1594 c 0,54,55
 194 1622 194 1622 138 1627 c 0,56,57
 106.672 1625.72 l 0,58,59
 60.8195 1618.5 60.8195 1618.5 2 1581 c 0,60,61
 24.9947 1632.99 24.9947 1632.99 83 1653.5 c 0,62,63
 133.741 1671.44 133.741 1671.44 175.312 1671.38 c 0,64,65
 181.25 1671.37 181.25 1671.37 187 1671 c 0,66,67
 392.272 1652.98 392.272 1652.98 641 1626.5 c 0,68,69
 817.488 1607.71 817.488 1607.71 957.858 1607.77 c 0,70,71
 1015.48 1607.8 1015.48 1607.8 1067 1611 c 0,72,73
 1160 1615.99 1160 1615.99 1229 1629 c 0,74,75
 1270.13 1636.75 1270.13 1636.75 1317.67 1636.68 c 0,76,77
 1349.86 1636.64 1349.86 1636.64 1385 1633 c 0,78,79
 1485.29 1621 1485.29 1621 1485.65 1571.16 c 0,80,81
 1485.72 1562.86 1485.72 1562.86 1483 1553.5 c 0,82,83
 1467.25 1499.22 1467.25 1499.22 1464 1501 c 0,84,85
 1459.01 1586.99 1459.01 1586.99 1387.5 1573 c 0,86,87
 1316 1559.01 1316 1559.01 1307 1530 c 0,88,89
 1302.26 1515.52 1302.26 1515.52 1302.17 1502.75 c 0,90,91
 1302.07 1489.7 1302.07 1489.7 1306.81 1478.42 c 0,92,93
 1315.06 1458.77 1315.06 1458.77 1338 1444.5 c 0,94,95
 1387.01 1414.01 1387.01 1414.01 1450.5 1414.5 c 0,96,97
 1513.99 1414.99 1513.99 1414.99 1566 1449.5 c 0,98,99
 1608.59 1477.75 1608.59 1477.75 1608.92 1533.85 c 0,100,101
 1608.99 1546.24 1608.99 1546.24 1607 1560 c 0,102,103
 1611.51 1543.45 1611.51 1543.45 1611.5 1523.93 c 0,104,105
 1611.47 1491.55 1611.47 1491.55 1599 1451 c 0,106,107
 1579.01 1386.01 1579.01 1386.01 1484 1358 c 0,108,109
 1393.64 1330.95 1393.64 1330.95 1315.57 1330.98 c 0,110,111
 1249.36 1331 1249.36 1331 1192 1350.5 c 0,112,113
 1067.01 1392.99 1067.01 1392.99 968 1394 c 0,114,115
 923 1394 923 1394 922.5 1333 c 0,116,117
 925.664 1227.25 l 0,118,119
 926.274 1218.14 926.274 1218.14 927 1209 c 0,120,121
 927 1208.01 927 1208.01 936 1130.5 c 0,122,123
 944.999 1053.01 944.999 1053.01 1029 941 c 0,124,125
 1068 889 1068 889 1047 764.5 c 0,126,127
 1026 640 1026 640 928 653 c 0,128,129
 992.426 653 992.426 653 992.628 741.926 c 0,130,131
 992.648 751 992.648 751 992 761 c 0,132,133
 985 869 985 869 935 827 c 0,134,135
 899 797 899 797 892.5 771.5 c 0,136,137
 886 746 886 746 891 671 c 0,138,139
 901.999 494.004 901.999 494.004 941.5 392.5 c 0,140,141
 975.036 306.325 975.036 306.325 975.054 132.577 c 0,142,143
 975.057 101.673 975.057 101.673 974 68 c 0,144,145
 968 -93.9994 968 -93.9994 861 -122 c 0,146,147
 913.644 -62.4528 913.644 -62.4528 913.78 -24.1307 c 0,148,149
 913.801 -18.048 913.801 -18.048 912.5 -12.5 c 0,150,151
 903.001 27.9999 903.001 27.9999 869.5 34.5 c 0,152,153
 836 41 836 41 801.5 11 c 0,154,155
 767 -19 767 -19 779 -94 c 0,156,157
 806 -273 806 -273 858.5 -319.5 c 0,158,159
 911 -366 911 -366 944 -399 c 0,160,161
 801 -369 801 -369 740.5 -184 c 0,162,163
 697.607 -52.8381 697.607 -52.8381 697.69 54.6971 c 0,164,165
 697.724 98.8389 697.724 98.8389 705 139 c 0,0,1
EndSplineSet
KernsSLIF: 322 -391 0 0 321 -469 0 0 85 -117 0 0 117 -143 0 0 104 -234 0 0 72 -156 0 0 45 -300 0 0 46 -260 0 0 44 -260 0 0 243 -300 0 0 211 -208 0 0 115 -286 0 0 83 -260 0 0 111 -208 0 0 79 -143 0 0 65 -512 0 0 97 -512 0 0
EndChar
StartChar: U
Encoding: 85 85 68
Width: 1411
Flags: W
Fore
46 241 m 0,0,1
 -23 339 -23 339 50.5 416.5 c 0,2,3
 124 494 124 494 164 494 c 0,4,5
 118.001 458.001 118.001 458.001 103.5 368.5 c 0,6,7
 88.9999 279 88.9999 279 192 310 c 0,8,9
 222 319 222 319 232 422 c 0,10,11
 237.34 477.005 237.34 477.005 237.262 527.732 c 0,12,13
 237.194 571.994 237.194 571.994 233 613 c 0,14,15
 224 705 224 705 177.5 757 c 0,16,17
 164.022 772.073 164.022 772.073 155.879 772.61 c 0,18,19
 149.279 769.765 l 0,20,21
 143.401 762.964 143.401 762.964 143.449 740.018 c 0,22,23
 148 688 l 0,24,25
 64 754 64 754 96 903 c 0,26,27
 119.323 1011.6 119.323 1011.6 119.273 1144.11 c 0,28,29
 119.254 1193.4 119.254 1193.4 116 1246 c 0,30,31
 113.225 1341.01 l 0,32,33
 115.265 1478.14 115.265 1478.14 156 1561.5 c 0,34,35
 209.993 1671.99 209.993 1671.99 280 1722.5 c 0,36,37
 350 1773.01 350 1773.01 410 1781 c 0,38,39
 469.016 1789 l 0,40,41
 469 1789 l 0,42,43
 388 1774 388 1774 314.5 1694.5 c 0,44,45
 240.996 1615 240.996 1615 209 1527 c 0,46,47
 191.706 1479.44 191.706 1479.44 191.644 1438.16 c 0,48,49
 191.592 1403.06 191.592 1403.06 204 1372.5 c 0,50,51
 226.472 1317.16 226.472 1317.16 314.735 1316.87 c 0,52,53
 332.531 1316.82 332.531 1316.82 353 1319 c 0,54,55
 435 1328 435 1328 409.5 1419.5 c 0,56,57
 386.796 1500.97 386.796 1500.97 317.708 1501.18 c 0,58,59
 309.205 1501.2 309.205 1501.2 300 1500 c 0,60,61
 328.11 1504.8 328.11 1504.8 351.378 1504.8 c 0,62,63
 458.89 1504.76 458.89 1504.76 463 1402 c 0,64,65
 468 1277.01 468 1277.01 444 1246 c 0,66,67
 350.001 1126 350.001 1126 344.5 922 c 0,68,69
 339 718 339 718 348 571 c 0,70,71
 354 470.999 354 470.999 395.5 365 c 0,72,73
 437 259 437 259 527 295 c 0,74,75
 563 309.063 563 309.063 562.93 332.617 c 0,76,77
 562.875 350.937 562.875 350.937 541 375 c 0,78,79
 491 430 491 430 466 364 c 0,80,81
 451 427 451 427 493.5 441.5 c 0,82,83
 536 456 536 456 560 449 c 0,84,85
 659 416 659 416 654 337 c 0,86,87
 649.001 258.004 649.001 258.004 643 233 c 0,88,89
 640.623 210.278 l 0,90,91
 643.022 170.739 643.022 170.739 693.5 141 c 0,92,93
 710.928 130.733 710.928 130.733 732.042 130.759 c 0,94,95
 789.073 130.83 789.073 130.83 873 206 c 0,96,97
 891 222.001 891 222.001 931 287.5 c 0,98,99
 970.999 352.998 970.999 352.998 997.5 431 c 0,100,101
 1024.01 509 1024.01 509 1017 580 c 0,102,103
 1009.99 651.002 1009.99 651.002 934 679 c 0,104,105
 883 697 883 697 885.5 635.5 c 0,106,107
 888 574 888 574 932 546 c 0,108,109
 829 595 829 595 823 689 c 0,110,111
 817 783 817 783 850.5 898.5 c 0,112,113
 884.003 1014.01 884.003 1014.01 929.5 1137.5 c 0,114,115
 975 1261 975 1261 975 1369 c 0,116,117
 975 1384.99 975 1384.99 996.5 1507.5 c 0,118,119
 1014.74 1611.48 1014.74 1611.48 1106.84 1612.07 c 0,120,121
 1142 1609 l 0,122,123
 1114 1609 1114 1609 1084 1578 c 0,124,125
 1065.83 1559.22 1065.83 1559.22 1065.63 1537.15 c 0,126,127
 1065.54 1526.11 1065.54 1526.11 1069.93 1514.25 c 0,128,129
 1071.26 1510.66 1071.26 1510.66 1073 1507 c 0,130,131
 1097.08 1458.24 1097.08 1458.24 1127.69 1458.04 c 0,132,133
 1143.25 1457.94 1143.25 1457.94 1160.49 1470.39 c 0,134,135
 1165.67 1474.13 1165.67 1474.13 1171 1479 c 0,136,137
 1199.69 1504.1 1199.69 1504.1 1199.8 1560.46 c 0,138,139
 1199.87 1598.4 1199.87 1598.4 1187 1650.5 c 0,140,141
 1160.61 1757.3 1160.61 1757.3 1045.79 1757.66 c 0,142,143
 1021.39 1757.73 1021.39 1757.73 993 1753 c 0,144,145
 1034.65 1774 1034.65 1774 1074.09 1774.11 c 0,146,147
 1108.32 1774.21 1108.32 1774.21 1140.89 1758.58 c 0,148,149
 1178.03 1740.77 1178.03 1740.77 1213 1702.5 c 0,150,151
 1266.02 1644.49 1266.02 1644.49 1266.13 1556.31 c 0,152,153
 1266.23 1476.51 1266.23 1476.51 1223 1372 c 0,154,155
 1187.02 1285.05 1187.02 1285.05 1145.5 1165.5 c 0,156,157
 1104 1046.01 1104 1046.01 1101 977 c 0,158,159
 1102.08 933.908 l 0,160,161
 1108.46 884.297 1108.46 884.297 1140.5 864.5 c 0,162,163
 1185.01 837 1185.01 837 1224.5 853.5 c 0,164,165
 1264.01 870.005 1264.01 870.005 1270.5 923 c 0,166,167
 1269.24 946.944 l 0,168,169
 1259.55 992.592 1259.55 992.592 1196 1053 c 0,170,171
 1338.99 1039.01 1338.99 1039.01 1341.5 918 c 0,172,173
 1338.83 854.387 l 0,174,175
 1329.25 760.063 1329.25 760.063 1286.5 653 c 0,176,177
 1229.01 509 1229.01 509 1151.5 384.5 c 0,178,179
 1073.98 259.972 1073.98 259.972 1059 241 c 0,180,181
 1020.99 192.985 1020.99 192.985 991 128 c 0,182,183
 961 63.0001 961 63.0001 1048 81 c 0,184,185
 1093 90 1093 90 1088.5 126 c 0,186,187
 1084 161.999 1084 161.999 1069 208 c 0,188,189
 1143.1 168.331 1143.1 168.331 1143.53 96.7311 c 0,190,191
 1139.54 60.7425 l 0,192,193
 1137.87 53.0215 1137.87 53.0215 1135.5 45 c 0,194,195
 1102.99 -65.0001 1102.99 -65.0001 1012 -66 c 0,196,197
 578 -72 578 -72 336.5 49.5 c 0,198,199
 94.9995 171 94.9995 171 46 241 c 0,0,1
EndSplineSet
KernsSLIF: 116 -78 0 0 84 -65 0 0 88 -130 0 0
EndChar
StartChar: V
Encoding: 86 86 69
Width: 1266
Flags: W
Fore
346 1049 m 1,0,1
 445 1021 445 1021 449 940.5 c 0,2,3
 450.299 842.065 l 0,4,5
 449.624 820.845 449.624 820.845 448 802 c 0,6,7
 442 735 442 735 432.5 682.5 c 0,8,9
 431.139 654.738 l 0,10,11
 434.544 623.651 434.544 623.651 463 608 c 0,12,13
 498 588 498 588 514.5 635 c 0,14,15
 531 682 531 682 536 749 c 0,16,17
 540.231 805.7 540.231 805.7 540.166 859.521 c 0,18,19
 540.154 869.308 540.154 869.308 540 879 c 0,20,21
 539 942 539 942 539 954 c 0,22,23
 539 1034.01 539 1034.01 544.5 1098.5 c 0,24,25
 550 1163 550 1163 574 1239 c 0,26,27
 590.997 1292.99 590.997 1292.99 629.5 1337.5 c 0,28,29
 667.985 1381.99 667.985 1381.99 699 1398 c 0,30,31
 713.755 1401.18 l 0,32,33
 723.716 1400.86 723.716 1400.86 734 1394 c 0,34,35
 752 1382 752 1382 752 1369 c 0,36,37
 698 1397.99 698 1397.99 700 1322.5 c 0,38,39
 702 1247 702 1247 733 1247 c 0,40,41
 765.998 1247 765.998 1247 779.5 1279 c 0,42,43
 793 1310.99 793 1310.99 793 1337 c 0,44,45
 793 1433 793 1433 808.5 1505 c 0,46,47
 823.997 1576.99 823.997 1576.99 850 1667 c 0,48,49
 857.997 1696.99 857.997 1696.99 884.5 1729.5 c 0,50,51
 911.003 1762.01 911.003 1762.01 927 1776 c 0,52,53
 956 1801.01 956 1801.01 1012.5 1800 c 0,54,55
 1069 1798.99 1069 1798.99 1076 1765 c 0,56,57
 1057.04 1782.69 1057.04 1782.69 1033.2 1782.91 c 0,58,59
 1009.58 1779.2 l 0,60,61
 986.018 1771.95 986.018 1771.95 958.5 1750.5 c 0,62,63
 915 1716.6 915 1716.6 914.88 1673.88 c 0,64,65
 914.8 1645.4 914.8 1645.4 934 1613 c 0,66,67
 951.778 1582.33 951.778 1582.33 978.643 1582.38 c 0,68,69
 1012.23 1582.44 1012.23 1582.44 1060 1630.5 c 0,70,71
 1146 1717.01 1146 1717.01 1158 1756 c 0,72,73
 1179.24 1823.78 1179.24 1823.78 1179.24 1871.65 c 0,74,75
 1179.24 1929.72 1179.24 1929.72 1148 1958.5 c 0,76,77
 1091 2011 1091 2011 1074 2028 c 0,78,79
 1142.02 1994.99 1142.02 1994.99 1174 1955 c 0,80,81
 1206 1914.99 1206 1914.99 1206 1828 c 0,82,83
 1206 1746.01 1206 1746.01 1164 1676 c 0,84,85
 1122 1605.99 1122 1605.99 1076 1552 c 0,86,87
 964.997 1423 964.997 1423 911 1267.5 c 0,88,89
 857 1111.99 857 1111.99 854 945 c 0,90,91
 853 915 853 915 856 832 c 0,92,93
 859 749 859 749 852.5 655 c 0,94,95
 846.001 561.005 846.001 561.005 824.5 478 c 0,96,97
 803 395 803 395 754 365 c 0,98,99
 793 446 793 446 792.5 514 c 0,100,101
 792 582 792 582 750 613 c 0,102,103
 675 665 675 665 637 563 c 0,104,105
 599 461 599 461 589 409 c 0,106,107
 571 325 571 325 559 244.5 c 0,108,109
 547 163.999 547 163.999 642 168 c 0,110,111
 651 168 651 168 666 188.5 c 0,112,113
 681 209.001 681 209.001 675 238 c 0,114,115
 666 281 666 281 604 292 c 0,116,117
 629.82 313.633 629.82 313.633 653.449 313.839 c 0,118,119
 663.68 313.928 663.68 313.928 673.5 310 c 0,120,121
 706.001 296.999 706.001 296.999 724 266 c 0,122,123
 744.16 227.514 744.16 227.514 744.167 188.094 c 0,124,125
 744.171 162.987 744.171 162.987 736 137.5 c 0,126,127
 715 71.9999 715 71.9999 681 52 c 0,128,-1
 575 -7.5 l 0,129,130
 530 -32 530 -32 530 -128 c 0,131,132
 530 -264.001 530 -264.001 624.5 -318.5 c 0,133,134
 719 -373 719 -373 839 -367 c 0,135,136
 744 -397 744 -397 654.5 -374.5 c 0,137,138
 565 -352 565 -352 530 -313 c 0,139,140
 412 -179.999 412 -179.999 410.5 -4 c 0,141,142
 409 171.999 409 171.999 320 295 c 0,143,144
 304 316 304 316 265 333 c 0,145,146
 226 350 226 350 211 297 c 0,147,148
 185.001 208.001 185.001 208.001 274 186 c 0,149,150
 239.736 185.285 l 0,151,152
 218.405 187.152 218.405 187.152 195 194.5 c 0,153,154
 152.001 208 152.001 208 124 277 c 0,155,156
 106.733 319 106.733 319 106.78 364.267 c 0,157,158
 106.834 416 106.834 416 129.5 472 c 0,159,160
 172 577.001 172 577.001 172 669 c 0,161,162
 172 813.002 172 813.002 124.5 942.5 c 0,163,164
 76.9999 1071.99 76.9999 1071.99 48 1208 c 0,165,166
 39 1248.01 39 1248.01 22.5 1335.5 c 0,167,168
 8.49056 1409.79 8.49056 1409.79 8.53863 1491.66 c 0,169,170
 8.54717 1506.21 8.54717 1506.21 9 1521 c 0,171,172
 10.9999 1588.01 10.9999 1588.01 45 1680 c 0,173,174
 79.004 1772.01 79.004 1772.01 133 1780 c 0,175,176
 110.001 1747 110.001 1747 92.5 1700.5 c 0,177,178
 78.865 1664.27 78.865 1664.27 78.8889 1635.02 c 0,179,180
 78.8957 1626.73 78.8957 1626.73 80 1619 c 0,181,182
 92.9678 1535.64 92.9678 1535.64 186.577 1535.49 c 0,183,184
 194.034 1535.48 194.034 1535.48 202 1536 c 0,185,186
 257 1539 257 1539 266 1632.5 c 0,187,188
 270.261 1713.86 l 0,189,190
 270.153 1752.18 270.153 1752.18 265 1780 c 0,191,192
 258 1814.01 258 1814.01 223 1843 c 0,193,194
 187.993 1872 187.993 1872 152 1878 c 0,195,196
 193.862 1879.28 l 0,197,198
 284.127 1872.85 284.127 1872.85 312.5 1779.5 c 0,199,200
 347 1665.99 347 1665.99 338 1592 c 0,201,202
 329.999 1541.99 329.999 1541.99 303.5 1446 c 0,203,204
 277.002 1350.01 277.002 1350.01 267 1293 c 0,205,206
 263.07 1274.13 263.07 1274.13 263.156 1218.51 c 0,207,208
 263.179 1203.37 263.179 1203.37 263.5 1185.5 c 0,209,210
 265 1102.01 265 1102.01 276 1018.5 c 0,211,212
 286.999 935.003 286.999 935.003 310 881 c 0,213,214
 333 827 333 827 372 863 c 0,215,216
 415 902 415 902 399 960.5 c 0,217,218
 382.999 1019 382.999 1019 346 1049 c 1,0,1
EndSplineSet
KernsSLIF: 214 -193 0 0 246 -224 0 0 111 -195 0 0 79 -156 0 0 45 -208 0 0 46 -247 0 0 44 -247 0 0 73 -104 0 0 105 -182 0 0 97 -321 0 0 65 -270 0 0
EndChar
StartChar: W
Encoding: 87 87 11
Width: 2018
Flags: HW
Fore
1198 -258 m 0,0,1
 1141 -241.001 1141 -241.001 1105 -191 c 0,2,3
 1068.99 -140.988 1068.99 -140.988 1055 -100 c 0,4,5
 1028 -25 1028 -25 1011.5 75 c 0,6,7
 995 175 995 175 962 235 c 0,8,9
 914 318 914 318 882 324 c 0,10,11
 850 330 850 330 808 271 c 0,12,13
 777.835 228.58 777.835 228.58 777.883 126.621 c 0,14,15
 777.885 120.42 777.885 120.42 778 114 c 0,16,17
 780 1.99995 780 1.99995 814 -37 c 0,18,19
 839 -67 839 -67 899 -79 c 0,20,21
 848.175 -107.756 848.175 -107.756 793.772 -107.666 c 0,22,23
 766.825 -107.622 766.825 -107.622 739 -100.5 c 0,24,25
 655 -79.0001 655 -79.0001 620 -45 c 0,26,27
 586 -12 586 -12 561.5 25.5 c 0,28,29
 537 63 537 63 513 105 c 0,30,31
 485.998 152.002 485.998 152.002 472.5 171.5 c 0,32,33
 459 190.999 459 190.999 402 210 c 0,34,35
 384.54 209.64 l 0,36,37
 369.5 205 l 0,38,39
 349.001 197.001 349.001 197.001 345 185 c 0,40,41
 321 119 321 119 383 104 c 0,42,43
 344 84.9999 344 84.9999 314 110 c 0,44,45
 284 135.001 284 135.001 281 163 c 0,46,47
 273.557 211.38 273.557 211.38 273.604 252.976 c 0,48,49
 273.646 289.62 273.646 289.62 279.5 321 c 0,50,51
 292 388 292 388 314 462 c 0,52,53
 357.094 610.435 357.094 610.435 357.085 756.122 c 0,54,55
 357.085 762.561 357.085 762.561 357 769 c 0,56,57
 355 920.999 355 920.999 289 1064 c 0,58,59
 254.025 1136.95 254.025 1136.95 214 1204 c 0,60,61
 174 1271 174 1271 171 1359 c 0,62,63
 171.789 1419.71 l 0,64,65
 181.716 1538.68 181.716 1538.68 263 1546 c 0,66,67
 291.179 1544.62 l 0,68,69
 330 1536.43 330 1536.43 330 1490 c 0,70,71
 306 1512.01 306 1512.01 271.5 1497.5 c 0,72,73
 249.617 1488.3 249.617 1488.3 249.661 1455.57 c 0,74,75
 249.686 1436.7 249.686 1436.7 257 1410 c 0,76,77
 266.64 1374.41 266.64 1374.41 302.395 1374 c 0,78,79
 330.5 1378 l 0,80,81
 391 1394.01 391 1394.01 391 1442 c 0,82,83
 389.999 1546 389.999 1546 327 1586.5 c 0,84,85
 264 1627 264 1627 190 1627 c 0,86,87
 89.9968 1627 89.9968 1627 57 1575 c 0,88,89
 24 1522.99 24 1522.99 9 1497 c 0,90,91
 19 1585.99 19 1585.99 67 1623 c 0,92,93
 114.993 1660 114.993 1660 196 1666 c 0,94,95
 240.049 1665.23 l 0,96,97
 302.45 1658.55 302.45 1658.55 356 1619.5 c 0,98,99
 428 1567 428 1567 456 1513 c 0,100,101
 534 1360 534 1360 502 1271.5 c 0,102,103
 470 1183 470 1183 460 1017 c 0,104,105
 457 966 457 966 456 896.5 c 0,106,107
 455 827 455 827 489 788 c 0,108,109
 521 752 521 752 541.5 763.5 c 0,110,111
 560.877 774.37 560.877 774.37 561 800 c 0,112,113
 559.001 821.999 559.001 821.999 553.5 841 c 0,114,115
 548 860 548 860 494 864 c 0,116,117
 527.206 880.794 527.206 880.794 554.148 880.98 c 0,118,119
 568.225 881.078 568.225 881.078 580.592 876.641 c 0,120,121
 606.569 867.323 606.569 867.323 625 838 c 0,122,123
 648.561 798.453 648.561 798.453 648.756 767.399 c 0,124,125
 648.793 761.549 648.793 761.549 648 756 c 0,126,127
 643 721 643 721 637 688 c 0,128,129
 618 590 618 590 617.5 538 c 0,130,131
 617 486 617 486 659 456 c 0,132,133
 686 435 686 435 741 542.5 c 0,134,135
 796 650 796 650 820 704 c 0,136,137
 846 761 846 761 873 797.5 c 0,138,139
 900 834 900 834 984 873 c 0,140,141
 934 801 934 801 920.5 759 c 0,142,143
 907 717 907 717 919 639 c 0,144,145
 925 592.001 925 592.001 942 552.5 c 0,146,147
 959 513 959 513 999 509 c 0,148,149
 1027.6 508.97 l 0,150,151
 1090.09 517.856 1090.09 517.856 1127 608.5 c 0,152,153
 1172 719 1172 719 1178 779 c 0,154,155
 1179.01 791 1179.01 791 1199 889 c 0,156,157
 1218.99 987 1218.99 987 1175 987 c 0,158,159
 1148 987 1148 987 1139 958.5 c 0,160,161
 1130 930 1130 930 1151 911 c 0,162,163
 1104.99 919 1104.99 919 1104.5 966 c 0,164,165
 1104.01 1013 1104.01 1013 1115 1031 c 0,166,167
 1151 1088 1151 1088 1203 1129.5 c 0,168,169
 1255.02 1171.01 1255.02 1171.01 1287 1210 c 0,170,171
 1335 1270 1335 1270 1348.5 1294 c 0,172,173
 1362 1318 1362 1318 1383 1381 c 0,174,175
 1399.89 1431.69 1399.89 1431.69 1439.5 1540 c 0,176,177
 1478.99 1647.99 1478.99 1647.99 1529 1698 c 0,178,179
 1572.99 1741.99 1572.99 1741.99 1607 1759.5 c 0,180,181
 1627.24 1769.92 1627.24 1769.92 1653.15 1769.88 c 0,182,183
 1670.76 1769.86 1670.76 1769.86 1691 1765 c 0,184,-1
 1607 1716.5 l 0,185,186
 1567 1694 1567 1694 1543 1631 c 0,187,188
 1528.58 1595.35 1528.58 1595.35 1528.56 1547.03 c 0,189,190
 1528.55 1531.66 1528.55 1531.66 1530 1515 c 0,191,192
 1536 1446 1536 1446 1594 1440 c 0,193,194
 1663 1432.01 1663 1432.01 1721.5 1474.5 c 0,195,196
 1779.99 1516.99 1779.99 1516.99 1808 1580 c 0,197,198
 1825.98 1621.95 1825.98 1621.95 1847.5 1662.5 c 0,199,200
 1868.99 1703 1868.99 1703 1864 1805 c 0,201,202
 1858 1913 1858 1913 1703 1994 c 0,203,204
 1884.99 1955 1884.99 1955 1910 1785 c 0,205,206
 1914.52 1754.1 1914.52 1754.1 1914.43 1721.43 c 0,207,208
 1914.28 1667.39 1914.28 1667.39 1901.5 1608.5 c 0,209,210
 1881 1514.01 1881 1514.01 1819 1444 c 0,211,212
 1731 1344 1731 1344 1622 1262 c 0,213,214
 1579.99 1230 1579.99 1230 1512 1140.5 c 0,215,216
 1444.01 1050.99 1444.01 1050.99 1491 995 c 0,217,218
 1503 980 1503 980 1533 987 c 0,219,220
 1562.99 993.999 1562.99 993.999 1570 1021 c 0,221,222
 1575.85 1043.49 1575.85 1043.49 1575.93 1057.9 c 0,223,224
 1576.02 1075.5 1576.02 1075.5 1567.5 1081 c 0,225,-1
 1530 1106 l 0,226,227
 1561.81 1109.98 l 0,228,229
 1606.38 1109.6 1606.38 1109.6 1617 1067.5 c 0,230,231
 1624.51 1037.74 1624.51 1037.74 1624.54 1010.13 c 0,232,233
 1624.56 986.259 1624.56 986.259 1619 964 c 0,234,235
 1601 892 1601 892 1535 861 c 0,236,237
 1469.01 830.005 1469.01 830.005 1417 786 c 0,238,239
 1355.99 735 1355.99 735 1307.5 681 c 0,240,241
 1259 626.993 1259 626.993 1247 548 c 0,242,243
 1240.43 507.416 1240.43 507.416 1240.43 473.856 c 0,244,245
 1240.44 420.581 1240.44 420.581 1257 385 c 0,246,-1
 1322 239 l 0,247,248
 1349.01 173.984 1349.01 173.984 1357 99.5 c 0,249,250
 1356.76 63.9884 l 0,251,252
 1349.8 2.65468 1349.8 2.65468 1299 -72 c 0,253,254
 1299 -39.0261 1299 -39.0261 1313 33 c 0,255,256
 1326.99 105 1326.99 105 1259 147 c 0,257,258
 1243.74 155.902 1243.74 155.902 1229.44 156.01 c 0,259,260
 1217.62 156.1 1217.62 156.1 1206.45 150.18 c 0,261,262
 1188.64 140.736 1188.64 140.736 1172.5 116 c 0,263,264
 1134 57.0082 1134 57.0082 1131 -57 c 0,265,266
 1133.57 -92.4594 l 0,267,268
 1139.35 -124.071 1139.35 -124.071 1157.5 -157.5 c 0,269,270
 1186 -210.003 1186 -210.003 1232 -232 c 0,271,272
 1277 -253.001 1277 -253.001 1373 -255 c 0,273,274
 1341.01 -271 1341.01 -271 1289 -270 c 0,275,276
 1237 -269 1237 -269 1198 -258 c 0,0,1
EndSplineSet
KernsSLIF: 214 -180 0 0 246 -212 0 0 322 -469 0 0 321 -508 0 0 72 -260 0 0 104 -300 0 0 45 -234 0 0 46 -326 0 0 44 -364 0 0 115 -326 0 0 83 -260 0 0 105 -182 0 0 73 -91 0 0 243 -313 0 0 211 -365 0 0 111 -273 0 0 79 -221 0 0 196 -313 0 0 228 -270 0 0 261 -342 0 0 260 -342 0 0 97 -449 0 0 65 -398 0 0
EndChar
StartChar: X
Encoding: 88 88 29
Width: 1415
Flags: HW
Fore
760 1490 m 0,0,1
 714 1479.88 714 1479.88 713.706 1446.06 c 0,2,3
 714 1440 l 0,4,5
 718 1402.01 718 1402.01 718 1401 c 0,6,7
 668 1425 668 1425 677 1494 c 0,8,9
 684.998 1557.99 684.998 1557.99 760 1577 c 0,10,11
 801.957 1587.98 801.957 1587.98 857.5 1609 c 0,12,13
 913 1630 913 1630 949 1654 c 0,14,15
 964.003 1663 964.003 1663 980 1697 c 0,16,17
 995.999 1731 995.999 1731 1000 1751 c 0,18,19
 1004.07 1771.56 1004.07 1771.56 1004.04 1788.43 c 0,20,21
 1003.92 1854.44 1003.92 1854.44 941 1864 c 0,22,23
 966.36 1866.94 l 0,24,25
 988.032 1865.85 988.032 1865.85 1004.5 1851 c 0,26,27
 1030 1828.01 1030 1828.01 1030 1798 c 0,28,29
 1030 1772.94 1030 1772.94 1023 1683.5 c 0,30,31
 1021.96 1629.04 l 0,32,33
 1024.61 1594 1024.61 1594 1039 1594 c 0,34,35
 1071 1594 1071 1594 1092 1637 c 0,36,37
 1115.99 1692.98 1115.99 1692.98 1117 1744.5 c 0,38,39
 1118.01 1796.02 1118.01 1796.02 1140 1845 c 0,40,41
 1161.01 1890.01 1161.01 1890.01 1202.5 1920.5 c 0,42,43
 1237.05 1945.88 1237.05 1945.88 1267.77 1945.99 c 0,44,45
 1273.96 1946.01 1273.96 1946.01 1280 1945 c 0,46,47
 1246.99 1934 1246.99 1934 1221 1903 c 0,48,49
 1195 1871.99 1195 1871.99 1195 1851 c 0,50,51
 1195 1802 1195 1802 1249 1802 c 0,52,53
 1272 1802 1272 1802 1280.5 1824 c 0,54,55
 1285.39 1836.65 1285.39 1836.65 1285.48 1847.98 c 0,56,57
 1285.55 1856.35 1285.55 1856.35 1283 1864 c 0,58,59
 1322 1859.99 1322 1859.99 1322 1811.5 c 0,60,61
 1322 1762.99 1322 1762.99 1310 1743 c 0,62,63
 1292 1713 1292 1713 1253 1672.5 c 0,64,65
 1213.92 1631.92 1213.92 1631.92 1189 1609 c 0,66,-1
 1070 1500 l 0,67,68
 975.004 1414 975.004 1414 945 1346 c 0,69,70
 928.994 1309.99 928.994 1309.99 891 1189 c 0,71,72
 874.988 1138.01 874.988 1138.01 874.956 1101.76 c 0,73,74
 874.912 1051.98 874.912 1051.98 905 1030 c 0,75,76
 919.654 1018.16 919.654 1018.16 935.262 1018.24 c 0,77,78
 947.346 1018.3 947.346 1018.3 960 1025.5 c 0,79,80
 989.007 1042 989.007 1042 1001 1058 c 0,81,82
 1029.99 1095.99 1029.99 1095.99 999.5 1122.5 c 0,83,84
 969 1149.01 969 1149.01 947 1151 c 0,85,86
 966.65 1157.25 966.65 1157.25 984.599 1157.22 c 0,87,88
 1006.85 1157.19 1006.85 1157.19 1026.5 1147.5 c 0,89,90
 1062 1130 1062 1130 1068 1110 c 0,91,92
 1076.18 1081.05 1076.18 1081.05 1076.24 1057.88 c 0,93,94
 1076.34 1019.14 1076.34 1019.14 1053.71 996.609 c 0,95,96
 1046.89 989.817 1046.89 989.817 1038 984.5 c 0,97,98
 981.995 950.994 981.995 950.994 928 898 c 0,99,100
 874 844 874 844 871.5 803 c 0,101,102
 869 762 869 762 875 720 c 0,103,104
 884 659 884 659 935 574.5 c 0,105,106
 986.02 489.967 986.02 489.967 1051.5 404.5 c 0,107,-1
 1181 243 l 0,108,-1
 1280 125 l 0,109,110
 1306.99 91.0083 1306.99 91.0083 1326 11.5 c 0,111,112
 1345.01 -68 1345.01 -68 1302 -109 c 0,113,114
 1315.29 -83.1647 1315.29 -83.1647 1315.22 -54.808 c 0,115,116
 1315.11 -6.33775 1315.11 -6.33775 1276 49.5 c 0,117,118
 1214.01 137.998 1214.01 137.998 1155 149 c 0,119,120
 1125.06 150.232 l 0,121,122
 1088.17 146.304 1088.17 146.304 1077.5 111 c 0,123,124
 1070.42 87.5735 1070.42 87.5735 1070.37 67.0018 c 0,125,126
 1070.32 45.43 1070.32 45.43 1078 27 c 0,127,128
 1121.01 -73 1121.01 -73 1192 -106.5 c 0,129,130
 1263 -140 1263 -140 1331 -140.5 c 0,131,132
 1395.74 -137.331 l 0,133,134
 1424.13 -134.077 1424.13 -134.077 1448 -127.5 c 0,135,136
 1479 -118.959 1479 -118.959 1490.39 -119.024 c 0,137,138
 1497 -119.061 1497 -119.061 1497 -122 c 0,139,140
 1387.98 -157.22 1387.98 -157.22 1301.63 -157.28 c 0,141,142
 1233.52 -157.327 1233.52 -157.327 1179.5 -135.5 c 0,143,144
 1057 -86.0024 1057 -86.0024 1009 38 c 0,145,146
 980.998 110.003 980.998 110.003 940 229.5 c 0,147,148
 899 349 899 349 868 352 c 0,149,150
 804 358 804 358 804 299 c 0,151,152
 804 263 804 263 821.5 256.5 c 0,153,154
 833.616 252 833.616 252 844.533 252.053 c 0,155,156
 849.385 252.077 849.385 252.077 854 253 c 0,157,158
 835.564 229.6 835.564 229.6 815.619 229.581 c 0,159,160
 807.436 229.573 807.436 229.573 799 233.5 c 0,161,162
 770 247.001 770 247.001 758 272 c 0,163,164
 731.999 325.002 731.999 325.002 727 386 c 0,165,166
 722 447 722 447 722 518 c 0,167,168
 722 542 722 542 711 588.5 c 0,169,170
 700 635 700 635 667 639 c 0,171,172
 590 648 590 648 536.5 513 c 0,173,174
 499.347 419.251 499.347 419.251 499.087 386.264 c 0,175,176
 498.992 374.272 498.992 374.272 506 369 c 0,177,178
 527 361 527 361 548 384 c 0,179,180
 572 408 572 408 537 446 c 0,181,182
 558 446 558 446 574.5 422.5 c 0,183,184
 591 399 591 399 591 378 c 0,185,186
 591 338 591 338 558.5 289 c 0,187,188
 526 240 526 240 485 229 c 0,189,190
 431 215.001 431 215.001 385 185.5 c 0,191,192
 339 155.999 339 155.999 327 100 c 0,193,194
 313.005 37.0199 313.005 37.0199 297.5 -20 c 0,195,196
 282 -77 282 -77 255 -114 c 0,197,198
 243 -129 243 -129 201.5 -141 c 0,199,200
 179.007 -147.504 179.007 -147.504 161.656 -147.545 c 0,201,202
 146.992 -147.58 146.992 -147.58 136 -143 c 0,203,204
 195 -134 195 -134 224 -81 c 0,205,206
 242.001 -46.999 242.001 -46.999 242.5 20 c 0,207,208
 242.999 87.0001 242.999 87.0001 187 87 c 0,209,210
 124 87 124 87 90 12.5 c 0,211,212
 55.9999 -62 55.9999 -62 56 -116 c 0,213,214
 56 -207.001 56 -207.001 149 -254 c 0,215,216
 80 -254 80 -254 48.5 -209 c 0,217,218
 17 -164 17 -164 14 -116 c 0,219,220
 3 2.00005 3 2.00005 77 106 c 0,221,222
 112.997 157.997 112.997 157.997 232 284 c 0,223,224
 351 410 351 410 349 463 c 0,225,226
 347 495 347 495 306 495 c 0,227,228
 284.978 495 284.978 495 284.5 472.5 c 0,229,230
 284.999 450.002 284.999 450.002 293 440 c 0,231,232
 269 433 269 433 245.5 460 c 0,233,234
 221.999 487 221.999 487 247 535 c 0,235,236
 267 574 267 574 325.5 608 c 0,237,238
 384.003 642.002 384.003 642.002 417 673 c 0,239,240
 450.002 704.002 450.002 704.002 490.5 765 c 0,241,242
 531 826 531 826 531 877 c 0,243,244
 531 910 531 910 503 924 c 0,245,246
 475 938 475 938 448 938 c 0,247,248
 379.456 935.397 379.456 935.397 378.665 895.53 c 0,249,250
 380 882.5 l 0,251,252
 391 830 391 830 421 830 c 0,253,254
 369 821 369 821 328 845 c 0,255,256
 287 869 287 869 287 926 c 0,257,258
 287 970 287 970 312 1017.5 c 0,259,260
 337.001 1065.01 337.001 1065.01 347 1104 c 0,261,262
 355 1140 355 1140 355.5 1190 c 0,263,264
 356 1239.99 356 1239.99 344 1274 c 0,265,266
 319.003 1339.99 319.003 1339.99 266 1395 c 0,267,268
 213 1450.01 213 1450.01 213 1535 c 0,269,270
 213 1557.99 213 1557.99 237.5 1602.5 c 0,271,272
 261.997 1647 261.997 1647 302 1647 c 0,273,274
 263 1609.99 263 1609.99 263 1559 c 0,275,276
 263 1544.99 263 1544.99 276 1522 c 0,277,278
 289.003 1499 289.003 1499 310 1499 c 0,279,280
 374 1499 374 1499 374 1562 c 0,281,282
 374 1752.53 374 1752.53 219.724 1752.48 c 0,283,284
 212.053 1752.47 212.053 1752.47 204 1752 c 0,285,286
 247.833 1765.11 247.833 1765.11 282.611 1765.1 c 0,287,288
 340.669 1765.08 340.669 1765.08 373.5 1728.5 c 0,289,290
 426.001 1670 426.001 1670 448 1582 c 0,291,292
 466 1505.99 466 1505.99 475.5 1424.5 c 0,293,294
 485.001 1342.99 485.001 1342.99 506 1269 c 0,295,296
 515.003 1235.99 515.003 1235.99 552 1178.5 c 0,297,298
 581.04 1133.37 581.04 1133.37 613.156 1132.9 c 0,299,300
 631 1136 l 0,301,302
 680.005 1152.01 680.005 1152.01 722.5 1212 c 0,303,304
 765 1272 765 1272 783 1320 c 0,305,306
 789 1336.01 789 1336.01 801.5 1419 c 0,307,308
 803.564 1454.98 l 0,309,310
 800.907 1490.88 800.907 1490.88 773.555 1491.5 c 0,311,312
 760 1490 l 0,0,1
EndSplineSet
KernsSLIF: 45 -208 0 0
EndChar
StartChar: Y
Encoding: 89 89 17
Width: 1321
Flags: MW
VStem: 406 327<-12 893>
Fore
587 -427 m 1,0,1
 650 -373 650 -373 691.5 -193 c 0,2,3
 733 -13 733 -13 673 39 c 0,4,5
 647 61 647 61 574 65.5 c 0,6,7
 501 70 501 70 520 10 c 0,8,9
 531 -25 531 -25 563.5 -31 c 0,10,11
 591.368 -32.2583 l 0,12,13
 609.425 -30.504 609.425 -30.504 627 -22 c 0,14,15
 627 -68 627 -68 526 -76 c 0,16,17
 425 -83.9999 425 -83.9999 406 -12 c 0,18,19
 398.427 14.7027 398.427 14.7027 398.479 42.0412 c 0,20,21
 398.558 83.2966 398.558 83.2966 416 126 c 0,22,23
 445 197.002 445 197.002 469 265 c 0,24,25
 474.004 280.013 474.004 280.013 489.5 337.5 c 0,26,27
 505 395.003 505 395.003 515.5 458.5 c 0,28,29
 525.179 517.032 525.179 517.032 525.086 565.366 c 0,30,31
 525.078 569.468 525.078 569.468 525 573.5 c 0,32,33
 524 625.001 524 625.001 496 630 c 0,34,35
 473.874 629.028 l 0,36,37
 461.395 626.368 461.395 626.368 448.5 619 c 0,38,39
 425.042 605.596 425.042 605.596 425 572 c 0,40,41
 425 548 425 548 473 539 c 0,42,43
 435 526 435 526 387.5 534.5 c 0,44,45
 340 543 340 543 324 580 c 0,46,47
 317.399 594.852 317.399 594.852 317.497 610.957 c 0,48,49
 317.697 643.648 317.697 643.648 345.5 681.5 c 0,50,51
 387 738 387 738 398 783 c 0,52,53
 404.119 810.154 404.119 810.154 404.095 837.382 c 0,54,55
 404.056 881.345 404.056 881.345 388 925.5 c 0,56,57
 362 997 362 997 319 1042 c 0,58,59
 310.857 1049.71 310.857 1049.71 301.979 1049.9 c 0,60,61
 289.326 1046.54 l 0,62,63
 283.314 1043.31 283.314 1043.31 277 1037 c 0,64,65
 263.787 1023.79 263.787 1023.79 263.445 1010.25 c 0,66,67
 267.068 995.034 l 0,68,69
 268.318 992.522 268.318 992.522 270 990 c 0,70,71
 282 972 282 972 290.5 967 c 0,72,73
 299 962 299 962 341 962 c 0,74,75
 333.001 943 333.001 943 281.5 940 c 0,76,77
 245.179 941.292 l 0,78,79
 219.509 945.159 219.509 945.159 203 958 c 0,80,81
 158 992 158 992 173 1067 c 0,82,83
 188 1142 188 1142 188 1190 c 0,84,85
 188 1298 188 1298 111 1360 c 0,86,87
 34.0009 1421.99 34.0009 1421.99 19 1521 c 0,88,89
 14.7895 1547.84 14.7895 1547.84 14.8726 1575.69 c 0,90,91
 15.1051 1653.65 15.1051 1653.65 49 1739.5 c 0,92,93
 94.9978 1856 94.9978 1856 234 1913 c 0,94,95
 139.993 1851.99 139.993 1851.99 89.5 1755 c 0,96,97
 39 1657.99 39 1657.99 84 1557 c 0,98,99
 113.309 1491.05 113.309 1491.05 188.767 1490.96 c 0,100,101
 195.689 1490.95 195.689 1490.95 203 1491.5 c 0,102,103
 289.995 1497.99 289.995 1497.99 332 1546 c 0,104,105
 346.769 1562.25 346.769 1562.25 346.875 1578.25 c 0,106,107
 346.974 1593.24 346.974 1593.24 334.206 1608.02 c 0,108,109
 332.918 1609.51 332.918 1609.51 331.5 1611 c 0,110,111
 310.872 1632.64 310.872 1632.64 278.582 1632.79 c 0,112,113
 263.126 1632.86 263.126 1632.86 245 1628 c 0,114,115
 281 1653.99 281 1653.99 325.5 1653.5 c 0,116,117
 369.993 1653.01 369.993 1653.01 392 1635 c 0,118,119
 421.654 1608.64 421.654 1608.64 421.779 1569.91 c 0,120,121
 421.843 1549.86 421.843 1549.86 414 1526.5 c 0,122,123
 391.987 1460.93 391.987 1460.93 391.958 1414.16 c 0,124,125
 391.957 1412.06 391.957 1412.06 392 1410 c 0,126,127
 393 1358.01 393 1358.01 402.5 1279 c 0,128,129
 411.998 1200.01 411.998 1200.01 433.5 1129.5 c 0,130,131
 455.002 1058.99 455.002 1058.99 490.5 1016.5 c 0,132,133
 526 974 526 974 580 997 c 0,134,135
 623.004 1015 623.004 1015 668 1086.5 c 0,136,137
 713.005 1158.01 713.005 1158.01 722 1192 c 0,138,139
 722.967 1213.49 l 0,140,141
 720.821 1232.68 720.821 1232.68 709.5 1259 c 0,142,143
 697.668 1286.51 697.668 1286.51 678.264 1287.01 c 0,144,145
 662.531 1283.53 l 0,146,147
 658.396 1281.73 658.396 1281.73 654 1279 c 0,148,149
 623 1259.99 623 1259.99 644 1238.5 c 0,150,151
 665.005 1217 665.005 1217 689 1217 c 0,152,153
 668.538 1203.36 668.538 1203.36 648.887 1203.12 c 0,154,155
 628.401 1206.6 l 0,156,157
 623.929 1208.19 623.929 1208.19 619.5 1210.5 c 0,158,159
 586 1228.01 586 1228.01 580 1254 c 0,160,161
 577.345 1283.47 l 0,162,163
 580.493 1350.79 580.493 1350.79 672.5 1397 c 0,164,165
 783.992 1452.99 783.992 1452.99 842 1519 c 0,166,167
 883.993 1565.99 883.993 1565.99 911.5 1631 c 0,168,169
 939.004 1696.01 939.004 1696.01 975 1747 c 0,170,-1
 1009 1799 l 0,171,172
 1034.59 1838.13 1034.59 1838.13 1076.6 1838.19 c 0,173,174
 1090.41 1838.21 1090.41 1838.21 1106 1834 c 0,175,176
 1048 1818 1048 1818 1029 1767.5 c 0,177,178
 1023.79 1753.67 1023.79 1753.67 1023.77 1741.52 c 0,179,180
 1023.69 1709.34 1023.69 1709.34 1060 1689 c 0,181,182
 1070.52 1682.59 1070.52 1682.59 1083.77 1682.47 c 0,183,184
 1107.18 1686.44 l 0,185,186
 1112.9 1688.29 1112.9 1688.29 1119 1691 c 0,187,188
 1155.02 1707.01 1155.02 1707.01 1164 1717 c 0,189,190
 1211.36 1773.83 1211.36 1773.83 1211.75 1816.12 c 0,191,192
 1208.36 1838.44 l 0,193,194
 1199.16 1866.33 1199.16 1866.33 1165 1886.5 c 0,195,196
 1070.99 1942.01 1070.99 1942.01 1047 1951 c 0,197,198
 1137.99 1935 1137.99 1935 1181 1897 c 0,199,200
 1223.99 1859.02 1223.99 1859.02 1227 1853 c 0,201,202
 1246.97 1809.61 1246.97 1809.61 1247.02 1775.71 c 0,203,204
 1247.05 1760.39 1247.05 1760.39 1243 1747 c 0,205,206
 1229.99 1703.99 1229.99 1703.99 1186 1636 c 0,207,208
 1142.01 1570.01 1142.01 1570.01 1043 1495 c 0,209,210
 944 1420 944 1420 935 1345 c 0,211,212
 926 1282 926 1282 945.5 1214.5 c 0,213,214
 965 1147 965 1147 967 1084 c 0,215,216
 967 1054 967 1054 943.5 963 c 0,217,218
 920 872 920 872 815 866 c 0,219,220
 857 879 857 879 883.5 956.5 c 0,221,222
 889.484 974.001 889.484 974.001 889.681 987.55 c 0,223,224
 886.68 1005.75 l 0,225,226
 875.526 1034 875.526 1034 823 1034 c 0,227,228
 771 1034 771 1034 752 980 c 0,229,230
 733 926 733 926 733 893 c 0,231,232
 733 811.001 733 811.001 801 798 c 0,233,234
 834.18 791.758 834.18 791.758 860.508 791.83 c 0,235,236
 914.319 791.977 914.319 791.977 939.5 818.5 c 0,237,238
 960.695 840.826 960.695 840.826 960.646 863.631 c 0,239,240
 960.608 881.174 960.608 881.174 948 899 c 0,241,242
 978 896 978 896 989.5 866 c 0,243,244
 1001 836 1001 836 997 821 c 0,245,246
 961 701 961 701 866.5 644.5 c 0,247,248
 772 588 772 588 736 460 c 0,249,250
 723.002 415.009 723.002 415.009 713 360 c 0,251,252
 703 305 703 305 703 257 c 0,253,254
 703 207.999 703 207.999 723.5 154.5 c 0,255,256
 744.007 100.984 744.007 100.984 763 57 c 0,257,258
 807 -46.0001 807 -46.0001 731.5 -214 c 0,259,260
 656 -382 656 -382 587 -427 c 1,0,1
EndSplineSet
KernsSLIF: 79 -91 0 0 111 -182 0 0 321 -313 0 0 83 -260 0 0 45 -195 0 0 46 -234 0 0 44 -234 0 0 97 -427 0 0 65 -385 0 0
EndChar
StartChar: Z
Encoding: 90 90 30
Width: 1724
Flags: HMW
HStem: 39.5 156<312 1458.5> 1435 135<408 1265>
Fore
237 -220 m 0,0,1
 177 -220 177 -220 153.5 -186 c 0,2,3
 130.001 -152.001 130.001 -152.001 126 -106 c 0,4,5
 124.999 -98.9995 124.999 -98.9995 130.5 -45 c 0,6,7
 136.001 9.00019 136.001 9.00019 178 20 c 0,8,9
 160 3.8147e-06 160 3.8147e-06 154 -37 c 0,10,11
 153.534 -61.664 l 0,12,13
 156.519 -80.2962 156.519 -80.2962 171 -91 c 0,14,15
 195.849 -108.749 195.849 -108.749 220.619 -108.763 c 0,16,17
 258.651 -108.785 258.651 -108.785 296.5 -67 c 0,18,19
 359 2 359 2 350 74 c 0,20,21
 341 140 341 140 312 195.5 c 0,22,23
 284.062 248.969 284.062 248.969 283.967 326.1 c 0,24,25
 283.963 329.032 283.963 329.032 284 332 c 0,26,27
 284 367 284 367 308.5 416 c 0,28,29
 332.999 464.999 332.999 464.999 375 475 c 0,30,31
 386 478 386 478 412.5 479 c 0,32,33
 439 480 439 480 445 464 c 0,34,35
 421 479 421 479 380 457.5 c 0,36,37
 339 436 339 436 336 411 c 0,38,39
 333 384 333 384 340 349 c 0,40,41
 347 314 347 314 386 314 c 0,42,43
 433 314 433 314 491 438 c 0,44,45
 549 562 549 562 561 604 c 0,46,47
 588.999 708.994 588.999 708.994 597.5 802.5 c 0,48,49
 606.002 896.013 606.002 896.013 622 989 c 0,50,51
 626.002 1016.01 626.002 1016.01 642 1055.5 c 0,52,53
 658 1094.99 658 1094.99 679 1114 c 0,54,55
 732.993 1163 732.993 1163 790 1170.5 c 0,56,57
 847 1178 847 1178 861 1157 c 0,58,59
 839.005 1159.27 l 0,60,61
 804.088 1157.18 804.088 1157.18 761.5 1121 c 0,62,63
 729.029 1093.41 729.029 1093.41 728.761 1068.8 c 0,64,65
 728.666 1060.01 728.666 1060.01 732.68 1051.59 c 0,66,67
 736.981 1042.58 736.981 1042.58 746 1034 c 0,68,69
 758.751 1021.72 758.751 1021.72 775.514 1021.82 c 0,70,71
 794.252 1021.93 794.252 1021.93 818 1037.5 c 0,72,73
 863 1067.01 863 1067.01 878 1087 c 0,74,-1
 938.5 1169.5 l 0,75,76
 971.986 1215.98 971.986 1215.98 996 1257 c 0,77,78
 1019.99 1299.98 1019.99 1299.98 1034.5 1347 c 0,79,80
 1037.69 1368.81 l 0,81,82
 1036.86 1402.8 1036.86 1402.8 998 1431 c 0,83,84
 953.018 1461.99 953.018 1461.99 882 1470.5 c 0,85,86
 811.043 1479 811.043 1479 758 1479 c 0,87,88
 637.993 1479 637.993 1479 585 1440.5 c 0,89,-1
 461 1347 l 0,90,91
 452 1341 452 1341 431.5 1324.5 c 0,92,93
 411 1308 411 1308 399 1308 c 0,94,95
 373 1306.01 373 1306.01 328.5 1318.5 c 0,96,97
 284 1330.99 284 1330.99 273 1377 c 0,98,99
 281.997 1358 281.997 1358 348.5 1347.5 c 0,100,101
 370.966 1347.4 l 0,102,103
 408.317 1354.47 408.317 1354.47 408.663 1416.16 c 0,104,105
 408.713 1425.02 408.713 1425.02 408 1435 c 0,106,107
 402.001 1507.99 402.001 1507.99 309.5 1513.5 c 0,108,109
 225.463 1515.21 l 0,110,111
 196.474 1514.14 196.474 1514.14 179 1510 c 0,112,113
 52.0235 1476.53 52.0235 1476.53 51.5 1402.5 c 0,114,115
 52 1292 l 0,116,117
 29.2774 1353.48 29.2774 1353.48 29.1846 1400.28 c 0,118,119
 29.0851 1450.43 29.0851 1450.43 54.9838 1483.72 c 0,120,121
 59.1549 1489.08 59.1549 1489.08 64 1494 c 0,122,123
 126.992 1558 126.992 1558 183 1576 c 0,124,125
 251.935 1596.94 251.935 1596.94 326.223 1596.94 c 0,126,127
 337.056 1596.94 337.056 1596.94 348 1596.5 c 0,128,129
 433.929 1593.01 433.929 1593.01 515 1584 c 0,130,131
 572 1578 572 1578 630.5 1582.5 c 0,132,133
 673.739 1585.83 673.739 1585.83 674.092 1615.65 c 0,134,135
 669.821 1637.75 l 0,136,137
 669.427 1638.86 669.427 1638.86 669 1640 c 0,138,139
 656.558 1671.11 656.558 1671.11 625.717 1671.15 c 0,140,141
 611.944 1671.17 611.944 1671.17 594.5 1665 c 0,142,143
 538.001 1645.01 538.001 1645.01 534 1629 c 0,144,145
 532.47 1656.34 l 0,146,147
 534.846 1679.14 534.846 1679.14 551 1694 c 0,148,149
 576.009 1717 576.009 1717 597 1723 c 0,150,151
 636 1732 636 1732 696 1727.5 c 0,152,153
 755.989 1723 755.989 1723 794 1703 c 0,154,-1
 917 1635.5 l 0,155,156
 983.989 1598.01 983.989 1598.01 1039 1585 c 0,157,158
 1102 1570 1102 1570 1150.5 1568.5 c 0,159,160
 1260.41 1569.8 l 0,161,162
 1262.69 1569.9 1262.69 1569.9 1265 1570 c 0,163,164
 1349.93 1567.33 l 0,165,166
 1365.77 1566.16 1365.77 1566.16 1382.5 1564.5 c 0,167,168
 1447.99 1558.01 1447.99 1558.01 1490 1519 c 0,169,170
 1518.99 1492 1518.99 1492 1521.5 1422.5 c 0,171,172
 1519.34 1385.52 l 0,173,174
 1512.2 1343.51 1512.2 1343.51 1483 1320 c 0,175,176
 1461.18 1301.94 1461.18 1301.94 1419.52 1302 c 0,177,178
 1405.83 1302.02 1405.83 1302.02 1390 1304 c 0,179,180
 1421.01 1305.01 1421.01 1305.01 1454.5 1361.5 c 0,181,182
 1468.24 1384.68 1468.24 1384.68 1468.27 1407.09 c 0,183,184
 1468.31 1439.33 1468.31 1439.33 1440 1470 c 0,185,186
 1427.39 1482.61 1427.39 1482.61 1405.3 1482.6 c 0,187,188
 1387.11 1482.58 1387.11 1482.58 1362.5 1474 c 0,189,190
 1308 1454.99 1308 1454.99 1290 1435 c 0,191,192
 1215 1352.01 1215 1352.01 1139.5 1219.5 c 0,193,194
 1064.02 1087.02 1064.02 1087.02 1018 985 c 0,195,196
 988.999 918.996 988.999 918.996 972 828 c 0,197,198
 955 737 955 737 946 665 c 0,199,200
 935.001 593.002 935.001 593.002 894 557.5 c 0,201,202
 853 522 853 522 760 561 c 0,203,204
 793 555 793 555 837.5 579 c 0,205,206
 882 603 882 603 864 663 c 0,207,208
 853.377 695.377 853.377 695.377 831.749 695.891 c 0,209,210
 814.459 692.007 l 0,211,212
 798.784 685.202 798.784 685.202 779 666.5 c 0,213,214
 715 606.001 715 606.001 712 568 c 0,215,216
 706.001 503.007 706.001 503.007 703.5 387 c 0,217,218
 706.084 344.04 l 0,219,220
 718.324 266.367 718.324 266.367 787 248 c 0,221,222
 835.997 235 835.997 235 897.5 226 c 0,223,224
 959 217 959 217 1018 217 c 0,225,226
 1110.99 217 1110.99 217 1154 286 c 0,227,228
 1197.03 355.037 1197.03 355.037 1245 418 c 0,229,230
 1311.58 504.619 1311.58 504.619 1367.71 504.744 c 0,231,232
 1398.42 504.812 1398.42 504.812 1426 479 c 0,233,234
 1498.75 410.917 1498.75 410.917 1499.3 379.363 c 0,235,236
 1499.34 377.087 1499.34 377.087 1499 375 c 0,237,238
 1482.01 402 1482.01 402 1418 425.5 c 0,239,240
 1397.57 433 1397.57 433 1380.61 432.912 c 0,241,242
 1344.43 432.724 1344.43 432.724 1324 398 c 0,243,244
 1304 362.992 1304 362.992 1304 298 c 0,245,246
 1304 260.996 1304 260.996 1348.5 222 c 0,247,248
 1393.01 183 1393.01 183 1419 174 c 0,249,250
 1456.01 159 1456.01 159 1509 141 c 0,251,252
 1562.02 122.991 1562.02 122.991 1598 108 c 0,253,254
 1669.01 77.9939 1669.01 77.9939 1713 17.5 c 0,255,256
 1745.17 -26.7446 1745.17 -26.7446 1745.27 -73.9191 c 0,257,258
 1745.3 -91.2615 1745.3 -91.2615 1741 -109 c 0,259,260
 1722.99 -65.9799 1722.99 -65.9799 1692 -19.5 c 0,261,262
 1660.99 27.0011 1660.99 27.0011 1582 35 c 0,263,264
 1536.43 39.8826 1536.43 39.8826 1483.24 39.7986 c 0,265,266
 1471.07 39.7794 1471.07 39.7794 1458.5 39.5 c 0,267,268
 1390.99 37.9999 1390.99 37.9999 1335 24 c 0,269,270
 1287 10.9999 1287 10.9999 1240.5 -17.5 c 0,271,272
 1194 -46 1194 -46 1152 -63 c 0,273,274
 1090.99 -86.0012 1090.99 -86.0012 1044.5 -92.5 c 0,275,276
 998 -98.9999 998 -98.9999 964 -63 c 0,277,278
 949 -48 949 -48 951.5 -26 c 0,279,280
 954 -3.99995 954 -3.99995 962 1 c 0,281,282
 969.999 -44 969.999 -44 999 -44 c 0,283,284
 1042.99 -44 1042.99 -44 1050 -2 c 0,285,286
 1048.42 12.7096 l 0,287,288
 1038.21 37.5233 1038.21 37.5233 973.184 37.7045 c 0,289,290
 961.698 37.7366 961.698 37.7366 948.5 37 c 0,291,292
 841.002 31.0001 841.002 31.0001 828 29 c 0,293,294
 699 6.99995 699 6.99995 604 -48.5 c 0,295,296
 509 -104 509 -104 397 -161 c 0,297,-1
 320 -198 l 0,298,299
 274.001 -220 274.001 -220 237 -220 c 0,0,1
EndSplineSet
KernsSLIF: 121 -117 0 0 89 -104 0 0 322 -182 0 0 321 -169 0 0 105 -52 0 0 73 -65 0 0 101 -65 0 0 98 -78 0 0 66 -78 0 0 45 -208 0 0
EndChar
StartChar: a
Encoding: 97 97 56
Width: 1254
Flags: W
Fore
1101 -190 m 1,0,1
 1130.99 -133.017 1130.99 -133.017 1145.5 -66.5 c 0,2,3
 1160.01 -5.34058e-05 1160.01 -5.34058e-05 1105 52 c 0,4,5
 1061.98 94.0183 1061.98 94.0183 1019 122 c 0,6,7
 976 150.001 976 150.001 929 134 c 0,8,9
 898.001 122 898.001 122 889.5 75 c 0,10,11
 881 28 881 28 878 28 c 0,12,13
 843 97 843 97 885 176 c 0,14,15
 924.162 249.663 924.162 249.663 924.2 314.63 c 0,16,17
 924.203 319.338 924.203 319.338 924 324 c 0,18,19
 918 460 918 460 878 508 c 0,20,21
 838 556 838 556 784 577 c 0,22,23
 755.159 588.038 755.159 588.038 730.121 588.046 c 0,24,25
 684.841 588.061 684.841 588.061 652 552 c 0,26,27
 601 496 601 496 547 472 c 0,28,29
 514 457 514 457 477.5 471 c 0,30,31
 441 485 441 485 438 524 c 0,32,33
 464.8 513.421 464.8 513.421 477.424 513.287 c 0,34,35
 482.7 513.232 482.7 513.232 485.5 515 c 0,36,37
 495 521 495 521 498 527 c 0,38,39
 515 563 515 563 474 575 c 0,40,41
 385 595 385 595 349 527 c 0,42,43
 319 469 319 469 294.5 385 c 0,44,45
 270 301 270 301 302 230 c 0,46,47
 308.851 213.559 308.851 213.559 308.896 189.844 c 0,48,49
 308.917 178.941 308.917 178.941 307.5 166.5 c 0,50,51
 303 126.999 303 126.999 264 113 c 0,52,53
 267.965 142.506 l 0,54,55
 267.628 173.422 267.628 173.422 240.722 174.061 c 0,56,57
 231.5 173.5 l 0,58,59
 183 167 183 167 157 138 c 0,60,61
 98.9995 73.9999 98.9995 73.9999 70 21 c 0,62,63
 41 -32 41 -32 51 -108 c 0,64,65
 27 -84 27 -84 28.5 -26.5 c 0,66,67
 30 31 30 31 46 58 c 0,68,69
 74.9999 109 74.9999 109 103 152.5 c 0,70,71
 131.001 196 131.001 196 133 250 c 0,72,73
 133 283 133 283 109 296.5 c 0,74,75
 85 310 85 310 97 257 c 0,76,77
 68.0001 282 68.0001 282 77 321 c 0,78,79
 111.999 481 111.999 481 225.5 621 c 0,80,81
 338.999 760.998 338.999 760.998 360 850 c 0,82,83
 374.002 908.012 374.002 908.012 386 973.5 c 0,84,85
 398.006 1039.04 398.006 1039.04 406 1093 c 0,86,87
 412.001 1150.01 412.001 1150.01 448.5 1198.5 c 0,88,89
 469.7 1226.67 469.7 1226.67 494.444 1226.67 c 0,90,91
 512.299 1226.67 512.299 1226.67 532 1212 c 0,92,93
 487 1203 487 1203 485.5 1178.5 c 0,94,95
 484 1154.01 484 1154.01 493 1144 c 0,96,97
 508.183 1124.39 508.183 1124.39 523.767 1124.39 c 0,98,99
 532.816 1124.39 532.816 1124.39 542 1131 c 0,100,101
 590 1162.99 590 1162.99 620.5 1264.5 c 0,102,103
 650.032 1362.79 650.032 1362.79 650 1422 c 0,104,105
 647 1478 647 1478 609.5 1511 c 0,106,107
 591.999 1526.4 591.999 1526.4 572.867 1526.56 c 0,108,109
 561.011 1526.65 561.011 1526.65 548.53 1520.9 c 0,110,111
 537.988 1516.04 537.988 1516.04 527 1507 c 0,112,113
 557 1585 557 1585 603.5 1573 c 0,114,115
 650.006 1561 650.006 1561 697.5 1510.5 c 0,116,117
 745 1459.99 745 1459.99 785.5 1398 c 0,118,119
 826 1336.01 826 1336.01 844 1314 c 0,120,121
 873.983 1277.02 873.983 1277.02 913.5 1253.5 c 0,122,123
 953.003 1229.99 953.003 1229.99 969 1197 c 0,124,125
 981.772 1169.25 981.772 1169.25 981.839 1147.23 c 0,126,127
 981.924 1119.24 981.924 1119.24 961.5 1100.5 c 0,128,129
 942.278 1082.86 942.278 1082.86 919.867 1082.83 c 0,130,131
 899.721 1082.8 899.721 1082.8 877 1097 c 0,132,133
 907 1097 907 1097 907 1116 c 0,134,135
 907 1136.99 907 1136.99 873.5 1154.5 c 0,136,137
 859.98 1158.04 l 0,138,139
 840.37 1156.54 840.37 1156.54 840 1104 c 0,140,141
 840 1080 840 1080 851.5 1052 c 0,142,-1
 869 1010 l 0,143,144
 896 941 896 941 908.5 966 c 0,145,146
 921 991 921 991 906 1008 c 0,147,148
 939 1008 939 1008 950.5 966 c 0,149,150
 962 924 962 924 962 913 c 0,151,152
 962 849 962 849 953.5 758.5 c 0,153,154
 945 668 945 668 975 611 c 0,155,156
 984 591 984 591 1019 539 c 0,157,158
 1053.42 487.858 1053.42 487.858 1069 478 c 0,159,160
 1087.99 466.009 1087.99 466.009 1105.5 429.5 c 0,161,162
 1110.37 419.346 1110.37 419.346 1110.48 409.695 c 0,163,164
 1110.57 401.279 1110.57 401.279 1107.05 393.244 c 0,165,166
 1100.08 377.377 1100.08 377.377 1079 363 c 0,167,168
 1084.24 378.447 1084.24 378.447 1084.46 389.787 c 0,169,170
 1081.44 405.63 l 0,171,172
 1074.39 420.005 1074.39 420.005 1051 421 c 0,173,174
 1032.22 419.204 l 0,175,176
 1015.67 414.069 1015.67 414.069 1015.63 395.11 c 0,177,178
 1015.62 392.216 1015.62 392.216 1016 389 c 0,179,180
 1028 288.996 1028 288.996 1102.5 232 c 0,181,182
 1177 175.004 1177 175.004 1186 88 c 0,183,184
 1189.26 21.1694 l 0,185,186
 1188.68 -24.9163 1188.68 -24.9163 1179.5 -64 c 0,187,188
 1164.01 -129.994 1164.01 -129.994 1101 -190 c 1,0,1
619 690 m 1,115,116
 634 708 634 708 649.5 729.5 c 0,117,118
 665 751 665 751 683 764 c 0,119,120
 703.141 776.451 703.141 776.451 718.052 776.43 c 0,121,122
 743.859 776.394 743.859 776.394 754 739 c 0,123,124
 718 758 718 758 703 748 c 0,125,126
 695.286 742.857 695.286 742.857 695.242 733.747 c 0,127,128
 695.2 725.143 695.2 725.143 702 713 c 0,129,130
 726 668 726 668 768.5 715 c 0,131,132
 801.516 751.512 801.516 751.512 801.642 804.32 c 0,133,134
 801.678 819.488 801.678 819.488 799 836 c 0,135,136
 793 871 793 871 747 983 c 0,137,138
 710.201 1072.6 710.201 1072.6 681.72 1073.24 c 0,139,140
 670.911 1070.1 l 0,141,142
 669.443 1069.18 669.443 1069.18 668 1068 c 0,143,144
 641 1045.99 641 1045.99 649.5 1012.5 c 0,145,146
 658 979 658 979 661 948 c 0,147,148
 660.631 904.308 l 0,149,150
 656.786 866.042 656.786 866.042 640.5 829 c 0,151,152
 615 771 615 771 521 807 c 0,153,154
 548 804 548 804 586 824.5 c 0,155,156
 624 845 624 845 579 884 c 0,157,158
 570.784 890.676 570.784 890.676 561.249 890.627 c 0,159,160
 552.216 890.581 552.216 890.581 542 884.5 c 0,161,162
 521 872 521 872 509 856 c 0,163,164
 440 763 440 763 512.5 704 c 0,165,166
 585 645 585 645 619 690 c 1,115,116
EndSplineSet
KernsSLIF: 99 -130 0 0 109 -78 0 0 104 -117 0 0 45 -182 0 0 115 -208 0 0 121 -299 0 0 116 -342 0 0 118 -43 0 0 119 -221 0 0
EndChar
StartChar: b
Encoding: 98 98 18
Width: 1083
Flags: HMW
HStem: 40.8 160.65<365.16 635.205> 617.1 218.45<359.04 641.325> 1229.95 170<339.15 591.6> 1316.65 94.35<25.5 180.795>
VStem: 209.1 130.05<-23.8 1399.95>
Fore
426.7 185.3 m 1,0,1
 482.159 184.3 l 0,2,3
 531.98 186.879 531.98 186.879 587.35 201.45 c 0,4,5
 674.56 224.4 674.56 224.4 735.76 252.45 c 0,6,7
 787.78 275.4 787.78 275.4 844.9 337.45 c 0,8,9
 880.496 376.117 880.496 376.117 880.837 408.843 c 0,10,11
 877.226 429.789 l 0,12,13
 874.124 438.244 874.124 438.244 868.359 446.25 c 0,14,15
 856.121 462.4 856.121 462.4 830.62 468.775 c 0,16,17
 805.12 475.15 805.12 475.15 784.721 454.75 c 0,18,19
 775.451 445.243 775.451 445.243 775.402 431.167 c 0,20,21
 775.382 425.107 775.382 425.107 777.07 418.2 c 0,22,23
 782.68 395.25 782.68 395.25 818.38 380.8 c 0,24,25
 790.84 360.4 790.84 360.4 741.88 387.175 c 0,26,27
 700.418 409.849 700.418 409.849 699.92 445.63 c 0,28,29
 699.83 452.101 699.83 452.101 701.08 459 c 0,30,31
 709.24 509.15 709.24 509.15 758.2 539.325 c 0,32,33
 807.16 569.5 807.16 569.5 790.84 612.85 c 0,34,35
 777.58 646 777.58 646 704.141 670.65 c 0,36,37
 630.699 695.299 630.699 695.299 560.32 700.4 c 0,38,39
 496.06 704.649 496.06 704.649 440.47 697.85 c 0,40,41
 384.88 691.051 384.88 691.051 359.38 636.65 c 0,42,43
 337.96 594.151 337.96 594.151 334.9 547.4 c 0,44,45
 333.928 474.045 l 0,46,47
 334.294 465.198 334.294 465.198 334.9 456.45 c 0,48,49
 334.9 429.25 334.9 429.25 361.93 407.15 c 0,50,51
 374.852 396.585 374.852 396.585 391.621 396.51 c 0,52,53
 409.928 396.428 409.928 396.428 432.82 408.85 c 0,54,55
 467.684 428.219 467.684 428.219 468.122 451.755 c 0,56,57
 464.95 467.075 l 0,58,59
 451.18 499.8 451.18 499.8 414.46 510 c 0,60,61
 437.91 523.68 437.91 523.68 462.372 523.6 c 0,62,63
 480.469 523.54 480.469 523.54 499.12 515.95 c 0,64,65
 545.059 496.808 545.059 496.808 545.48 454.907 c 0,66,67
 545.527 450.291 545.527 450.291 545.021 445.4 c 0,68,69
 539.919 396.099 539.919 396.099 510.34 368.9 c 0,70,71
 482.8 343.4 482.8 343.4 420.58 301.325 c 0,72,73
 358.359 259.25 358.359 259.25 367.54 221 c 0,74,75
 373.66 189.549 373.66 189.549 426.7 185.3 c 0,76,-1
 426.7 185.3 l 1,0,1
346.289 870.4 m 1,44,45
 374.387 839.903 374.387 839.903 420.997 839.912 c 0,46,47
 438.15 839.915 438.15 839.915 457.81 844.05 c 0,48,49
 603.802 874.755 603.802 874.755 607.75 884 c 0,50,-1
 726.75 986 l 0,51,52
 758.7 1033.93 758.7 1033.93 760.75 1139 c 0,53,54
 757.517 1164.82 l 0,55,56
 744.581 1211.19 744.581 1211.19 680.169 1246.95 c 0,57,58
 610.978 1284.48 610.978 1284.48 564.236 1284.64 c 0,59,60
 555.885 1284.66 555.885 1284.66 548.25 1283.5 c 0,61,62
 515.57 1278.17 515.57 1278.17 545.189 1206.58 c 0,63,64
 573.239 1137.3 573.239 1137.3 539.58 1074.4 c 0,65,66
 493.969 990.462 493.969 990.462 419.145 989.885 c 0,67,68
 413.651 989.843 413.651 989.843 408 990.25 c 0,69,70
 461.193 1002.56 461.193 1002.56 461.588 1072.75 c 0,71,72
 461.602 1075.24 461.602 1075.24 461.55 1077.8 c 0,73,74
 460.02 1152.6 460.02 1152.6 400.859 1152.6 c 0,75,76
 350.893 1152.6 350.893 1152.6 331.5 998.75 c 0,77,78
 327.473 940.051 l 0,79,80
 327.837 888.625 327.837 888.625 346.289 870.4 c 0,81,-1
 346.289 870.4 l 1,44,45
279.65 36.125 m 145,-1,-1
 184.789 -11.4746 l 0,45,46
 159.502 -9.35944 l 0,47,48
 129.359 -1.62558 129.359 -1.62558 126.267 32.7246 c 0,49,50
 126.948 66.7202 l 0,51,52
 130.7 93.8745 130.7 93.8745 145.01 117.725 c 0,53,54
 140.419 37.8253 140.419 37.8253 171.02 48.875 c 0,55,56
 201.62 59.9251 201.62 59.9251 206.592 124.1 c 0,57,58
 211.563 188.275 211.563 188.275 203.532 264.775 c 0,59,60
 195.5 341.275 195.5 341.275 180.582 410.125 c 0,61,62
 165.665 478.973 165.665 478.973 158.014 498.525 c 0,63,64
 125.887 571.621 125.887 571.621 111.35 600.95 c 0,65,66
 93.3115 637.34 93.3115 637.34 53.21 692.325 c 0,67,68
 21.4043 735.935 21.4043 735.935 21.3251 790.518 c 0,69,70
 21.3148 797.641 21.3148 797.641 21.8447 804.95 c 0,71,72
 26.4336 868.276 26.4336 868.276 71.5693 903.125 c 0,73,74
 89.6215 917.105 89.6215 917.105 112.368 917.176 c 0,75,76
 121.43 917.204 121.43 917.204 131.238 915.025 c 0,77,78
 165.664 907.375 165.664 907.375 169.488 836.825 c 0,79,80
 154.453 858.406 154.453 858.406 130.692 858.606 c 0,81,82
 125.441 858.65 125.441 858.65 119.764 857.65 c 0,83,84
 88.4003 852.125 88.4003 852.125 92.9883 800.275 c 0,85,86
 96.8135 755.225 96.8135 755.225 130.475 753.95 c 0,87,88
 152.528 756.629 l 0,89,90
 169.195 762.046 169.195 762.046 177.904 778.175 c 0,91,92
 208.147 831.941 208.147 831.941 208.122 949.45 c 0,93,94
 207.738 1066.34 207.738 1066.34 203.15 1136.88 c 0,95,96
 199.325 1188.72 199.325 1188.72 182.494 1252.9 c 0,97,98
 167.916 1308.49 167.916 1308.49 116.417 1308.61 c 0,99,100
 107.206 1308.63 107.206 1308.63 96.8135 1306.88 c 0,101,102
 45.3775 1298.19 45.3775 1298.19 45.4768 1255.64 c 0,103,104
 45.4942 1248.2 45.4942 1248.2 47.0889 1239.72 c 0,105,106
 57.7988 1182.79 57.7988 1182.79 80.75 1179.38 c 0,107,108
 59.2039 1176.94 l 0,109,110
 28.1379 1179.12 28.1379 1179.12 7.69141 1217.2 c 0,111,112
 -7.80302 1246.06 -7.80302 1246.06 -7.73372 1278.37 c 0,113,114
 -7.68156 1302.69 -7.68156 1302.69 1.18848 1328.97 c 0,115,116
 34.7996 1426.53 34.7996 1426.53 120.092 1427.05 c 0,117,118
 156.484 1423.33 l 0,119,-1
 235.662 1407.6 l 0,120,121
 259.896 1404.67 l 0,122,123
 288.348 1405.15 288.348 1405.15 332.859 1419.5 c 0,124,125
 373.66 1433.1 373.66 1433.1 406.81 1470.5 c 0,126,127
 440.005 1507.95 440.005 1507.95 467.5 1535.95 c 0,128,129
 485.874 1555.51 485.874 1555.51 524.109 1572.08 c 0,130,131
 553.312 1584.73 553.312 1584.73 579.849 1584.75 c 0,132,133
 588.062 1584.76 588.062 1584.76 596.021 1583.55 c 0,134,135
 643.954 1576.76 643.954 1576.76 688.84 1535.95 c 0,136,137
 717.922 1509.51 717.922 1509.51 717.881 1472.01 c 0,138,139
 717.858 1452.1 717.858 1452.1 709.24 1428 c 0,140,141
 702.102 1456.04 702.102 1456.04 643.45 1495.15 c 0,142,143
 623.166 1508.67 623.166 1508.67 606.944 1508.87 c 0,144,145
 598.781 1508.97 598.781 1508.97 591.647 1505.69 c 0,146,147
 572.968 1497.11 572.968 1497.11 561.34 1465.4 c 0,148,149
 550.12 1434.8 550.12 1434.8 665.38 1378.28 c 0,150,151
 780.658 1321.74 780.658 1321.74 811.24 1287.75 c 0,152,153
 887.742 1200.19 887.742 1200.19 902.53 1105 c 0,154,155
 908.699 1065.29 908.699 1065.29 908.628 1027.72 c 0,156,157
 908.519 970.361 908.519 970.361 893.859 918 c 0,158,159
 886.72 892.498 886.72 892.498 847.45 853.825 c 0,160,161
 819.755 826.55 819.755 826.55 792.314 826.543 c 0,162,163
 780.845 826.539 780.845 826.539 769.42 831.3 c 0,164,165
 797.979 861.049 797.979 861.049 769.42 872.1 c 0,166,167
 753.683 874.809 l 0,168,169
 739.244 873.686 739.244 873.686 735.76 855.1 c 0,170,171
 728.62 816.85 728.62 816.85 808.69 722.5 c 0,172,173
 889.862 626.849 889.862 626.849 918.34 666.4 c 0,174,175
 933.641 687.651 933.641 687.651 918.34 717.4 c 0,176,177
 903.04 747.15 903.04 747.15 871.42 770.1 c 0,178,179
 963.221 767.55 963.221 767.55 1004.02 693.175 c 0,180,181
 1044.82 618.8 1044.82 618.8 1046.86 590.75 c 0,182,183
 1044.78 549.144 l 0,184,185
 1038.75 505.432 1038.75 505.432 1016.77 447.1 c 0,186,187
 983.62 359.55 983.62 359.55 983.62 288.15 c 0,188,189
 983.62 202.3 983.62 202.3 971.38 134.3 c 0,190,191
 959.141 66.2997 959.141 66.2997 922.42 22.9502 c 0,192,193
 878.56 -28.0498 878.56 -28.0498 805.12 -42.5 c 0,194,195
 768.4 -50.1505 768.4 -50.1505 705.67 -44.2002 c 0,196,197
 642.94 -38.25 642.94 -38.25 616.42 -17 c 0,198,199
 647.676 -20.065 l 0,200,201
 678.398 -19.3574 678.398 -19.3574 708.221 -3.8252 c 0,202,203
 737.354 11.3484 737.354 11.3484 737.606 32.6744 c 0,204,205
 737.702 40.8109 737.702 40.8109 733.594 49.8429 c 0,206,207
 731.27 54.953 731.27 54.953 727.6 60.3496 c 0,208,209
 710.26 85.8496 710.26 85.8496 621.521 82.4502 c 0,210,211
 532.781 79.0499 532.781 79.0499 497.08 76.5 c 0,212,-1
 382.84 67.5752 l 0,213,214
 337.222 59.1049 337.222 59.1049 279.65 36.125 c 145,-1,-1
EndSplineSet
EndChar
